<?xml version="1.0" encoding="utf-8"?>
<!-- Generator: Adobe Illustrator 27.5.0, SVG Export Plug-In . SVG Version: 6.00 Build 0)  -->
<svg version="1.1" xmlns="http://www.w3.org/2000/svg" xmlns:xlink="http://www.w3.org/1999/xlink" x="0px" y="0px"
	 viewBox="0 0 500 500" style="enable-background:new 0 0 500 500;" xml:space="preserve">
<g id="Background_complete">
	<g>
		<g>
			<g>
				<g>
					<g>
						<path style="fill:#E0E0E0;" d="M443.92,300.198H263.174c-3.232,0-5.862-2.63-5.862-5.862V31.062
							c0-3.232,2.63-5.862,5.862-5.862H443.92c3.232,0,5.862,2.629,5.862,5.862v263.273
							C449.783,297.568,447.153,300.198,443.92,300.198z M263.174,25.45c-3.095,0-5.612,2.518-5.612,5.612v263.273
							c0,3.095,2.518,5.612,5.612,5.612H443.92c3.095,0,5.612-2.518,5.612-5.612V31.062c0-3.094-2.518-5.612-5.612-5.612H263.174z"
							/>
					</g>
				</g>
				<g>
					<g>
						<path style="fill:#E0E0E0;" d="M235.493,300.198H54.746c-3.232,0-5.862-2.63-5.862-5.862V31.062
							c0-3.232,2.629-5.862,5.862-5.862h180.747c3.232,0,5.862,2.629,5.862,5.862v263.273
							C241.355,297.568,238.725,300.198,235.493,300.198z M54.746,25.45c-3.094,0-5.612,2.518-5.612,5.612v263.273
							c0,3.095,2.518,5.612,5.612,5.612h180.747c3.095,0,5.612-2.518,5.612-5.612V31.062c0-3.094-2.518-5.612-5.612-5.612H54.746z"
							/>
					</g>
				</g>
			</g>
			<g>
				<g>
					<rect x="0" y="361.267" style="fill:#E0E0E0;" width="500" height="0.25"/>
				</g>
			</g>
		</g>
		<rect x="51.672" y="375.531" style="fill:#E0E0E0;" width="16.06" height="0.25"/>
		<rect x="170.352" y="372.821" style="fill:#E0E0E0;" width="53.53" height="0.25"/>
		<rect x="68.732" y="384.821" style="fill:#E0E0E0;" width="36.25" height="0.25"/>
		<rect x="378.352" y="372.691" style="fill:#E0E0E0;" width="43.19" height="0.25"/>
		<rect x="430.452" y="372.691" style="fill:#E0E0E0;" width="6.33" height="0.25"/>
		<rect x="316.212" y="378.921" style="fill:#E0E0E0;" width="53.89" height="0.25"/>
	</g>
	<g>
		<path style="fill:#F5F5F5;" d="M264.025,458.711l-9.509-146.087l0.322-0.023l10.799,145.998
			C265.099,458.638,264.563,458.676,264.025,458.711z M234.519,458.61l-1.404-0.109l11.674-145.929l0.528,0.04L234.519,458.61z
			 M295.356,454.232l-31.94-142.869l0.693-0.155l32.445,142.755L295.356,454.232z M203.621,454.001l-1.378-0.317l33.266-142.566
			l0.51,0.117L203.621,454.001z M325.135,445.257L272.552,308.63l0.383-0.149l53.623,136.221
			C326.086,444.889,325.611,445.074,325.135,445.257z M173.682,444.797l-1.313-0.519l54.222-135.984l0.495,0.195L173.682,444.797z
			 M353.51,431.799l-72.633-127.107l0.488-0.28l73.333,126.705L353.51,431.799z M145.423,431.186
			c-0.435-0.251-0.869-0.504-1.301-0.759l74.207-126.194l0.376,0.219L145.423,431.186z M379.27,414.461l-90.447-115.113l0.281-0.223
			l91.4,114.358C380.094,413.811,379.683,414.137,379.27,414.461z M119.677,413.627c-0.455-0.362-0.908-0.726-1.36-1.093
			l92.397-113.554l0.151,0.121L119.677,413.627z M402.381,393.308L295.687,293.067l0.338-0.362l107.34,99.549L402.381,393.308z
			 M96.753,392.38l-0.918-0.994l107.754-99.099l0.395,0.428L96.753,392.38z M421.924,369.181l-120.195-83.577l0.178-0.258
			l120.939,82.496C422.541,368.29,422.234,368.735,421.924,369.181z M77.281,368.027c-0.289-0.422-0.577-0.847-0.863-1.272
			l121.44-81.755l0.223,0.328L77.281,368.027z M437.9,342l-131.539-64.26l0.299-0.614l131.791,63.741L437.9,342z M61.6,340.973
			c-0.224-0.464-0.447-0.929-0.669-1.395l132.3-62.68l0.165,0.345L61.6,340.973z M449.476,313.109l-139.555-44.228l0.106-0.342
			l139.922,43.053C449.794,312.098,449.636,312.604,449.476,313.109z M50.112,311.79c-0.146-0.474-0.291-0.947-0.434-1.42
			l140.186-42.186l0.132,0.432L50.112,311.79z M456.677,282.437l-144.663-22.455l0.081-0.536l144.793,21.611L456.677,282.437z
			 M43.15,281.305c-0.075-0.496-0.147-0.991-0.218-1.487l144.916-20.764l0.063,0.429L43.15,281.305z M459.182,251.607l-146.39-1.299
			l0.001-0.604h146.396v0.285C459.188,250.529,459.186,251.069,459.182,251.607z M187.208,250.131H40.812l0.003-1.349l146.394,0.76
			L187.208,250.131z M312.13,240.768l-0.046-0.309l144.728-22.033c0.082,0.536,0.161,1.071,0.238,1.608L312.13,240.768z
			 M187.902,240.55L43.074,219.182c0.075-0.507,0.151-1.013,0.23-1.518l144.659,22.488L187.902,240.55z M310.176,231.924
			l-0.205-0.668l139.865-43.235l0.364,1.185L310.176,231.924z M189.94,231.544L49.999,188.551l0.43-1.383l139.659,43.899
			L189.94,231.544z M306.815,223.175l-0.252-0.525l131.755-63.816l0.585,1.216L306.815,223.175z M193.319,222.893L61.445,159.326
			l0.592-1.22l131.539,64.26L193.319,222.893z M302.214,215.081l-0.375-0.551l120.799-82.698l0.714,1.048L302.214,215.081z
			 M198.046,214.699L77.04,132.303c0.283-0.416,0.568-0.831,0.854-1.244l120.396,83.286L198.046,214.699z M296.158,207.415
			l-0.185-0.199l107.125-99.781c0.378,0.407,0.755,0.814,1.129,1.223L296.158,207.415z M203.928,207.323l-107.44-99.441
			c0.341-0.368,0.683-0.735,1.027-1.101l106.707,100.227L203.928,207.323z M289.346,201.046l-0.323-0.259l91.189-114.526
			c0.397,0.316,0.795,0.634,1.19,0.954L289.346,201.046z M210.851,200.888L119.319,86.635c0.41-0.328,0.821-0.655,1.233-0.98
			l90.58,115.008L210.851,200.888z M281.676,195.745l-0.422-0.245l73.12-126.828l1.255,0.729L281.676,195.745z M218.592,195.589
			L145.097,68.979c0.434-0.252,0.868-0.501,1.303-0.75l72.563,127.147L218.592,195.589z M273.202,191.602l-0.383-0.152
			l53.33-136.337c0.477,0.186,0.951,0.374,1.424,0.563L273.202,191.602z M227.025,191.511L173.214,55.364
			c0.481-0.19,0.962-0.378,1.444-0.564l52.726,136.57L227.025,191.511z M264.353,188.827l-0.385-0.088l32.146-142.823
			c0.502,0.113,1.003,0.228,1.504,0.345L264.353,188.827z M235.855,188.779L203.205,46.07c0.508-0.116,1.018-0.231,1.529-0.344
			l31.484,142.971L235.855,188.779z M255.06,187.393l-0.412-0.031l10.584-146.013c0.507,0.037,1.014,0.075,1.519,0.116
			L255.06,187.393z M245.135,187.378l-11.029-145.98c0.505-0.038,1.012-0.074,1.519-0.109l9.925,146.059L245.135,187.378z"/>
	</g>
	<g>
		<path style="fill:#F0F0F0;" d="M378.319,351.422c-4.626-5.022-9.025-9.925-13.099-14.655c-0.705-0.819-1.4-1.632-2.085-2.44
			c-3.776-4.453-7.24-8.741-10.306-12.818c-1.895-2.223-1.628-5.562,0.595-7.457c6.649-4.752,15.831-12.247,27.055-23.055
			c2.224-1.895,5.562-1.629,7.457,0.595c6.881,4.84,16.11,17.136,25.491,29.913c1.895,2.224,1.628,5.562-0.595,7.457
			c-13.085,10.691-21.262,17.755-27.054,23.055C383.553,353.912,380.214,353.646,378.319,351.422z"/>
		<g>
			<path style="fill:#F5F5F5;" d="M379.88,342.102c-0.211-0.861-0.854-1.54-1.48-2.167c-4.317-4.323-9.315-8.793-10.119-14.85
				c-0.383-2.882-4.168-5.857-3.174-8.589c2.506-6.889,11.721-12.884,17.853-16.902c0.738-0.483,1.515-0.957,2.023-1.678
				c0.508-0.72,0.671-1.771,0.124-2.463c-0.547-0.692-3.121-1.271-3.366-0.424c-7.243,5.668-14.07,11.866-20.41,18.528
				c-1.873,1.968-3.825,4.296-3.67,7.008c0.12,2.103,1.495,3.899,2.838,5.522c5.016,6.062,10.419,11.804,16.165,17.178
				c0.601,0.562,1.353,1.163,2.155,0.976C379.682,344.04,380.091,342.963,379.88,342.102z"/>
		</g>
		<g>
			<path style="fill:#F5F5F5;" d="M408.821,323.146c-0.343-1.466-1.465-2.603-2.539-3.658c-1.5-1.473-3-2.946-4.499-4.419
				c-0.342-0.336-0.751-0.697-1.229-0.651c-0.477,0.046-0.78,0.804-0.344,1.003l-0.21,0.457c0.864,1.495,2.282,2.576,3.401,3.891
				c1.119,1.315,1.963,3.129,1.353,4.744c-0.515,1.363-1.887,2.161-3.098,2.971c-1.997,1.335-3.788,2.977-5.296,4.847
				c-0.844,1.046,0.273,2.554,1.527,2.072c2.246-0.864,4.32-2.337,6.288-3.771c1.262-0.919,2.543-1.858,3.486-3.102
				C408.604,326.285,409.177,324.666,408.821,323.146z"/>
		</g>
	</g>
	<g>
		<g>
			<g>
				<path style="fill:#EBEBEB;" d="M382.256,385.398c0.287,0.536,3.698-6.112,15.659-5.388
					c11.961,0.724,21.559,12.605,19.545,29.781c-2.192,18.689-13.661,30.134-34.91,30.911
					c-21.248,0.776-27.866-13.804-29.725-17.197c-4.94-9.019-7.804-30.098,3.887-38.298
					C369.574,376.185,380.066,381.307,382.256,385.398z"/>
				<g>
					<path style="fill:#E0E0E0;" d="M373.801,385.89c2.079,2.252,4.913,3.924,7.976,3.82c2.063-0.07,4.044-0.804,5.939-1.623
						c1.809-0.781,3.58-1.649,5.306-2.599c0,0-7.274,0.465-9.854,1.139c-2.58,0.675-5.092-2.25-7.13-2.378
						C374.001,384.12,372.538,384.522,373.801,385.89z"/>
				</g>
				<g style="opacity:0.3;">
					<path style="fill:#FFFFFF;" d="M402.015,386.045c5.381,0.957,8.788,4.051,10.87,9.105c2.081,5.054,2.431,13.036-1.268,20.311
						c-0.225-5.617-3.673-15.084-7.994-18.68c-4.321-3.596-10.193-5.258-15.758-4.46
						C396.282,389.224,397.763,387.476,402.015,386.045z"/>
				</g>
				<g>
					<path style="fill:#E0E0E0;" d="M356.712,385.207c1.977-1.387,3.898-2.438,5.741-3.212c-0.29,0.227-0.594,0.438-0.883,0.633
						c-6.869,4.641-10.827,13.029-10.746,21.318c0.082,8.29,3.969,16.332,9.925,22.099c9.31,9.013,26.472,13.29,38.789,9.262
						c7.114-2.326,12.677-8.833,15.019-14.035c-4.956,11.818-15.544,18.828-32.007,19.429
						c-21.248,0.776-27.866-13.804-29.725-17.197C347.886,414.487,345.022,393.407,356.712,385.207z"/>
				</g>
				<g style="opacity:0.3;">
					<path style="fill:#FFFFFF;" d="M359.745,388.655c1.683-3.293,5.864-5.073,9.405-4.004l0.312,0.647
						c1.013,1.625,2.027,3.25,3.041,4.875c0.233,0.374,0.475,0.781,0.444,1.221c-0.057,0.801-0.942,1.241-1.71,1.476
						c-2.814,0.862-5.809,1.13-8.732,0.784c-1.013-0.12-2.103-0.361-2.758-1.143C358.871,391.466,359.124,389.869,359.745,388.655z"
						/>
				</g>
			</g>
		</g>
	</g>
	<g>
		<g>
			<g>
				<path style="fill:#EBEBEB;" d="M132.011,120.157c0.344,0.323,1.201-5.406,10.166-7.839c8.965-2.433,18.96,3.914,21.738,17.03
					c3.023,14.271-2.565,25.521-17.979,31.358s-23.89-3.231-26.096-5.263c-5.864-5.4-13.193-20.173-6.639-29.094
					C120.413,116.533,129.389,117.695,132.011,120.157z"/>
				<g>
					<path style="fill:#E0E0E0;" d="M125.923,122.614c2.085,1.139,4.582,1.664,6.805,0.829c1.498-0.563,2.771-1.593,3.96-2.664
						c1.135-1.022,2.22-2.099,3.253-3.225c0,0-5.228,2.144-6.955,3.279c-1.728,1.135-4.298-0.39-5.826,0.02
						C125.631,121.264,124.657,121.922,125.923,122.614z"/>
				</g>
				<g style="opacity:0.3;">
					<path style="fill:#FFFFFF;" d="M146.685,115.734c4.19-0.631,7.46,0.797,10.241,3.993s5.017,8.972,4.104,15.233
						c-1.558-4.07-6.437-10.169-10.502-11.739c-4.065-1.57-8.79-1.335-12.68,0.63C143.262,119.49,143.917,117.839,146.685,115.734z"
						/>
				</g>
				<g>
					<path style="fill:#E0E0E0;" d="M113.202,126.349c1.108-1.509,2.259-2.757,3.421-3.782c-0.157,0.239-0.328,0.469-0.492,0.684
						c-3.895,5.112-4.723,12.254-2.608,18.322c2.115,6.069,6.964,11.012,12.768,13.772c9.072,4.313,22.738,3.199,30.787-2.812
						c4.649-3.472,7.122-9.631,7.553-14.032c-0.71,9.909-6.75,17.682-18.693,22.205c-15.415,5.837-23.89-3.231-26.096-5.263
						C113.977,150.043,106.648,135.27,113.202,126.349z"/>
				</g>
				<g style="opacity:0.3;">
					<path style="fill:#FFFFFF;" d="M116.284,128.13c0.42-2.836,3.05-5.18,5.915-5.272l0.389,0.398
						c1.147,0.942,2.295,1.885,3.442,2.827c0.264,0.217,0.543,0.456,0.629,0.787c0.156,0.602-0.384,1.145-0.89,1.508
						c-1.854,1.331-3.987,2.27-6.219,2.74c-0.774,0.163-1.634,0.256-2.31-0.156C116.339,130.411,116.129,129.175,116.284,128.13z"/>
				</g>
			</g>
		</g>
	</g>
	<g>
		<path style="fill:#EBEBEB;" d="M239.872,146.227c-7.282-6.161-14.229-12.195-20.696-18.046c-1.119-1.013-2.224-2.02-3.313-3.021
			c-6.005-5.519-11.55-10.863-16.507-15.983c-3.012-2.754-3.221-7.428-0.467-10.44c8.394-7.739,19.823-19.718,33.509-36.644
			c2.754-3.012,7.428-3.221,10.44-0.467c10.377,5.517,25.3,20.963,40.516,37.049c3.012,2.754,3.221,7.428,0.467,10.44
			c-16.286,17.087-26.398,28.295-33.509,36.644C247.558,148.772,242.884,148.981,239.872,146.227z"/>
		<g>
			<path style="fill:#F5F5F5;" d="M240.421,133.037c-0.441-1.157-1.45-1.986-2.427-2.747c-6.732-5.244-14.436-10.576-16.599-18.831
				c-1.03-3.929-6.792-7.396-5.887-11.356c2.28-9.983,14.016-19.89,21.82-26.521c0.939-0.798,1.934-1.59,2.514-2.676
				c0.58-1.087,0.624-2.572-0.254-3.436c-0.878-0.864-4.546-1.221-4.739-0.004c-9.058,9.111-17.449,18.885-25.083,29.218
				c-2.255,3.052-4.557,6.618-3.874,10.351c0.53,2.895,2.748,5.145,4.891,7.163c8.003,7.534,16.487,14.557,25.383,21.012
				c0.931,0.675,2.078,1.378,3.156,0.979C240.482,135.758,240.862,134.194,240.421,133.037z"/>
		</g>
		<g>
			<path style="fill:#F5F5F5;" d="M277.255,101.748c-0.729-1.973-2.482-3.355-4.154-4.631c-2.334-1.782-4.668-3.564-7.002-5.346
				c-0.533-0.407-1.162-0.837-1.816-0.69c-0.654,0.147-0.943,1.25-0.303,1.449l-0.212,0.67c1.456,1.923,3.61,3.175,5.389,4.804
				c1.779,1.63,3.263,3.997,2.697,6.342c-0.478,1.978-2.242,3.323-3.78,4.655c-2.538,2.196-4.735,4.783-6.501,7.636
				c-0.988,1.596,0.821,3.493,2.475,2.607c2.964-1.587,5.583-3.987,8.064-6.317c1.59-1.493,3.204-3.015,4.295-4.904
				C277.498,106.136,278.011,103.794,277.255,101.748z"/>
		</g>
	</g>
	<g>
		<path style="fill:#EBEBEB;" d="M138.786,265.763c-7.72,3.617-15.211,7.009-22.375,10.08c-1.24,0.531-2.47,1.053-3.689,1.564
			c-6.722,2.819-13.13,5.33-19.138,7.446c-3.36,1.419-7.234-0.154-8.653-3.514c-3.155-9.704-8.623-23.454-17.266-40.883
			c-1.419-3.36,0.154-7.234,3.515-8.653c8.351-6.371,26.462-12.731,45.202-19.09c3.36-1.419,7.234,0.154,8.654,3.515
			c7.804,19.6,13.136,31.993,17.266,40.883C143.72,260.469,142.146,264.344,138.786,265.763z"/>
		<g>
			<path style="fill:#F5F5F5;" d="M128.278,260.398c-1.104-0.073-2.154,0.437-3.136,0.947c-6.771,3.512-13.973,7.78-21.485,6.459
				c-3.575-0.629-8.54,2.758-11.419,0.546c-7.258-5.575-10.928-18.802-13.403-27.613c-0.298-1.06-0.57-2.163-1.236-3.04
				c-0.667-0.876-1.856-1.466-2.886-1.075c-1.029,0.391-2.687,3.237-1.771,3.847c4.022,10.755,8.831,21.215,14.377,31.269
				c1.638,2.97,3.675,6.17,6.962,7.006c2.549,0.649,5.204-0.313,7.642-1.301c9.104-3.69,17.972-7.962,26.533-12.78
				c0.896-0.504,1.894-1.173,1.973-2.198C130.511,261.363,129.382,260.471,128.278,260.398z"/>
		</g>
		<g>
			<path style="fill:#F5F5F5;" d="M116.601,218.812c-1.874-0.143-3.65,0.764-5.311,1.646c-2.318,1.231-4.636,2.462-6.953,3.694
				c-0.529,0.281-1.113,0.632-1.237,1.218c-0.125,0.586,0.664,1.232,1.064,0.787l0.465,0.422c2.105-0.466,3.925-1.748,5.912-2.585
				c1.987-0.837,4.464-1.16,6.157,0.175c1.429,1.126,1.863,3.06,2.371,4.807c0.837,2.88,2.119,5.63,3.777,8.128
				c0.928,1.398,3.144,0.636,3.041-1.038c-0.184-2.999-1.156-6.022-2.123-8.905c-0.62-1.848-1.254-3.727-2.381-5.317
				C120.256,220.251,118.545,218.96,116.601,218.812z"/>
		</g>
	</g>
</g>
<g id="Background_simple" style="display:none;">
	<g style="display:inline;">
		<path style="fill:#407BFF;" d="M428.879,158.595c-4.69-17.815-14.676-34.995-30.339-50.231
			c-18.461-17.958-47.22-36.306-84.836-30.887c-69.446,10.005-70.711,58.002-117.405,48.419
			c-52.891-10.855-114.933-3.575-132.186,45.133c-32.769,92.515,158.97,204.352,264.33,172.942
			C394.035,324.415,453.783,253.191,428.879,158.595z"/>
		<path style="opacity:0.9;fill:#FFFFFF;" d="M428.879,158.595c-4.69-17.815-14.676-34.995-30.339-50.231
			c-18.461-17.958-47.22-36.306-84.836-30.887c-69.446,10.005-70.711,58.002-117.405,48.419
			c-52.891-10.855-114.933-3.575-132.186,45.133c-32.769,92.515,158.97,204.352,264.33,172.942
			C394.035,324.415,453.783,253.191,428.879,158.595z"/>
	</g>
</g>
<g id="Shadow">
	<g>
		<g>
			<path style="fill:#F5F5F5;" d="M458.875,448.531c0,3.387-93.517,6.132-208.875,6.132s-208.875-2.746-208.875-6.132
				c0-3.387,93.516-6.132,208.875-6.132S458.875,445.144,458.875,448.531z"/>
		</g>
	</g>
</g>
<g id="Cherry_Drink">
	<g>
		<g>
			<path style="fill:#407BFF;" d="M338.953,186.513l-78.362-0.012l-0.001,0.106l-78.361-0.094c0,0-30.189,162.161-24.964,184.458
				c5.225,22.297,29.028,56.25,46.445,67.905h55.126h3.511h55.126c17.417-11.655,41.22-45.608,46.445-67.905
				C369.142,348.674,338.953,186.513,338.953,186.513z"/>
			<path style="opacity:0.8;fill:#FFFFFF;" d="M338.953,186.513l-78.362-0.012l-0.001,0.106l-78.361-0.094
				c0,0-30.189,162.161-24.964,184.458c5.225,22.297,29.028,56.25,46.445,67.905h55.126h3.511h55.126
				c17.417-11.655,41.22-45.608,46.445-67.905C369.142,348.674,338.953,186.513,338.953,186.513z"/>
			<path style="opacity:0.4;fill:#407BFF;" d="M343.833,271.939c-5.013-31.511-11.156-71.51-13.682-85.411H194.4
				c-2.526,13.906-12.039,53.908-17.052,85.411c-12.511,78.632-11.316,93.989-10.652,96.823
				c4.338,18.514,24.351,48.375,40.121,60.428c37.303,5.7,73.315,6.339,107.547,0c15.77-12.053,35.783-41.915,40.121-60.428
				C355.149,365.927,356.344,350.57,343.833,271.939z"/>
			<path style="fill:#407BFF;" d="M338.953,186.501c0,3.221-35.084,5.832-78.362,5.832s-78.362-2.611-78.362-5.832
				c0-3.221,35.084-5.832,78.362-5.832S338.953,183.281,338.953,186.501z"/>
			<path style="opacity:0.8;fill:#FFFFFF;" d="M338.953,186.501c0,3.221-35.084,5.832-78.362,5.832s-78.362-2.611-78.362-5.832
				c0-3.221,35.084-5.832,78.362-5.832S338.953,183.281,338.953,186.501z"/>
			<g>
				<ellipse style="fill:#407BFF;" cx="260.368" cy="438.229" rx="57.55" ry="4.524"/>
				<ellipse style="opacity:0.8;fill:#FFFFFF;" cx="260.368" cy="438.229" rx="57.55" ry="4.524"/>
			</g>
			<g style="opacity:0.8;">
				<path style="fill:#FFFFFF;" d="M338.953,186.501c-0.039,0.438-0.482,0.664-0.819,0.861c-2.639,1.188-5.576,1.52-8.404,2.009
					c-9.796,1.441-19.694,2.018-29.573,2.548c-36.2,1.344-72.687,1.813-108.705-2.547c-2.83-0.49-5.764-0.822-8.404-2.01
					c-0.337-0.197-0.78-0.423-0.819-0.861c0.05,0.435,0.493,0.646,0.833,0.834c2.659,1.118,5.593,1.376,8.424,1.794
					c36.069,3.494,72.451,3.035,108.638,2.025c9.873-0.393,19.757-0.866,29.573-2.025c2.833-0.419,5.764-0.677,8.424-1.795
					C338.46,187.147,338.903,186.936,338.953,186.501L338.953,186.501z"/>
			</g>
		</g>
		<g>
			<path style="fill:#407BFF;" d="M177.348,271.939c-12.511,78.632-11.316,93.989-10.652,96.823
				c4.338,18.514,24.351,48.375,40.121,60.428c37.303,5.7,73.315,6.339,107.547,0c15.77-12.053,35.783-41.915,40.121-60.428
				c0.664-2.834,1.859-18.191-10.652-96.823"/>
			<g>
				<path style="opacity:0.2;fill:#FFFFFF;" d="M262.109,415.87c-8.188,1.948-16.11,3.725-23.651,5.257
					c-1.305,0.265-2.599,0.523-3.88,0.773c-7.063,1.377-13.761,2.519-19.993,3.36c-3.533,0.698-6.962-1.6-7.66-5.133
					c-1.104-10.013-3.632-24.402-8.492-42.982c-0.698-3.533,1.6-6.962,5.133-7.66c9.35-4.484,28.133-7,47.524-9.389
					c3.533-0.698,6.962,1.6,7.66,5.133c3.614,20.512,6.283,33.561,8.492,42.982C267.94,411.743,265.642,415.172,262.109,415.87z"/>
				<g style="opacity:0.1;">
					<path style="fill:#FFFFFF;" d="M253.027,408.577c-1.053-0.292-2.17-0.009-3.222,0.286c-7.249,2.038-15.068,4.719-22.064,1.935
						c-3.33-1.325-8.809,0.953-11.148-1.762c-5.898-6.845-6.793-20.367-7.419-29.38c-0.075-1.084-0.117-2.206-0.586-3.186
						c-0.469-0.981-1.5-1.789-2.574-1.617c-1.073,0.171-3.246,2.59-2.483,3.364c1.731,11.203,4.282,22.279,7.627,33.11
						c0.988,3.199,2.316,6.701,5.325,8.169c2.334,1.138,5.093,0.741,7.648,0.275c9.54-1.741,18.97-4.092,28.211-7.033
						c0.967-0.308,2.066-0.755,2.348-1.729C254.992,409.958,254.08,408.869,253.027,408.577z"/>
				</g>
				<g style="opacity:0.1;">
					<path style="fill:#FFFFFF;" d="M236.949,371.142c2.128-0.028,4.145-0.903,6.233-1.313c2.089-0.411,4.547-0.226,5.917,1.404
						c1.155,1.374,1.187,3.332,1.328,5.122c0.232,2.952,0.919,5.867,2.021,8.615c0.617,1.537,2.911,1.246,3.148-0.394
						c0.424-2.936,0.09-6.053-0.267-9.034c-0.228-1.911-0.465-3.854-1.235-5.618c-0.77-1.764-2.165-3.355-4.015-3.888
						c-1.783-0.514-3.682,0.007-5.464,0.527c-2.487,0.725-4.975,1.451-7.462,2.176c-0.568,0.165-1.203,0.388-1.441,0.929
						c-0.238,0.541,0.395,1.324,0.871,0.974"/>
				</g>
			</g>
			<g>
				<path style="fill:#407BFF;" d="M229.733,306.182c-0.536,0.311,0.065-7.276-10.69-13.048
					c-10.755-5.773-25.43-0.611-32.875,15.354c-8.1,17.371-4.283,33.428,13.718,45.47c18.001,12.042,31.538,2.946,34.965,1
					c9.107-5.174,22.868-21.912,17.124-35.274C245.654,304.982,233.819,303.807,229.733,306.182z"/>
				<path style="opacity:0.2;fill:#FFFFFF;" d="M229.733,306.182c-0.536,0.311,0.065-7.276-10.69-13.048
					c-10.755-5.773-25.43-0.611-32.875,15.354c-8.1,17.371-4.283,33.428,13.718,45.47c18.001,12.042,31.538,2.946,34.965,1
					c9.107-5.174,22.868-21.912,17.124-35.274C245.654,304.982,233.819,303.807,229.733,306.182z"/>
				<g style="opacity:0.2;">
					<path d="M236.798,311.131c-3.007,0.839-6.358,0.772-8.957-0.957c-1.751-1.165-3.075-2.86-4.279-4.584
						c-1.149-1.645-2.22-3.345-3.208-5.092c0,0,6.056,4.295,7.931,6.26c1.875,1.965,5.617,0.775,7.452,1.753
						C237.572,309.49,238.624,310.622,236.798,311.131z"/>
				</g>
				<g style="opacity:0.2;">
					<path style="fill:#FFFFFF;" d="M212.261,296.169c-5.176-2.05-9.785-1.191-14.293,2.076c-4.508,3.266-9.082,9.998-9.769,18.283
						c3.201-4.748,11.255-11.108,16.924-11.913c5.669-0.805,11.648,0.897,16.044,4.566
						C215.529,301.992,215.181,299.685,212.261,296.169z"/>
				</g>
				<g style="opacity:0.2;">
					<path d="M251.975,319.684c-0.972-2.26-2.074-4.199-3.258-5.856c0.13,0.352,0.28,0.698,0.426,1.021
						c3.471,7.698,2.413,17.086-2.093,24.227c-4.506,7.141-12.179,12.032-20.426,13.843c-12.892,2.831-27.713,0.592-39.4-13.187
						c-4.932-5.814-4.976-17.336-4.683-19.74c-2.028,12.895,3.398,24.636,17.346,33.966c18.001,12.042,31.538,2.946,34.965,1
						C243.958,349.784,257.72,333.046,251.975,319.684z"/>
				</g>
				<g style="opacity:0.2;">
					<path style="fill:#FFFFFF;" d="M247.501,321.05c0.303-3.755-2.368-7.535-6.009-8.502l-0.617,0.394
						c-1.748,0.866-3.496,1.732-5.244,2.599c-0.402,0.199-0.83,0.423-1.038,0.821c-0.379,0.725,0.153,1.579,0.692,2.194
						c1.978,2.253,4.43,4.088,7.149,5.351c0.943,0.438,2.016,0.813,3.003,0.485C246.755,323.953,247.389,322.434,247.501,321.05z"/>
				</g>
			</g>
			<g>
				<path style="opacity:0.1;" d="M257.155,297.78c0,1.501-1.217,2.718-2.718,2.718s-2.718-1.217-2.718-2.718
					c0-1.501,1.217-2.718,2.718-2.718S257.155,296.279,257.155,297.78z"/>
				<path style="opacity:0.1;" d="M260.545,302.904c0,0.88-0.714,1.594-1.594,1.594c-0.88,0-1.594-0.714-1.594-1.594
					c0-0.88,0.714-1.594,1.594-1.594C259.831,301.31,260.545,302.024,260.545,302.904z"/>
			</g>
			<g>
				<path style="opacity:0.1;" d="M281.669,421.034c-0.836-1.654-0.173-3.673,1.481-4.509c1.654-0.836,3.673-0.173,4.509,1.481
					c0.836,1.654,0.173,3.673-1.481,4.509C284.524,423.351,282.505,422.688,281.669,421.034z"/>
				<path style="opacity:0.1;" d="M275.08,417.275c-0.49-0.97-0.101-2.154,0.869-2.644c0.97-0.49,2.154-0.101,2.644,0.869
					c0.49,0.97,0.101,2.154-0.869,2.644C276.754,418.634,275.57,418.245,275.08,417.275z"/>
				<path style="opacity:0.1;" d="M276.432,423.754c-0.321-0.636-0.066-1.411,0.569-1.733c0.636-0.321,1.411-0.066,1.733,0.569
					c0.321,0.636,0.066,1.411-0.569,1.733C277.529,424.645,276.754,424.39,276.432,423.754z"/>
			</g>
			<g>
				<path style="opacity:0.1;" d="M340.861,358.828c-0.836-1.654-0.173-3.673,1.481-4.509s3.673-0.173,4.509,1.481
					c0.836,1.654,0.173,3.673-1.481,4.509C343.716,361.145,341.697,360.482,340.861,358.828z"/>
				<path style="opacity:0.1;" d="M334.272,355.069c-0.49-0.97-0.101-2.154,0.869-2.644s2.154-0.101,2.644,0.869
					c0.49,0.97,0.101,2.154-0.869,2.644C335.946,356.428,334.762,356.039,334.272,355.069z"/>
				<path style="opacity:0.1;" d="M343.995,345.014c-0.321-0.636-0.066-1.411,0.569-1.733c0.636-0.321,1.411-0.066,1.733,0.569
					c0.321,0.636,0.066,1.411-0.569,1.733C345.092,345.904,344.316,345.65,343.995,345.014z"/>
			</g>
			<g>
				<path style="opacity:0.1;" d="M327.624,298.946c-0.836-1.654-0.173-3.673,1.481-4.509c1.654-0.836,3.673-0.173,4.509,1.481
					c0.836,1.654,0.173,3.673-1.481,4.509C330.479,301.263,328.46,300.6,327.624,298.946z"/>
				<path style="opacity:0.1;" d="M321.035,295.188c-0.49-0.97-0.101-2.154,0.869-2.644c0.97-0.49,2.154-0.101,2.644,0.869
					s0.101,2.154-0.869,2.644S321.525,296.158,321.035,295.188z"/>
			</g>
			<g>
				<path style="fill:#407BFF;" d="M290.405,359.832c0.108,0.61-6.811-2.56-15.926,5.557c-9.115,8.117-9.309,23.673,3.128,36.149
					c13.532,13.574,29.923,15.505,47.416,2.735c17.492-12.77,13.6-28.608,12.949-32.494c-1.731-10.33-12.724-29.003-27.246-28.198
					C294.746,344.467,289.578,355.179,290.405,359.832z"/>
				<path style="opacity:0.1;" d="M290.405,359.832c0.108,0.61-6.811-2.56-15.926,5.557c-9.115,8.117-9.309,23.673,3.128,36.149
					c13.532,13.574,29.923,15.505,47.416,2.735c17.492-12.77,13.6-28.608,12.949-32.494c-1.731-10.33-12.724-29.003-27.246-28.198
					C294.746,344.467,289.578,355.179,290.405,359.832z"/>
				<g style="opacity:0.2;">
					<path d="M297.48,354.897c-0.245,3.112-1.459,6.237-3.975,8.083c-1.695,1.244-3.742,1.905-5.775,2.444
						c-1.94,0.514-3.904,0.936-5.884,1.263c0,0,6.114-4.212,8.603-5.298c2.489-1.086,2.657-5.009,4.206-6.396
						C296.204,353.607,297.628,353.007,297.48,354.897z"/>
				</g>
				<g style="opacity:0.2;">
					<path style="fill:#FFFFFF;" d="M275,372.802c-3.703,4.157-4.479,8.781-2.96,14.136c1.519,5.356,6.27,11.964,13.815,15.454
						c-3.359-4.637-6.567-14.385-5.375-19.986c1.191-5.6,4.843-10.632,9.799-13.5C281.591,371.733,279.305,371.268,275,372.802z"/>
				</g>
				<g style="opacity:0.2;">
					<path d="M310.725,343.581c-2.456,0.136-4.656,0.505-6.619,1.048c0.376-0.001,0.752-0.024,1.105-0.05
						c8.422-0.616,16.875,3.602,22.034,10.287c5.159,6.685,7.117,15.571,5.985,23.939c-1.769,13.08-8.963,26.23-25.918,32.474
						c-7.154,2.634-17.99-1.282-20.147-2.382c11.413,6.334,24.304,5.271,37.858-4.623c17.492-12.77,13.6-28.608,12.948-32.494
						C336.24,361.449,325.247,342.776,310.725,343.581z"/>
				</g>
				<g style="opacity:0.2;">
					<path style="fill:#FFFFFF;" d="M310.471,348.252c-3.422-1.574-7.89-0.364-10.049,2.723l0.159,0.714
						c0.213,1.939,0.426,3.878,0.639,5.818c0.049,0.446,0.112,0.925,0.414,1.257c0.55,0.604,1.536,0.399,2.298,0.103
						c2.795-1.084,5.361-2.756,7.481-4.876c0.735-0.735,1.456-1.614,1.487-2.653C312.942,349.95,311.732,348.832,310.471,348.252z"
						/>
				</g>
			</g>
			<g>
				<path style="opacity:0.2;fill:#FFFFFF;" d="M302.395,372.471c-8.161-5.397-15.965-10.704-23.258-15.884
					c-1.262-0.896-2.509-1.789-3.739-2.677c-6.783-4.897-13.075-9.671-18.742-14.288c-3.4-2.442-4.177-7.178-1.735-10.578
					c7.616-8.896,17.812-22.477,29.71-41.369c2.442-3.4,7.178-4.177,10.578-1.735c11.235,4.367,28.3,18.3,45.739,32.849
					c3.4,2.442,4.177,7.178,1.735,10.578c-14.527,19.369-23.475,32.006-29.71,41.369
					C310.53,374.137,305.795,374.913,302.395,372.471z"/>
				<g style="opacity:0.1;">
					<path style="fill:#FFFFFF;" d="M301.362,358.971c-0.589-1.125-1.717-1.848-2.803-2.506c-7.49-4.53-15.98-9.03-19.18-17.178
						c-1.523-3.878-7.81-6.714-7.367-10.857c1.118-10.444,11.877-21.951,19.025-29.647c0.86-0.926,1.778-1.852,2.238-3.029
						c0.46-1.177,0.325-2.695-0.674-3.469c-0.999-0.774-4.778-0.695-4.827,0.568c-8.127,10.373-15.494,21.341-22.024,32.788
						c-1.929,3.381-3.843,7.291-2.697,11.01c0.889,2.885,3.42,4.909,5.846,6.706c9.061,6.709,18.549,12.838,28.39,18.34
						c1.03,0.576,2.282,1.153,3.333,0.617C301.753,361.735,301.952,360.095,301.362,358.971z"/>
				</g>
				<g style="opacity:0.1;">
					<path style="fill:#FFFFFF;" d="M320.337,315.576c1.716,1.783,4.06,2.798,6.068,4.243c2.009,1.445,3.806,3.678,3.513,6.135
						c-0.248,2.072-1.883,3.655-3.289,5.197c-2.32,2.543-4.246,5.443-5.701,8.563c-0.814,1.745,1.257,3.459,2.836,2.357
						c2.827-1.974,5.206-4.735,7.451-7.407c1.44-1.713,2.899-3.458,3.783-5.513s1.125-4.503,0.107-6.496
						c-0.981-1.921-2.933-3.118-4.79-4.216c-2.592-1.533-5.185-3.067-7.777-4.6c-0.591-0.35-1.285-0.712-1.933-0.484
						c-0.648,0.229-0.809,1.387-0.134,1.513"/>
				</g>
			</g>
		</g>
		<g>
			<g>
				
					<rect x="281.214" y="88.207" transform="matrix(0.9767 0.2147 -0.2147 0.9767 52.8761 -56.7002)" style="fill:#407BFF;" width="12.396" height="253.631"/>
			</g>
			<polygon style="opacity:0.7;fill:#FFFFFF;" points="294.961,151.674 301.983,177.665 298.605,192.946 291.041,169.527 			"/>
			<polygon style="opacity:0.7;fill:#FFFFFF;" points="284.091,200.993 291.12,227.015 287.745,242.371 280.195,218.847 			"/>
			<polygon style="opacity:0.7;fill:#FFFFFF;" points="272.626,253.055 279.656,279.077 276.28,294.432 268.731,270.908 			"/>
			<polygon style="opacity:0.7;fill:#FFFFFF;" points="260.805,307.231 267.835,333.253 266.234,340.211 261.425,339.153 
				256.91,325.084 			"/>
			<polygon style="opacity:0.7;fill:#FFFFFF;" points="306.331,100.101 313.308,126.092 309.951,141.373 302.435,117.954 			"/>
			<g style="opacity:0.2;">
				<polygon points="266.283,340.221 254.128,337.549 286.016,192.507 298.801,192.063 				"/>
			</g>
		</g>
		<g>
			<ellipse style="fill:#407BFF;" cx="260.481" cy="271.702" rx="83.149" ry="3.478"/>
			<ellipse style="opacity:0.2;fill:#FFFFFF;" cx="260.481" cy="271.702" rx="83.149" ry="3.478"/>
		</g>
		<path style="opacity:0.3;fill:#FFFFFF;" d="M199.672,194.701c-0.76-0.104-1.465,0.409-1.594,1.165
			c-2.138,12.591-18.532,109.393-21.226,133.34c-2.713,24.108,9.788,71.668,31.042,90.718c1.101,0.987,2.792-0.178,2.274-1.563
			c-5.486-14.655-21.144-59.319-18.639-85.411c2.816-29.335,20.804-121.858,23.306-134.656c0.157-0.802-0.393-1.567-1.203-1.678
			L199.672,194.701z"/>
	</g>
</g>
<g id="Cherries">
	<g>
		<g>
			<path style="fill:#407BFF;" d="M161.944,397.071c-0.181,0.574-4.715-5.267-16.216-2.373
				c-11.501,2.894-18.66,16.206-13.557,32.542c5.553,17.775,18.804,26.807,39.611,23.672s24.575-18.527,25.761-22.167
				c3.153-9.676,2.079-30.701-10.791-36.536C172.591,385.789,163.324,392.692,161.944,397.071z"/>
			<path style="opacity:0.5;fill:#FFFFFF;" d="M161.944,397.071c-0.181,0.574-4.715-5.267-16.216-2.373
				c-11.501,2.894-18.66,16.206-13.557,32.542c5.553,17.775,18.804,26.807,39.611,23.672s24.575-18.527,25.761-22.167
				c3.153-9.676,2.079-30.701-10.791-36.536C172.591,385.789,163.324,392.692,161.944,397.071z"/>
			<g style="opacity:0.3;">
				<path d="M170.257,396.002c-1.61,2.57-4.06,4.716-7.058,5.175c-2.02,0.309-4.08-0.041-6.073-0.491
					c-1.902-0.429-3.783-0.949-5.636-1.557c0,0,7.16-0.88,9.792-0.696c2.632,0.184,4.54-3.12,6.499-3.618
					C169.738,394.317,171.234,394.44,170.257,396.002z"/>
			</g>
			<g style="opacity:0.3;">
				<path style="fill:#FFFFFF;" d="M142.845,401.318c-5.058,1.916-7.806,5.549-8.905,10.845c-1.099,5.296,0.022,13.123,4.952,19.522
					c-0.809-5.504,0.811-15.343,4.355-19.631c3.544-4.288,8.951-6.98,14.509-7.222C149.003,403.36,147.243,401.931,142.845,401.318z
					"/>
			</g>
			<g style="opacity:0.3;">
				<path d="M186.752,392.209c-2.177-0.987-4.237-1.658-6.172-2.073c0.324,0.168,0.658,0.317,0.974,0.454
					c7.531,3.256,12.916,10.689,14.354,18.766c1.438,8.077-0.87,16.611-5.607,23.309c-7.404,10.471-20.822,16.345-33.538,14.683
					c-7.345-0.96-14.267-4.414-19.667-9.474c6.983,10.587,18.565,15.466,34.686,13.037c20.807-3.135,24.575-18.527,25.761-22.167
					C200.696,419.069,199.623,398.044,186.752,392.209z"/>
			</g>
			<g style="opacity:0.3;">
				<path style="fill:#FFFFFF;" d="M184.434,396.118c-2.24-2.895-6.632-3.86-9.88-2.172l-0.185,0.687
					c-0.688,1.766-1.376,3.532-2.065,5.298c-0.158,0.407-0.319,0.847-0.208,1.269c0.202,0.768,1.143,1.034,1.933,1.122
					c2.895,0.323,5.857,0.036,8.636-0.837c0.964-0.302,1.98-0.736,2.473-1.617C185.799,398.691,185.259,397.185,184.434,396.118z"/>
			</g>
		</g>
		<g>
			<path style="fill:#407BFF;" d="M101.536,394.809c-0.471,0.375-0.972-7.002-12.129-11.021
				c-11.157-4.019-24.529,3.028-29.415,19.431c-5.316,17.848,0.636,32.738,19.649,41.753c19.013,9.015,30.731-1.652,33.748-4.01
				c8.017-6.267,18.865-24.311,11.444-36.337C116.668,391.392,105.126,391.946,101.536,394.809z"/>
			<path style="opacity:0.5;fill:#FFFFFF;" d="M101.536,394.809c-0.471,0.375-0.972-7.002-12.129-11.021
				c-11.157-4.019-24.529,3.028-29.415,19.431c-5.316,17.848,0.636,32.738,19.649,41.753c19.013,9.015,30.731-1.652,33.748-4.01
				c8.017-6.267,18.865-24.311,11.444-36.337C116.668,391.392,105.126,391.946,101.536,394.809z"/>
			<g style="opacity:0.3;">
				<path d="M109.03,398.562c-2.771,1.234-6.001,1.646-8.745,0.354c-1.849-0.871-3.362-2.312-4.765-3.798
					c-1.339-1.418-2.609-2.899-3.807-4.438c0,0,6.431,3.267,8.513,4.889c2.081,1.622,5.509-0.054,7.412,0.626
					C109.54,396.875,110.713,397.812,109.03,398.562z"/>
			</g>
			<g style="opacity:0.3;">
				<path style="fill:#FFFFFF;" d="M83.32,387.669c-5.266-1.234-9.574,0.246-13.443,4.027c-3.868,3.78-7.308,10.9-6.79,18.961
					c2.401-5.018,9.238-12.276,14.572-13.856s11.323-0.794,16.069,2.108C87.288,392.801,86.626,390.634,83.32,387.669z"/>
			</g>
			<g style="opacity:0.3;">
				<path d="M124.833,404.624c-1.255-2.034-2.59-3.741-3.964-5.165c0.175,0.32,0.369,0.631,0.555,0.921
					c4.43,6.905,4.748,16.078,1.432,23.583c-3.316,7.504-9.995,13.296-17.664,16.209c-11.988,4.554-26.552,4.508-39.743-7.073
					c-5.566-4.887-7.247-15.955-7.307-18.307c-0.116,12.682,6.768,23.195,21.5,30.18c19.013,9.015,30.731-1.652,33.748-4.01
					C121.407,434.694,132.254,416.65,124.833,404.624z"/>
			</g>
			<g style="opacity:0.3;">
				<path style="fill:#FFFFFF;" d="M120.727,406.573c-0.243-3.652-3.347-6.905-6.984-7.318l-0.536,0.467
					c-1.557,1.081-3.114,2.162-4.671,3.243c-0.358,0.249-0.738,0.525-0.881,0.937c-0.261,0.75,0.371,1.496,0.977,2.01
					c2.222,1.884,4.839,3.299,7.632,4.127c0.968,0.287,2.053,0.494,2.955,0.039C120.423,409.47,120.817,407.919,120.727,406.573z"/>
			</g>
		</g>
		<path style="fill:#263238;" d="M160.156,401.217c0,0-4.943-5.297-9.126-14.221c-4.183-8.924-10.14-26.268-11.876-39.158
			c-1.638-12.165-0.646-29.368,0.121-36.281c0.767-6.913,2.195-14.997,2.195-14.997s-20.398,20.915-27.775,44.432
			c-6.429,20.495-9.891,36.409-10.144,45.989l0.008,12.718c-1.714-0.123-3.33-0.657-4.828-1.689c0,0,0.867-17.601,4.822-34.409
			c3.955-16.808,8.989-33.059,15.593-44.056c0,0,12.934-18.732,16.748-23.591c3.814-4.858,9.493-14.048,9.843-14.1
			c0.35-0.052,7.759,3.266,7.094,3.603c-0.666,0.337-6.353,7.858-8.145,16.712s-3.502,27.858-3,37.78
			c0.459,9.087,2.393,19.995,9.749,37.684c7.356,17.688,16.176,21.457,16.176,21.457S164.64,402.096,160.156,401.217z"/>
		<path style="fill:#263238;" d="M143.489,299.72c-0.164,0.501,3.983,15.634,8.352,21.787l1.544-1.66c0,0-3.702-5.536-5.743-15.373
			c-2.041-9.837-1.084-11.291-1.623-10.973C145.479,293.82,143.489,299.72,143.489,299.72z"/>
		<path style="fill:#263238;" d="M152.345,317.736c0,0-8.819,35.539,12.828,52.855c21.647,17.315,47.278,25.759,59.635,24.575
			c0,0-0.833-0.849-4.966-4.97c-3.6-3.59-22.496-37.103-31.049-48.625C179.578,329.156,164.104,316.593,152.345,317.736z"/>
		<g style="opacity:0.3;">
			<path style="fill:#FFFFFF;" d="M152.787,319.936c7.691,15.862,17.607,30.677,29.39,43.787
				c8.78,9.897,18.807,18.666,30.378,25.158c0,0,11.237,7.03,11.237,7.03l-11.497-6.595
				C186.157,375.435,164.51,346.747,152.787,319.936L152.787,319.936z"/>
		</g>
		<path style="opacity:0.3;" d="M147.085,294.779c2.333-5.3,5.278-9.086,5.746-9.323c0.666-0.337-6.743-3.655-7.094-3.603
			c-0.25,0.037-3.218,4.734-6.283,9.186L147.085,294.779z"/>
		<path style="opacity:0.3;" d="M146.365,296.513c-0.236,0.27-1.679,5.501-1.947,7.055l0.559,1.874l1.894-5.081L146.365,296.513z"/>
		<g style="opacity:0.3;">
			<path style="fill:#FFFFFF;" d="M163.453,339.694c-2.078,8.216-0.937,16.852-0.505,25.215c0.052,1.213,0.144,2.423,0.17,3.64
				c-0.251-1.191-0.44-2.39-0.657-3.586C161.293,356.675,160.12,347.629,163.453,339.694L163.453,339.694z"/>
		</g>
		<g style="opacity:0.3;">
			<path style="fill:#FFFFFF;" d="M173.572,354.344c9.206,0.333,18.385,2.225,27.031,5.386
				C192.946,358.162,181.167,355.755,173.572,354.344L173.572,354.344z"/>
		</g>
		<g style="opacity:0.3;">
			<path style="fill:#FFFFFF;" d="M186.606,369.638c0.486,5.548,2.058,10.66,3.369,16.049
				C187.372,380.852,185.694,375.149,186.606,369.638L186.606,369.638z"/>
		</g>
		<g style="opacity:0.3;">
			<path style="fill:#FFFFFF;" d="M157.919,329.102c7.792-0.505,15.572,1.291,23.023,3.424
				C173.314,331.762,165.533,329.957,157.919,329.102L157.919,329.102z"/>
		</g>
	</g>
	<g>
		<g>
			<g>
				<path style="fill:#407BFF;" d="M394.226,212.022c0.471,0.472,1.945-7.587,14.73-10.617c12.785-3.03,26.625,6.399,29.953,25.067
					c3.622,20.312-4.791,35.961-26.849,43.509c-22.058,7.548-33.625-5.659-36.651-8.632c-8.043-7.902-17.729-29.121-8.057-41.433
					C377.995,206.37,390.632,208.422,394.226,212.022z"/>
				<path style="opacity:0.5;fill:#FFFFFF;" d="M394.226,212.022c0.471,0.472,1.945-7.587,14.73-10.617
					c12.785-3.03,26.625,6.399,29.953,25.067c3.622,20.312-4.791,35.961-26.849,43.509c-22.058,7.548-33.625-5.659-36.651-8.632
					c-8.043-7.902-17.729-29.121-8.057-41.433C377.995,206.37,390.632,208.422,394.226,212.022z"/>
				<g style="opacity:0.3;">
					<path d="M385.507,215.218c2.896,1.705,6.401,2.562,9.583,1.482c2.144-0.728,3.99-2.125,5.72-3.585
						c1.651-1.393,3.235-2.866,4.746-4.41c0,0-7.488,2.793-9.982,4.318c-2.494,1.525-6.058-0.748-8.238-0.237
						C385.156,213.296,383.748,214.182,385.507,215.218z"/>
				</g>
				<g style="opacity:0.3;">
					<path style="fill:#FFFFFF;" d="M415.172,206.439c5.952-0.701,10.509,1.468,14.295,6.113c3.786,4.645,6.683,12.913,5.105,21.722
						c-2.017-5.824-8.635-14.669-14.31-17.075c-5.675-2.406-12.366-2.289-17.954,0.312
						C410.162,211.593,411.162,209.29,415.172,206.439z"/>
				</g>
				<g style="opacity:0.3;">
					<path d="M367.352,219.916c1.636-2.082,3.319-3.795,5.009-5.191c-0.233,0.331-0.485,0.648-0.726,0.944
						c-5.74,7.048-7.237,17.107-4.524,25.782c2.713,8.676,9.341,15.886,17.421,20.052c12.628,6.511,31.999,5.561,43.651-2.569
						c6.731-4.696,10.507-13.289,11.318-19.491c-1.457,13.976-10.35,24.689-27.441,30.537c-22.058,7.548-33.625-5.659-36.651-8.632
						C367.366,253.447,357.68,232.228,367.352,219.916z"/>
				</g>
				<g style="opacity:0.3;">
					<path style="fill:#FFFFFF;" d="M371.629,222.575c0.723-3.99,4.548-7.183,8.603-7.183l0.532,0.581
						c1.579,1.385,3.158,2.769,4.737,4.154c0.363,0.319,0.747,0.67,0.853,1.141c0.193,0.859-0.596,1.601-1.327,2.091
						c-2.681,1.796-5.74,3.027-8.917,3.59c-1.102,0.195-2.322,0.288-3.258-0.326C371.602,225.802,371.362,224.046,371.629,222.575z"
						/>
				</g>
			</g>
			<path style="fill:#263238;" d="M343.091,142.531c-5.774-3.399-11.429-5.864-11.661-5.673c-0.231,0.191-2.356,6.729-1.766,6.502
				c0.59-0.227,8.544,0.473,15.123,4.376c6.579,3.903,19.488,13.623,25.435,19.574c5.447,5.449,11.201,12.86,18.133,27.527
				c6.932,14.667,4.29,22.348,4.29,22.348s3.611,0.253,5.556-2.067c0,0-0.505-7.52-3.734-15.216
				c-3.23-7.696-10.741-21.289-17.852-29.7c-6.711-7.938-18.08-17.086-22.858-20.531
				C348.98,146.226,343.091,142.531,343.091,142.531"/>
		</g>
		<path style="fill:#263238;" d="M348.242,147.309c0,0,19.907-22.809,41.893-16.341c21.987,6.468,39.849,19.838,44.9,28.773
			c0,0-0.97-0.162-5.72-1.011c-4.137-0.739-35.799,2.329-47.658,1.99C368.88,160.355,353.037,155.82,348.242,147.309z"/>
		<g style="opacity:0.3;">
			<path style="fill:#FFFFFF;" d="M352.002,146.223c23.535-4.95,58.616-3.928,78.997,9.9c1.419,1.125,2.764,2.336,4.036,3.617
				c-1.357-1.188-2.759-2.326-4.215-3.379C409.654,143.464,376.05,142.546,352.002,146.223L352.002,146.223z"/>
		</g>
		<g style="opacity:0.3;">
			<path style="fill:#FFFFFF;" d="M385.164,144.011c4.866,4.659,11.72,11.092,16.453,15.767
				C395.298,155.512,389.662,150.173,385.164,144.011L385.164,144.011z"/>
		</g>
		<g style="opacity:0.3;">
			<path style="fill:#FFFFFF;" d="M401.702,145.6c2.804-3.115,7.144-4.508,11.236-4.701
				C409.095,142.48,405.362,143.601,401.702,145.6L401.702,145.6z"/>
		</g>
		<g style="opacity:0.3;">
			<path style="fill:#FFFFFF;" d="M364.465,144.577c2.888-2.876,5.874-5.631,9.025-8.214c3.208-2.444,6.363-5.338,10.312-6.496
				c-3.151,1.528-6.873,5.128-9.68,7.269C370.97,139.682,367.857,142.297,364.465,144.577L364.465,144.577z"/>
		</g>
	</g>
</g>
</svg>
