<?xml version="1.0" encoding="utf-8"?>
<!-- Generator: Adobe Illustrator 27.5.0, SVG Export Plug-In . SVG Version: 6.00 Build 0)  -->
<svg version="1.1" xmlns="http://www.w3.org/2000/svg" xmlns:xlink="http://www.w3.org/1999/xlink" x="0px" y="0px"
	 viewBox="0 0 500 500" style="enable-background:new 0 0 500 500;" xml:space="preserve">
<g id="Background_complete">
	<g>
		<g>
			<path style="fill:#EBEBEB;" d="M60.56,455.4c4.637-29.992,26.776-56.618,55.417-66.652c-0.306,16.472-7.344,33.936-18.078,43.886
				C87.166,442.583,73.754,449.064,60.56,455.4z"/>
		</g>
		<g>
			<path style="fill:#EBEBEB;" d="M121.808,398.647c3.413-11.758,10.793-22.326,20.656-29.579c4.135,10.504,1.13,25.481-2.615,36.13
				c-3.745,10.649-10.022,20.2-16.433,29.491C118.97,423.281,118.395,410.404,121.808,398.647z"/>
		</g>
		<path style="fill:#E0E0E0;" d="M84.252,428.704c-0.095,0-0.192-0.027-0.277-0.084c-0.23-0.153-0.292-0.464-0.139-0.693
			c21.201-31.768,47.587-59.301,78.425-81.834c0.223-0.164,0.536-0.114,0.699,0.108c0.163,0.223,0.114,0.536-0.109,0.698
			c-30.742,22.465-57.047,49.912-78.183,81.582C84.571,428.626,84.413,428.704,84.252,428.704z"/>
		<path style="fill:#E0E0E0;" d="M125.794,418.818c-0.038,0-0.076-0.004-0.114-0.013c-0.269-0.064-0.436-0.332-0.373-0.602
			c5.096-21.763,11.948-41.081,20.948-59.061c0.124-0.246,0.424-0.348,0.671-0.224c0.247,0.124,0.347,0.424,0.224,0.671
			c-8.964,17.909-15.79,37.156-20.869,58.842C126.227,418.663,126.021,418.818,125.794,418.818z"/>
		<g>
			<path style="fill:#EBEBEB;" d="M117.856,369.543c10.12-1.342,19.756-6.104,26.97-13.327c-8.142-4.723-20.864-4.12-30.112-2.366
				c-9.248,1.754-17.907,5.734-26.369,9.856C97.193,368.799,107.736,370.885,117.856,369.543z"/>
		</g>
		<g>
			<path style="fill:#EBEBEB;" d="M91.382,394.331c9.351-1.24,18.254-5.639,24.919-12.313c-7.522-4.364-19.278-3.807-27.822-2.186
				c-8.545,1.621-16.546,5.298-24.364,9.107C72.289,393.645,82.031,395.571,91.382,394.331z"/>
		</g>
		<path style="fill:#E0E0E0;" d="M102.138,364.295c-0.258,0-0.477-0.198-0.498-0.46c-0.022-0.275,0.184-0.517,0.459-0.538
			c19.027-1.515,34.437-4.435,49.968-9.468c0.266-0.084,0.545,0.06,0.63,0.321c0.085,0.263-0.059,0.545-0.321,0.63
			c-15.608,5.059-31.089,7.992-50.197,9.513C102.165,364.294,102.151,364.295,102.138,364.295z"/>
		<g>
			<path style="fill:#E0E0E0;" d="M90.509,387.352c-0.241,0-0.453-0.175-0.493-0.42c-0.044-0.272,0.141-0.529,0.414-0.573
				c10.872-1.763,21.816-3.94,32.528-6.472c0.27-0.068,0.538,0.103,0.602,0.371c0.063,0.269-0.103,0.538-0.372,0.602
				c-10.736,2.537-21.704,4.72-32.599,6.485C90.563,387.35,90.536,387.352,90.509,387.352z"/>
		</g>
	</g>
	<g>
		<g>
			<path style="fill:#EBEBEB;" d="M475.003,50.794c-29.992,4.637-56.618,26.776-66.651,55.417
				c16.472-0.306,33.936-7.344,43.886-18.078C462.186,77.399,468.668,63.987,475.003,50.794z"/>
		</g>
		<g>
			<path style="fill:#EBEBEB;" d="M418.25,112.042c-11.758,3.413-22.326,10.793-29.579,20.656c10.504,4.135,25.481,1.13,36.13-2.615
				c10.649-3.745,20.2-10.022,29.491-16.433C442.885,109.203,430.007,108.629,418.25,112.042z"/>
		</g>
		<path style="fill:#E0E0E0;" d="M366.1,153.289c-0.102,0-0.206-0.031-0.295-0.096c-0.223-0.163-0.271-0.476-0.108-0.699
			c22.533-30.837,50.065-57.223,81.833-78.424c0.227-0.152,0.539-0.092,0.693,0.139c0.153,0.229,0.091,0.54-0.139,0.693
			c-31.669,21.135-59.116,47.44-81.581,78.182C366.405,153.218,366.253,153.289,366.1,153.289z"/>
		<path style="fill:#E0E0E0;" d="M378.97,137.436c-0.183,0-0.359-0.101-0.447-0.276c-0.123-0.247-0.023-0.547,0.224-0.671
			c17.978-8.999,37.298-15.851,59.06-20.948c0.279-0.06,0.538,0.104,0.602,0.373c0.063,0.269-0.105,0.538-0.373,0.601
			c-21.687,5.079-40.934,11.905-58.842,20.869C379.122,137.419,379.045,137.436,378.97,137.436z"/>
		<g>
			<path style="fill:#EBEBEB;" d="M389.146,108.09c-1.342,10.12-6.103,19.756-13.327,26.97c-4.723-8.142-4.12-20.864-2.366-30.112
				c1.754-9.248,5.734-17.907,9.856-26.369C388.402,87.426,390.488,97.97,389.146,108.09z"/>
		</g>
		<g>
			<path style="fill:#EBEBEB;" d="M413.935,81.615c-1.24,9.351-5.639,18.254-12.313,24.919c-4.364-7.522-3.807-19.278-2.186-27.822
				c1.621-8.545,5.298-16.545,9.107-24.364C413.248,62.523,415.175,72.265,413.935,81.615z"/>
		</g>
		<path style="fill:#E0E0E0;" d="M373.908,142.955c-0.051,0-0.103-0.008-0.154-0.024c-0.263-0.085-0.406-0.367-0.321-0.63
			c5.034-15.534,7.953-30.945,9.468-49.968c0.022-0.275,0.266-0.479,0.538-0.459c0.274,0.022,0.48,0.263,0.458,0.538
			c-1.519,19.105-4.454,34.586-9.513,50.198C374.315,142.821,374.119,142.955,373.908,142.955z"/>
		<g>
			<path style="fill:#E0E0E0;" d="M399.976,113.807c-0.038,0-0.076-0.004-0.115-0.013c-0.269-0.064-0.435-0.333-0.371-0.602
				c2.532-10.713,4.71-21.658,6.472-32.528c0.044-0.273,0.306-0.455,0.573-0.414c0.272,0.044,0.458,0.301,0.413,0.574
				c-1.765,10.894-3.946,21.861-6.485,32.599C400.408,113.652,400.202,113.807,399.976,113.807z"/>
		</g>
	</g>
	<g>
		<g>
			<path style="fill:#F5F5F5;" d="M265.056,474.051l-10.208-156.824l0.345-0.025l11.592,156.728
				C266.209,473.973,265.633,474.013,265.056,474.051z M233.381,473.942l-1.507-0.117l12.533-156.655l0.567,0.043L233.381,473.942z
				 M298.69,469.243l-34.288-153.37l0.744-0.167l34.83,153.248L298.69,469.243z M200.213,468.996l-1.479-0.341l35.711-153.045
				l0.547,0.126L200.213,468.996z M330.657,459.608L274.21,312.939l0.411-0.16l57.564,146.233
				C331.678,459.213,331.169,459.412,330.657,459.608z M168.073,459.115l-1.41-0.558l58.207-145.979l0.531,0.21L168.073,459.115z
				 M361.117,445.161l-77.971-136.449l0.524-0.301l78.723,136.018L361.117,445.161z M137.736,444.503
				c-0.466-0.269-0.932-0.541-1.397-0.814l79.662-135.469l0.404,0.235L137.736,444.503z M388.771,426.549l-97.095-123.574
				l0.302-0.239l98.118,122.764C389.656,425.851,389.214,426.201,388.771,426.549z M110.098,425.654
				c-0.489-0.389-0.975-0.779-1.46-1.173l99.188-121.9l0.162,0.13L110.098,425.654z M413.581,403.841L299.045,296.232l0.363-0.389
				L414.638,402.71L413.581,403.841z M85.489,402.845l-0.986-1.067l115.674-106.383l0.424,0.459L85.489,402.845z M434.56,377.941
				l-129.03-89.72l0.191-0.277l129.828,88.56C435.222,376.984,434.893,377.462,434.56,377.941z M64.586,376.702
				c-0.311-0.453-0.62-0.91-0.926-1.365l130.366-87.764l0.239,0.352L64.586,376.702z M451.71,348.762l-141.207-68.983l0.321-0.659
				l141.477,68.426L451.71,348.762z M47.752,347.659c-0.241-0.498-0.48-0.998-0.718-1.498l142.023-67.286l0.178,0.37L47.752,347.659
				z M464.137,317.747l-149.812-47.478l0.113-0.367l150.207,46.218C464.478,316.662,464.309,317.205,464.137,317.747z
				 M35.42,316.331c-0.157-0.509-0.312-1.016-0.465-1.525l150.49-45.287l0.142,0.464L35.42,316.331z M471.867,284.821
				l-155.296-24.105l0.087-0.575l155.435,23.199L471.867,284.821z M27.946,283.606c-0.08-0.532-0.158-1.064-0.234-1.596
				l155.567-22.29l0.067,0.46L27.946,283.606z M474.556,251.725l-157.15-1.395l0.001-0.649h157.156v0.306
				C474.563,250.568,474.561,251.147,474.556,251.725z M182.593,250.141H25.437l0.004-1.448l157.154,0.815L182.593,250.141z
				 M316.697,240.089l-0.049-0.331l155.366-23.652c0.088,0.575,0.173,1.15,0.256,1.726L316.697,240.089z M183.338,239.856
				L27.865,216.917c0.08-0.544,0.163-1.087,0.247-1.629l155.291,24.141L183.338,239.856z M314.599,230.596l-0.22-0.717
				l150.145-46.413l0.391,1.272L314.599,230.596z M185.525,230.187L35.299,184.035l0.462-1.484l149.924,47.125L185.525,230.187z
				 M310.991,221.203l-0.27-0.564l141.438-68.506l0.628,1.305L310.991,221.203z M189.153,220.901L47.586,152.662l0.635-1.31
				l141.207,68.983L189.153,220.901z M306.051,212.515l-0.402-0.591l129.678-88.777l0.766,1.125L306.051,212.515z M194.228,212.104
				l-129.9-88.452c0.304-0.447,0.609-0.892,0.917-1.336l129.245,89.407L194.228,212.104z M299.551,204.285l-0.199-0.213
				L414.35,96.957c0.406,0.436,0.81,0.874,1.212,1.313L299.551,204.285z M200.542,204.187L85.205,97.437
				c0.366-0.395,0.733-0.789,1.102-1.182l114.55,107.593L200.542,204.187z M292.238,197.448l-0.347-0.278l97.891-122.944
				c0.427,0.339,0.853,0.681,1.278,1.025L292.238,197.448z M207.973,197.278l-98.259-122.65c0.44-0.353,0.881-0.703,1.324-1.052
				l97.238,123.461L207.973,197.278z M284.004,191.757l-0.453-0.263l78.494-136.15l1.348,0.783L284.004,191.757z M216.284,191.59
				L137.387,55.674c0.465-0.27,0.932-0.538,1.399-0.805l77.896,136.492L216.284,191.59z M274.908,187.31l-0.411-0.163
				l57.249-146.357c0.512,0.2,1.021,0.402,1.529,0.605L274.908,187.31z M225.337,187.212L167.571,41.058
				c0.516-0.204,1.033-0.406,1.551-0.605l56.602,146.608L225.337,187.212z M265.408,184.331l-0.413-0.095l34.509-153.32
				c0.539,0.121,1.077,0.245,1.615,0.37L265.408,184.331z M234.816,184.279l-35.05-153.197c0.546-0.125,1.093-0.248,1.641-0.369
				l33.798,153.479L234.816,184.279z M255.432,182.792l-0.442-0.033l11.362-156.745c0.544,0.039,1.089,0.081,1.631,0.124
				L255.432,182.792z M244.778,182.775l-11.84-156.709c0.542-0.041,1.086-0.08,1.63-0.117l10.654,156.794L244.778,182.775z"/>
		</g>
	</g>
	<g>
		<g>
			<g>
				<g>
					<g>
						<path style="fill:#E0E0E0;" d="M443.92,345.062H263.174c-3.232,0-5.862-2.63-5.862-5.862V75.926
							c0-3.232,2.63-5.862,5.862-5.862H443.92c3.232,0,5.862,2.629,5.862,5.862v263.273
							C449.783,342.432,447.153,345.062,443.92,345.062z M263.174,70.314c-3.095,0-5.612,2.518-5.612,5.612v263.273
							c0,3.095,2.518,5.612,5.612,5.612H443.92c3.095,0,5.612-2.517,5.612-5.612V75.926c0-3.094-2.518-5.612-5.612-5.612H263.174z"
							/>
					</g>
				</g>
				<g>
					<g>
						<path style="fill:#E0E0E0;" d="M235.493,345.062H54.746c-3.232,0-5.862-2.63-5.862-5.862V75.926
							c0-3.232,2.629-5.862,5.862-5.862h180.747c3.232,0,5.862,2.629,5.862,5.862v263.273
							C241.355,342.432,238.725,345.062,235.493,345.062z M54.746,70.314c-3.094,0-5.612,2.518-5.612,5.612v263.273
							c0,3.095,2.518,5.612,5.612,5.612h180.747c3.095,0,5.612-2.517,5.612-5.612V75.926c0-3.094-2.518-5.612-5.612-5.612H54.746z"
							/>
					</g>
				</g>
			</g>
			<g>
				<g>
					<rect x="0" y="406.131" style="fill:#E0E0E0;" width="500" height="0.25"/>
				</g>
			</g>
		</g>
		<rect x="51.672" y="420.396" style="fill:#E0E0E0;" width="16.06" height="0.25"/>
		<rect x="170.352" y="417.686" style="fill:#E0E0E0;" width="53.53" height="0.25"/>
		<rect x="68.732" y="429.686" style="fill:#E0E0E0;" width="36.25" height="0.25"/>
		<rect x="378.352" y="417.556" style="fill:#E0E0E0;" width="43.19" height="0.25"/>
		<rect x="430.452" y="417.556" style="fill:#E0E0E0;" width="6.33" height="0.25"/>
		<rect x="316.212" y="423.786" style="fill:#E0E0E0;" width="53.89" height="0.25"/>
	</g>
</g>
<g id="Background_simple" style="display:none;">
	<g style="display:inline;">
		<path style="fill:#407BFF;" d="M258.378,40.826c-27.949-8.74-57.788-11.697-87.85-7.5C135.098,38.272,93.665,53.24,81.532,95.01
			c-22.4,77.113,45.552,114.585,7.172,154.131C45.23,293.935,22.847,361.575,83.366,415.6
			c114.948,102.613,376.18-5.096,386.957-134.331C477.033,200.813,406.783,87.237,258.378,40.826z"/>
		<path style="opacity:0.9;fill:#FFFFFF;" d="M258.378,40.826c-27.949-8.74-57.788-11.697-87.85-7.5
			C135.098,38.272,93.665,53.24,81.532,95.01c-22.4,77.113,45.552,114.585,7.172,154.131C45.23,293.935,22.847,361.575,83.366,415.6
			c114.948,102.613,376.18-5.096,386.957-134.331C477.033,200.813,406.783,87.237,258.378,40.826z"/>
	</g>
</g>
<g id="Shadow">
	<g>
		<g>
			<path style="fill:#F5F5F5;" d="M372.19,449.848c0,7.535-54.706,13.644-122.19,13.644s-122.19-6.109-122.19-13.644
				c0-7.536,54.706-13.645,122.19-13.645S372.19,442.313,372.19,449.848z"/>
		</g>
	</g>
</g>
<g id="Plate">
	<g>
		<g>
			
				<ellipse transform="matrix(0.7071 -0.7071 0.7071 0.7071 -110.3552 253.5962)" style="fill:#263238;enable-background:new    ;" cx="250.94" cy="260.009" rx="188.338" ry="188.338"/>
			<circle style="opacity:0.7;fill:#FFFFFF;enable-background:new    ;" cx="250.94" cy="260.009" r="188.338"/>
		</g>
		<g>
			<path style="fill:#263238;" d="M251.987,83.501c-0.35-0.002-0.697-0.013-1.047-0.013c-97.49,0-176.521,79.031-176.521,176.521
				c0,13.279,1.389,26.406,4.169,38.848c60.123-0.205,174.464,0,174.464,0l-0.264-38.848L251.987,83.501z"/>
			<path style="fill:#407BFF;" d="M251.987,83.501l0.801,176.507l0,0h174.672C427.461,162.869,348.994,84.066,251.987,83.501z"/>
			<path style="fill:#263238;" d="M253.173,298.814"/>
			<path style="fill:#263238;" d="M252.788,260.009l0.264,38.848l0.121,137.644c96.459-1.198,174.287-79.749,174.287-176.492
				H252.788z"/>
			<path style="opacity:0.8;fill:#FFFFFF;" d="M252.788,260.009l0.264,38.848l0.121,137.644
				c96.459-1.198,174.287-79.749,174.287-176.492H252.788z"/>
			<path style="fill:#263238;" d="M252.667,298.857H78.589c17.684,78.819,88.075,137.713,172.23,137.713
				c0.747,0,1.489-0.019,2.233-0.028V298.857H252.667z"/>
			<path style="opacity:0.9;fill:#FFFFFF;" d="M252.667,298.857H78.589c17.684,78.819,88.075,137.713,172.23,137.713
				c0.747,0,1.489-0.019,2.233-0.028V298.857H252.667z"/>
		</g>
	</g>
</g>
<g id="Fruits">
	<g>
		<g>
			<g>
				<path style="fill:#263238;" d="M176.057,313.067c1.798,0.129,3.557,0.573,5.305,1.015c-2.296-1.641-4.19-3.841-5.473-6.354
					c3.386,0.416,6.57,2.284,8.583,5.038c-0.848-3.254-1.023-6.682-0.51-10.005c2.701,2.357,4.18,6.047,3.854,9.617
					c1.581-2.738,3.162-5.476,4.743-8.214c0.182-0.316,0.414-0.666,0.776-0.713c0.473-0.061,0.821,0.428,1.003,0.869
					c1.035,2.502,0.494,5.433-0.788,7.817c-1.282,2.384-3.231,4.329-5.151,6.237l-3.316,0.754
					c-5.221,0.573-10.663-1.401-14.302-5.189C172.4,313.142,174.259,312.939,176.057,313.067z"/>
			</g>
		</g>
		<g>
			<path style="fill:#407BFF;" d="M172.604,330.232c-0.093-3.098,1.359-6.124,3.549-8.317c2.19-2.193,5.807-4.229,10.072-4.001
				c-0.225,0.172,6.796-5.877,12.335-4.762c4.712,0.949,9.623,5.986,10.957,10.604c1.031,3.57,0.52,7.413-0.461,10.997
				c-0.981,3.584-2.419,7.037-3.271,10.654c-0.64,2.717-1.172,5.862-3.558,7.311c-1.247,0.757-2.804,0.874-4.237,0.596
				c-1.432-0.279-2.766-0.921-4.055-1.605c-4.804-2.55-9.232-5.76-13.409-9.242c-1.925-1.605-3.817-3.287-5.3-5.308
				C173.743,335.138,172.679,332.738,172.604,330.232z"/>
		</g>
		<g style="opacity:0.2;">
			<path d="M172.604,330.232c-0.093-3.098,1.359-6.124,3.549-8.317c2.19-2.193,5.807-4.229,10.072-4.001
				c-0.225,0.172,6.796-5.877,12.335-4.762c4.712,0.949,9.623,5.986,10.957,10.604c1.031,3.57,0.52,7.413-0.461,10.997
				c-0.981,3.584-2.419,7.037-3.271,10.654c-0.64,2.717-1.172,5.862-3.558,7.311c-1.247,0.757-2.804,0.874-4.237,0.596
				c-1.432-0.279-2.766-0.921-4.055-1.605c-4.804-2.55-9.232-5.76-13.409-9.242c-1.925-1.605-3.817-3.287-5.3-5.308
				C173.743,335.138,172.679,332.738,172.604,330.232z"/>
		</g>
		<g style="opacity:0.3;">
			<path style="fill:#FFFFFF;" d="M194.722,351.32c0.982,0.517,2.158,1.026,3.157,0.542c0.685-0.332,2.198-2.888,2.521-3.578
				c3.497-7.478,2.61-16.21,1.132-24.332c-0.398-2.191-0.843-4.4-1.782-6.419c-0.832-1.787-2.097-3.431-3.776-4.439
				c0.876-0.113,1.748-0.11,2.586,0.059c4.712,0.949,9.623,5.986,10.957,10.604c1.031,3.57,0.52,7.413-0.461,10.997
				c-0.981,3.584-2.419,7.037-3.271,10.654c-0.64,2.717-1.172,5.862-3.558,7.311c-1.247,0.757-2.804,0.874-4.237,0.596
				c-1.432-0.279-2.766-0.921-4.055-1.605c-4.804-2.55-9.232-5.76-13.409-9.242c-1.925-1.605-3.817-3.287-5.3-5.308
				c-0.203-0.277-0.398-0.562-0.584-0.853C178.491,340.702,187.355,347.447,194.722,351.32z"/>
		</g>
		<g>
			<path style="fill:#FFFFFF;" d="M193.628,340.212l0.259-0.251c0.37,0.284,0.637,0.699,0.742,1.153
				c0.044,0.192,0.06,0.397-0.004,0.583c-0.064,0.186-0.219,0.35-0.413,0.381c-0.187,0.029-0.377-0.069-0.497-0.215
				c-0.12-0.146-0.178-0.333-0.209-0.52C193.443,340.964,193.486,340.568,193.628,340.212z"/>
		</g>
		<g>
			<path style="fill:#FFFFFF;" d="M197.384,347.933l0.259-0.251c0.37,0.284,0.637,0.699,0.742,1.153
				c0.044,0.192,0.06,0.397-0.004,0.583c-0.064,0.186-0.219,0.35-0.414,0.381c-0.187,0.029-0.377-0.069-0.497-0.215
				c-0.12-0.146-0.178-0.334-0.209-0.52C197.2,348.685,197.243,348.289,197.384,347.933z"/>
		</g>
		<g>
			<path style="fill:#FFFFFF;" d="M202.069,341.886l0.259-0.251c0.37,0.284,0.637,0.699,0.742,1.153
				c0.044,0.192,0.06,0.397-0.004,0.583c-0.064,0.186-0.219,0.35-0.413,0.381c-0.187,0.029-0.377-0.069-0.497-0.215
				c-0.12-0.146-0.178-0.333-0.209-0.52C201.885,342.638,201.927,342.242,202.069,341.886z"/>
		</g>
		<g>
			<path style="fill:#FFFFFF;" d="M198.646,335.033l0.259-0.251c0.37,0.284,0.637,0.699,0.742,1.154
				c0.044,0.192,0.06,0.397-0.004,0.583c-0.064,0.186-0.219,0.35-0.413,0.381c-0.187,0.029-0.377-0.069-0.497-0.215
				c-0.12-0.146-0.178-0.333-0.209-0.52C198.462,335.785,198.505,335.39,198.646,335.033z"/>
		</g>
		<g>
			<path style="fill:#FFFFFF;" d="M205.494,331.816l0.258-0.251c0.37,0.284,0.637,0.699,0.742,1.153
				c0.044,0.192,0.06,0.397-0.004,0.583c-0.064,0.186-0.219,0.35-0.414,0.381c-0.187,0.029-0.377-0.069-0.497-0.215
				c-0.12-0.146-0.178-0.333-0.209-0.52C205.31,332.568,205.352,332.173,205.494,331.816z"/>
		</g>
		<g>
			<path style="fill:#FFFFFF;" d="M185.726,336.287l0.258-0.251c0.37,0.284,0.637,0.699,0.742,1.153
				c0.044,0.192,0.06,0.397-0.004,0.583c-0.064,0.186-0.219,0.35-0.413,0.381c-0.187,0.029-0.377-0.069-0.497-0.215
				c-0.12-0.146-0.178-0.333-0.208-0.52C185.541,337.039,185.584,336.643,185.726,336.287z"/>
		</g>
		<g>
			<path style="fill:#FFFFFF;" d="M180.775,339.276l0.259-0.251c0.37,0.284,0.637,0.699,0.742,1.153
				c0.044,0.192,0.06,0.397-0.004,0.583c-0.064,0.186-0.219,0.35-0.413,0.38c-0.187,0.029-0.377-0.069-0.497-0.215
				c-0.12-0.146-0.178-0.334-0.209-0.52C180.59,340.028,180.633,339.633,180.775,339.276z"/>
		</g>
		<g>
			<path style="fill:#FFFFFF;" d="M187.743,344.269l0.11-0.343c0.46,0.076,0.891,0.317,1.197,0.668
				c0.13,0.148,0.24,0.322,0.271,0.516c0.032,0.194-0.028,0.412-0.186,0.531c-0.151,0.114-0.365,0.117-0.54,0.044
				c-0.174-0.073-0.314-0.21-0.429-0.361C187.935,345.02,187.786,344.651,187.743,344.269z"/>
		</g>
		<g>
			<path style="fill:#FFFFFF;" d="M199.379,327.611l0.259-0.251c0.37,0.284,0.637,0.699,0.742,1.153
				c0.044,0.192,0.06,0.397-0.004,0.583c-0.064,0.186-0.219,0.35-0.414,0.381c-0.187,0.029-0.377-0.069-0.497-0.215
				c-0.12-0.146-0.178-0.333-0.209-0.52C199.194,328.363,199.237,327.968,199.379,327.611z"/>
		</g>
		<g>
			<path style="fill:#FFFFFF;" d="M204.094,321.907l0.259-0.251c0.37,0.284,0.637,0.699,0.742,1.153
				c0.044,0.192,0.06,0.397-0.004,0.583c-0.064,0.186-0.219,0.35-0.413,0.38c-0.187,0.029-0.377-0.069-0.497-0.215
				c-0.12-0.146-0.178-0.334-0.209-0.52C203.909,322.659,203.952,322.264,204.094,321.907z"/>
		</g>
		<g>
			<path style="fill:#FFFFFF;" d="M191.775,332.042l0.259-0.251c0.37,0.284,0.637,0.699,0.742,1.153
				c0.044,0.192,0.06,0.397-0.004,0.583c-0.063,0.186-0.219,0.35-0.413,0.381c-0.187,0.029-0.377-0.069-0.497-0.215
				c-0.12-0.146-0.178-0.334-0.209-0.52C191.59,332.794,191.633,332.398,191.775,332.042z"/>
		</g>
		<g>
			<path style="fill:#FFFFFF;" d="M185.097,328.814l0.258-0.251c0.37,0.284,0.637,0.699,0.742,1.153
				c0.044,0.192,0.06,0.397-0.004,0.583c-0.064,0.186-0.219,0.35-0.413,0.381c-0.187,0.029-0.377-0.069-0.497-0.215
				c-0.12-0.146-0.178-0.333-0.209-0.52C184.912,329.566,184.955,329.17,185.097,328.814z"/>
		</g>
		<g>
			<path style="fill:#FFFFFF;" d="M176.926,333.292l0.259-0.251c0.37,0.284,0.637,0.699,0.742,1.154
				c0.044,0.192,0.06,0.397-0.004,0.583c-0.064,0.186-0.219,0.35-0.414,0.381c-0.187,0.029-0.377-0.069-0.497-0.215
				c-0.12-0.146-0.178-0.333-0.208-0.52C176.742,334.044,176.784,333.649,176.926,333.292z"/>
		</g>
		<g>
			<path style="fill:#FFFFFF;" d="M194.223,322.341l0.207-0.295c0.417,0.21,0.756,0.568,0.945,0.994
				c0.079,0.18,0.133,0.378,0.105,0.573c-0.027,0.195-0.15,0.385-0.335,0.451c-0.178,0.064-0.383,0.003-0.528-0.118
				c-0.145-0.121-0.237-0.294-0.302-0.472C194.183,323.114,194.151,322.717,194.223,322.341z"/>
		</g>
		<g>
			<path style="fill:#FFFFFF;" d="M186.8,321.605l0.207-0.295c0.416,0.21,0.756,0.568,0.945,0.994
				c0.079,0.18,0.133,0.378,0.105,0.573c-0.027,0.195-0.15,0.385-0.335,0.451c-0.178,0.064-0.383,0.003-0.529-0.118
				c-0.145-0.121-0.237-0.294-0.302-0.472C186.759,322.378,186.727,321.982,186.8,321.605z"/>
		</g>
		<g>
			<path style="fill:#FFFFFF;" d="M178.481,324.713l0.207-0.295c0.416,0.21,0.756,0.568,0.945,0.994
				c0.079,0.18,0.133,0.378,0.105,0.573s-0.15,0.385-0.335,0.451c-0.178,0.064-0.383,0.003-0.528-0.118
				c-0.145-0.121-0.237-0.294-0.302-0.472C178.441,325.486,178.409,325.09,178.481,324.713z"/>
		</g>
		<g>
			<path style="fill:#FFFFFF;" d="M198.778,315.776l0.207-0.295c0.416,0.21,0.756,0.568,0.944,0.994
				c0.08,0.18,0.133,0.378,0.106,0.573c-0.028,0.195-0.15,0.385-0.335,0.451c-0.178,0.064-0.383,0.003-0.529-0.118
				s-0.237-0.294-0.302-0.472C198.738,316.549,198.706,316.153,198.778,315.776z"/>
		</g>
	</g>
	<g>
		<g>
			<g>
				<path style="fill:#263238;" d="M234.84,305.545c0.727,1.381,1.204,2.877,1.677,4.364c0.158-2.438,0.911-4.835,2.173-6.926
					c1.241,2.68,1.321,5.874,0.216,8.613c2.005-2.11,4.446-3.804,7.124-4.944c-0.499,3.063-2.537,5.835-5.311,7.227
					c2.735-0.088,5.471-0.176,8.206-0.264c0.316-0.01,0.679,0,0.879,0.245c0.261,0.32,0.06,0.799-0.181,1.134
					c-1.367,1.903-3.769,2.844-6.107,2.991c-2.339,0.146-4.659-0.398-6.939-0.939l-2.068-2.094c-2.806-3.578-3.84-8.48-2.717-12.887
					C233.115,302.89,234.113,304.164,234.84,305.545z"/>
			</g>
		</g>
		<g>
			<path style="fill:#407BFF;" d="M220.641,310.846c2.236-1.483,5.124-1.798,7.736-1.189c2.613,0.608,5.762,2.338,7.542,5.579
				c-0.229-0.087,7.425,2.313,9.135,6.895c1.455,3.898-0.007,9.81-2.793,12.9c-2.154,2.389-5.213,3.768-8.297,4.684
				c-3.084,0.916-6.279,1.435-9.328,2.461c-2.29,0.77-4.846,1.815-7,0.723c-1.127-0.571-1.924-1.663-2.373-2.843
				s-0.586-2.454-0.672-3.715c-0.319-4.697,0.019-9.419,0.672-14.081c0.301-2.149,0.674-4.308,1.482-6.322
				C217.554,313.923,218.833,312.045,220.641,310.846z"/>
		</g>
		<g style="opacity:0.2;">
			<path d="M220.641,310.846c2.236-1.483,5.124-1.798,7.736-1.189c2.613,0.608,5.762,2.338,7.542,5.579
				c-0.229-0.087,7.425,2.313,9.135,6.895c1.455,3.898-0.007,9.81-2.793,12.9c-2.154,2.389-5.213,3.768-8.297,4.684
				c-3.084,0.916-6.279,1.435-9.328,2.461c-2.29,0.77-4.846,1.815-7,0.723c-1.127-0.571-1.924-1.663-2.373-2.843
				s-0.586-2.454-0.672-3.715c-0.319-4.697,0.019-9.419,0.672-14.081c0.301-2.149,0.674-4.308,1.482-6.322
				C217.554,313.923,218.833,312.045,220.641,310.846z"/>
		</g>
		<g style="opacity:0.3;">
			<path style="fill:#FFFFFF;" d="M215.237,336.741c0.069,0.958,0.231,2.055,1.043,2.569c0.557,0.352,3.128,0.297,3.782,0.219
				c7.096-0.844,13.111-5.485,18.409-10.281c1.429-1.294,2.851-2.629,3.906-4.242c0.934-1.428,1.565-3.109,1.54-4.804
				c0.483,0.592,0.879,1.235,1.138,1.928c1.455,3.898-0.007,9.81-2.793,12.9c-2.154,2.389-5.213,3.768-8.297,4.684
				c-3.084,0.916-6.279,1.435-9.328,2.461c-2.29,0.77-4.846,1.815-7,0.723c-1.127-0.571-1.924-1.663-2.373-2.843
				s-0.586-2.454-0.672-3.715c-0.319-4.697,0.019-9.419,0.672-14.081c0.301-2.149,0.674-4.308,1.482-6.322
				c0.111-0.276,0.231-0.549,0.36-0.819C215.631,319.957,214.72,329.555,215.237,336.741z"/>
		</g>
		<g>
			<path style="fill:#FFFFFF;" d="M222.905,330.863l0.303,0.075c-0.04,0.402-0.223,0.787-0.509,1.072
				c-0.121,0.12-0.264,0.225-0.43,0.264c-0.166,0.038-0.357-0.001-0.469-0.13c-0.107-0.124-0.122-0.309-0.069-0.464
				c0.053-0.155,0.164-0.283,0.287-0.391C222.268,331.07,222.578,330.921,222.905,330.863z"/>
		</g>
		<g>
			<path style="fill:#FFFFFF;" d="M218.944,337.151l0.303,0.075c-0.04,0.402-0.223,0.787-0.509,1.072
				c-0.121,0.12-0.264,0.225-0.43,0.264c-0.166,0.038-0.357-0.001-0.469-0.13c-0.107-0.124-0.122-0.309-0.069-0.464
				c0.053-0.155,0.164-0.283,0.287-0.391C218.306,337.359,218.617,337.21,218.944,337.151z"/>
		</g>
		<g>
			<path style="fill:#FFFFFF;" d="M225.53,337.834l0.303,0.075c-0.04,0.402-0.223,0.788-0.509,1.072
				c-0.121,0.12-0.264,0.225-0.43,0.264c-0.166,0.038-0.357-0.001-0.469-0.13c-0.107-0.124-0.122-0.309-0.069-0.464
				c0.053-0.155,0.164-0.283,0.287-0.391C224.892,338.042,225.203,337.893,225.53,337.834z"/>
		</g>
		<g>
			<path style="fill:#FFFFFF;" d="M229.005,332.188l0.303,0.075c-0.04,0.402-0.223,0.787-0.509,1.072
				c-0.121,0.12-0.264,0.225-0.43,0.263c-0.166,0.038-0.357-0.001-0.469-0.13c-0.107-0.124-0.122-0.309-0.069-0.464
				c0.053-0.155,0.164-0.283,0.287-0.391C228.368,332.395,228.678,332.246,229.005,332.188z"/>
		</g>
		<g>
			<path style="fill:#FFFFFF;" d="M234.498,335.754l0.303,0.075c-0.04,0.402-0.223,0.787-0.509,1.072
				c-0.121,0.12-0.264,0.225-0.43,0.263c-0.166,0.038-0.357-0.001-0.469-0.13c-0.107-0.124-0.122-0.309-0.069-0.464
				c0.053-0.155,0.164-0.283,0.287-0.391C233.861,335.961,234.171,335.812,234.498,335.754z"/>
		</g>
		<g>
			<path style="fill:#FFFFFF;" d="M222.182,323.26l0.303,0.075c-0.04,0.402-0.223,0.787-0.509,1.072
				c-0.121,0.12-0.264,0.225-0.43,0.264c-0.166,0.038-0.357-0.001-0.469-0.13c-0.107-0.124-0.122-0.309-0.069-0.464
				c0.053-0.155,0.164-0.283,0.287-0.391C221.545,323.468,221.855,323.319,222.182,323.26z"/>
		</g>
		<g>
			<path style="fill:#FFFFFF;" d="M217.723,320.985l0.303,0.075c-0.04,0.402-0.223,0.787-0.509,1.072
				c-0.121,0.12-0.264,0.225-0.43,0.263c-0.166,0.038-0.357-0.001-0.469-0.13c-0.107-0.124-0.122-0.309-0.069-0.464
				c0.053-0.155,0.164-0.283,0.287-0.391C217.086,321.192,217.396,321.043,217.723,320.985z"/>
		</g>
		<g>
			<path style="fill:#FFFFFF;" d="M217.234,328.389l0.303-0.076c0.154,0.373,0.174,0.8,0.056,1.186
				c-0.05,0.163-0.127,0.323-0.255,0.435c-0.129,0.112-0.316,0.167-0.475,0.106c-0.153-0.059-0.253-0.215-0.279-0.376
				c-0.026-0.161,0.011-0.327,0.069-0.48C216.769,328.872,216.973,328.595,217.234,328.389z"/>
		</g>
		<g>
			<path style="fill:#FFFFFF;" d="M234.797,329.336l0.303,0.075c-0.04,0.402-0.223,0.787-0.509,1.072
				c-0.121,0.12-0.264,0.225-0.43,0.264c-0.166,0.038-0.357-0.001-0.469-0.13c-0.107-0.124-0.122-0.309-0.069-0.464
				c0.053-0.155,0.164-0.283,0.287-0.391C234.16,329.544,234.47,329.395,234.797,329.336z"/>
		</g>
		<g>
			<path style="fill:#FFFFFF;" d="M241.145,330.198l0.303,0.075c-0.04,0.402-0.223,0.787-0.509,1.072
				c-0.121,0.12-0.264,0.225-0.43,0.264c-0.166,0.038-0.357-0.001-0.469-0.13c-0.107-0.124-0.122-0.309-0.069-0.464
				c0.053-0.155,0.164-0.283,0.287-0.391C240.507,330.406,240.818,330.257,241.145,330.198z"/>
		</g>
		<g>
			<path style="fill:#FFFFFF;" d="M228.066,325.769l0.303,0.075c-0.04,0.402-0.223,0.787-0.509,1.072
				c-0.121,0.12-0.264,0.225-0.43,0.264c-0.166,0.038-0.357-0.001-0.469-0.13c-0.107-0.124-0.122-0.309-0.069-0.464
				c0.053-0.155,0.164-0.283,0.287-0.391C227.429,325.976,227.739,325.827,228.066,325.769z"/>
		</g>
		<g>
			<path style="fill:#FFFFFF;" d="M227.39,319.384l0.303,0.075c-0.04,0.402-0.223,0.788-0.509,1.072
				c-0.121,0.12-0.264,0.225-0.43,0.264c-0.166,0.038-0.358-0.001-0.469-0.13c-0.107-0.124-0.122-0.309-0.069-0.464
				c0.053-0.155,0.164-0.283,0.287-0.391C226.752,319.592,227.063,319.443,227.39,319.384z"/>
		</g>
		<g>
			<path style="fill:#FFFFFF;" d="M220.365,315.422l0.303,0.075c-0.04,0.402-0.223,0.788-0.509,1.072
				c-0.121,0.12-0.264,0.225-0.43,0.264c-0.166,0.038-0.357-0.001-0.469-0.13c-0.107-0.124-0.122-0.309-0.069-0.464
				c0.053-0.155,0.164-0.283,0.287-0.391C219.728,315.629,220.038,315.48,220.365,315.422z"/>
		</g>
		<g>
			<path style="fill:#FFFFFF;" d="M236.318,323.138l0.312,0.017c0.036,0.402-0.072,0.815-0.3,1.149
				c-0.096,0.141-0.218,0.271-0.373,0.34c-0.156,0.069-0.351,0.066-0.485-0.04c-0.128-0.102-0.177-0.281-0.155-0.442
				c0.023-0.162,0.108-0.309,0.209-0.438C235.731,323.462,236.008,323.257,236.318,323.138z"/>
		</g>
		<g>
			<path style="fill:#FFFFFF;" d="M233.468,317.344l0.312,0.017c0.036,0.402-0.072,0.815-0.3,1.149
				c-0.096,0.141-0.217,0.271-0.373,0.34c-0.156,0.069-0.351,0.066-0.485-0.04c-0.128-0.102-0.177-0.281-0.155-0.443
				c0.023-0.162,0.108-0.309,0.209-0.438C232.881,317.667,233.158,317.463,233.468,317.344z"/>
		</g>
		<g>
			<path style="fill:#FFFFFF;" d="M227.383,312.647l0.312,0.017c0.036,0.402-0.072,0.815-0.3,1.149
				c-0.096,0.141-0.217,0.271-0.374,0.339c-0.156,0.069-0.351,0.066-0.485-0.04c-0.128-0.102-0.177-0.281-0.154-0.443
				c0.023-0.162,0.108-0.309,0.209-0.438C226.796,312.97,227.073,312.765,227.383,312.647z"/>
		</g>
		<g>
			<path style="fill:#FFFFFF;" d="M243.225,323.489l0.312,0.017c0.036,0.402-0.072,0.815-0.3,1.149
				c-0.096,0.141-0.217,0.271-0.374,0.339c-0.156,0.069-0.351,0.066-0.485-0.04c-0.128-0.102-0.177-0.281-0.155-0.443
				c0.023-0.162,0.108-0.309,0.209-0.438C242.638,323.813,242.915,323.608,243.225,323.489z"/>
		</g>
	</g>
	<g>
		<path style="fill:#407BFF;" d="M159.111,315.011c-2.042-6.691-7.82-11.697-14.785-12.359c-1.388-0.132-2.706-0.104-3.864,0.095
			c-4.493,0.77-9.14,2.992-11.949,6.684c-0.633-2.206-2.363-3.97-4.438-4.908c-3.179-1.435-6.801-1.852-10.252-1.297
			c-5.657,0.91-10.698,4.47-14.044,9.121c-3.691,5.131-5.441,11.624-4.828,17.915c0.612,6.291,3.582,12.325,8.193,16.648
			c2.071,1.942,6.554,5.052,9.011,6.475c0,0,11.528,5.068,23.203,2.499c11.675-2.569,21.856-7.858,25.25-24.332
			C161.969,324.941,160.309,318.937,159.111,315.011z"/>
		<path style="opacity:0.3;" d="M148.383,303.573c4.892,4.012,8.018,7.673,8.629,15.249c0.774,9.6-0.33,23.419-10.725,31.444
			c-3.301,2.548-9.446,4.575-18.821,6.329c2.531,0.063,5.207-0.121,7.892-0.712c11.675-2.569,21.856-7.858,25.25-24.332
			c1.362-6.61-0.298-12.614-1.496-16.54C157.483,309.674,153.472,305.417,148.383,303.573z"/>
		<path style="fill:#263238;" d="M129.676,309.675c0,0-11.185-20.942,23.797-26.653
			C153.474,283.022,158.709,312.531,129.676,309.675z"/>
		<path style="opacity:0.2;fill:#FFFFFF;" d="M129.676,309.675c0,0-11.185-20.942,23.797-26.653
			C153.474,283.022,158.709,312.531,129.676,309.675z"/>
		<path style="fill:#407BFF;" d="M127.535,311.817c0,0,0.453-9.995-7.983-17.848l7.988-5.949c0,0,4.517,11.899,3.327,23.797H127.535
			z"/>
		<path style="opacity:0.3;" d="M127.535,311.817c0,0,0.453-9.995-7.983-17.848l7.988-5.949c0,0,4.517,11.899,3.327,23.797H127.535z
			"/>
		<g style="opacity:0.2;">
			<path style="fill:#FFFFFF;" d="M108.873,307.266c-5.108,2.693-8.695,8.077-9.211,13.828c-0.172,1.912,0.057,4.039,1.43,5.38
				c1.066,1.042,2.655,1.409,4.14,1.284c1.485-0.125,2.896-0.687,4.258-1.29c3.914-1.735,7.701-3.912,10.686-6.98
				c0.379-0.39,0.746-0.806,1.096-1.243c4.475-5.582-0.471-13.933-7.51-12.654C112.061,305.9,110.406,306.458,108.873,307.266z"/>
		</g>
	</g>
	<g>
		<path style="fill:#263238;" d="M236.616,359.615c-0.124,0-0.248-0.046-0.345-0.138c-0.2-0.191-0.207-0.508-0.017-0.707
			l0.274-0.288c3.258-3.409,5.41-5.662,4.752-13.503c-0.023-0.275,0.181-0.518,0.456-0.54c0.271-0.018,0.518,0.181,0.54,0.456
			c0.696,8.29-1.704,10.802-5.025,14.278l-0.274,0.286C236.879,359.564,236.748,359.615,236.616,359.615z"/>
		<g>
			<g>
				<path style="fill:#263238;" d="M238.623,373.452c3.495-1.956,5.884-6.236,4.702-10.063c-0.793-2.567-3.183-4.528-5.823-4.933
					l0.02,0.001c-1.023-2.712-3.942-4.378-6.512-4.739c-2.57-0.361-5.289,0.581-7.086,2.453c-1.267,1.32-2.067,3.048-2.423,4.843
					c-0.861,4.338,1.004,9.097,4.582,11.696C229.661,375.31,234.764,375.612,238.623,373.452z"/>
			</g>
			<g style="opacity:0.4;">
				<path style="fill:#FFFFFF;" d="M238.623,373.452c3.495-1.956,5.884-6.236,4.702-10.063c-0.793-2.567-3.183-4.528-5.823-4.933
					l0.02,0.001c-1.023-2.712-3.942-4.378-6.512-4.739c-2.57-0.361-5.289,0.581-7.086,2.453c-1.267,1.32-2.067,3.048-2.423,4.843
					c-0.861,4.338,1.004,9.097,4.582,11.696C229.661,375.31,234.764,375.612,238.623,373.452z"/>
			</g>
			<g style="opacity:0.4;">
				<path style="fill:#FFFFFF;" d="M235.226,358.157c-1.309-1.696-3.554-2.618-5.676-2.331c-2.123,0.287-4.043,1.771-4.854,3.754
					c-0.499,1.219-0.687,4.356-0.687,4.356s4.032,0.756,4.162,0.704c-0.445-1.805,0.132-3.826,1.462-5.124
					c1.33-1.298,3.365-1.824,5.158-1.335"/>
			</g>
		</g>
	</g>
	<g>
		<path style="fill:#263238;" d="M125.277,362.586c-0.218,0-0.419-0.145-0.481-0.365l-0.106-0.382
			c-1.265-4.543-2.101-7.545-9.178-10.987c-0.248-0.12-0.352-0.42-0.231-0.668c0.121-0.248,0.421-0.355,0.668-0.23
			c7.481,3.639,8.414,6.985,9.704,11.617l0.106,0.381c0.074,0.267-0.081,0.542-0.347,0.616
			C125.367,362.58,125.322,362.586,125.277,362.586z"/>
		<g>
			<g>
				<path style="fill:#263238;" d="M138.626,367.689c0.105-4.004-2.353-8.245-6.246-9.185c-2.611-0.63-5.519,0.422-7.216,2.484
					l0.011-0.017c-2.854-0.507-5.778,1.15-7.401,3.175c-1.624,2.024-2.205,4.843-1.514,7.344c0.487,1.764,1.564,3.335,2.924,4.558
					c3.288,2.957,8.332,3.787,12.395,2.04C135.643,376.342,138.51,372.11,138.626,367.689z"/>
			</g>
			<g style="opacity:0.4;">
				<path style="fill:#FFFFFF;" d="M138.626,367.689c0.105-4.004-2.353-8.245-6.246-9.185c-2.611-0.63-5.519,0.422-7.216,2.484
					l0.011-0.017c-2.854-0.507-5.778,1.15-7.401,3.175c-1.624,2.024-2.205,4.843-1.514,7.344c0.487,1.764,1.564,3.335,2.924,4.558
					c3.288,2.957,8.332,3.787,12.395,2.04C135.643,376.342,138.51,372.11,138.626,367.689z"/>
			</g>
			<g style="opacity:0.4;">
				<path style="fill:#FFFFFF;" d="M123.743,362.791c-2.127,0.258-4.066,1.716-4.905,3.688c-0.838,1.971-0.544,4.38,0.745,6.091
					c0.793,1.052,3.393,2.817,3.393,2.817s2.711-3.08,2.733-3.217c-1.779-0.54-3.221-2.068-3.656-3.875
					c-0.436-1.807,0.152-3.825,1.489-5.116"/>
			</g>
		</g>
	</g>
	<g>
		<g>
			<path style="fill:#263238;" d="M228.888,385.235c0,0-5.024-14.397-15.875-17.939c-10.851-3.542-11.808,4.563-25.245,0.184
				c0,0,13.556,15.947,27.33,16.874L228.888,385.235z"/>
			<path style="opacity:0.1;fill:#FFFFFF;enable-background:new    ;" d="M228.888,385.235c0,0-5.024-14.397-15.875-17.939
				c-10.851-3.542-11.808,4.563-25.245,0.184c0,0,13.556,15.947,27.33,16.874L228.888,385.235z"/>
			<path style="opacity:0.1;fill:#FFFFFF;enable-background:new    ;" d="M222.389,376.301c0.289,0.345,0.244,0.859-0.101,1.148
				c-0.275,0.23-0.668,0.254-0.969,0.059c-3.332-2.19-7.087-3.658-11.021-4.309c-3.951-0.656-7.246-1.292-9.781-1.823
				c-0.439-0.088-0.724-0.516-0.636-0.956c0.067-0.333,0.334-0.589,0.669-0.642c1.892-0.327,3.731-0.905,5.47-1.719
				C210.497,365.957,217.846,370.956,222.389,376.301z"/>
			<path style="fill:#263238;" d="M232.198,389.569c0,0-2.416-3.299-3.309-4.334c-3.805-4.42-9.84-10.098-20.332-11.41
				c-10.492-1.312-16.949-4.189-16.949-4.189s3.835,2.929,17.34,5.119c14.814,2.399,22.642,15.191,22.642,15.191L232.198,389.569z"
				/>
			<path style="fill:#263238;" d="M222.105,379.686c0,0-6.52-0.11-10.512,3.077c0,0,2.506-3.597,9.571-3.659L222.105,379.686z"/>
			<path style="fill:#263238;" d="M214.313,375.678c0,0-6.405-0.33-11.08,3.527c0,0,2.987-4.023,9.418-4.114L214.313,375.678z"/>
			<path style="fill:#263238;" d="M204.255,373.464c0,0-2.518-0.231-4.373,0.306c-1.855,0.537-4.083-0.072-4.083-0.072
				s2.872-0.05,3.855-0.349c0.658-0.185,1.339-0.281,2.023-0.284L204.255,373.464z"/>
			<path style="fill:#263238;" d="M198.183,372.067c0,0-1.953-1.242-2.658-2.802c0.196,1.113,0.926,2.059,1.952,2.532
				L198.183,372.067z"/>
			<path style="fill:#263238;" d="M208.161,373.918c-1.936-0.464-3.632-1.628-4.761-3.268c-1.809-2.703-2.51-2.539-2.51-2.539
				c0.721,0.734,1.332,1.567,1.816,2.476c0.916,1.816,3.159,3.201,3.159,3.201L208.161,373.918z"/>
			<path style="fill:#263238;" d="M216.638,376.315c0,0,0.217-4.408-4.206-8.332c0,0,3.554,4.338,3.43,7.852L216.638,376.315z"/>
			<path style="fill:#263238;" d="M224.467,381.146c-1.183-1.863-1.988-3.941-2.37-6.115c0,0-0.413,1.775,1.428,5.875
				L224.467,381.146z"/>
		</g>
		<g>
			<g id="freepik--peach-1--inject-2_00000118366914339232720310000006332231536128900758_">
				<path style="fill:#407BFF;" d="M227.291,385.57c0,0-15.14-8.066-25.938,4.192c-10.798,12.258-6.974,40.076,17.864,44.313
					c24.838,4.237,34.39-22.201,30.851-34.914C246.528,386.448,236.054,381.248,227.291,385.57z"/>
				<path style="fill:#407BFF;" d="M201.352,389.761c-5.82,6.608-7.389,17.738-3.712,27.26l0,0c0,0-5.591-14.219,9.118-23.426
					c14.71-9.206,27.292,1.583,27.292,1.583s-0.108-5.789,7.131-5.243c6.066,0.46,8.737,9.306,9.439,12.151
					c-0.108-0.985-0.293-1.961-0.553-2.917c-3.539-12.713-14.013-17.913-22.776-13.591
					C227.291,385.57,212.151,377.504,201.352,389.761z"/>
				<path style="opacity:0.2;enable-background:new    ;" d="M201.352,389.761c-5.82,6.608-7.389,17.738-3.712,27.26l0,0
					c0,0-5.591-14.219,9.118-23.426c14.71-9.206,27.292,1.583,27.292,1.583s-0.108-5.789,7.131-5.243
					c6.066,0.46,8.737,9.306,9.439,12.151c-0.108-0.985-0.293-1.961-0.553-2.917c-3.539-12.713-14.013-17.913-22.776-13.591
					C227.291,385.57,212.151,377.504,201.352,389.761z"/>
				<path style="fill:#407BFF;" d="M235.449,403.608c0,0,3.027-12.149-5.425-19.064c-0.943,0.252-1.858,0.595-2.733,1.025
					C227.291,385.57,235.311,390.77,235.449,403.608z"/>
				<path style="opacity:0.3;enable-background:new    ;" d="M235.449,403.608c0,0,3.027-12.149-5.425-19.064
					c-0.943,0.252-1.858,0.595-2.733,1.025C227.291,385.57,235.311,390.77,235.449,403.608z"/>
				<path style="opacity:0.2;fill:#FFFFFF;enable-background:new    ;" d="M211.739,419.967c5.262,1.23,3.848-10.624,1.455-10.668
					C208.794,409.217,199.628,417.137,211.739,419.967z"/>
			</g>
		</g>
	</g>
	<g>
		<path style="fill:#A24E3F;" d="M168.093,334.989l-4.59,3.1c1.466,2.439,2.208,7.226,2.208,7.226l2.691,0.611
			C166.745,341.456,168.093,334.989,168.093,334.989z"/>
		<g>
			<g>
				<g>
					<path style="fill-rule:evenodd;clip-rule:evenodd;fill:#407BFF;" d="M153.468,356.311c-3.062,8.724-1.986,7.45-9.218,21.2
						c-7.232,13.75-3.77,33.236,20.595,33.938c24.364,0.702,27.199-19.214,23.007-30.118c-4.192-10.904-4.489-21.096-8.598-29.517
						C174.648,342.379,158.796,341.13,153.468,356.311"/>
					<g style="opacity:0.2;">
						<path style="fill-rule:evenodd;clip-rule:evenodd;" d="M187.786,381.272c-4.192-10.904-4.489-21.096-8.598-29.517
							c-2.421-4.961-7.952-7.654-13.426-6.891c2.36,0.608,4.673,1.921,5.678,4.637c2.419,6.533,5.813,26.899,7.331,41.009
							c1.287,11.96-12.227,18.699-21.294,19.983c2.194,0.502,4.613,0.82,7.302,0.898
							C189.143,412.093,191.978,392.177,187.786,381.272z"/>
					</g>
				</g>
			</g>
		</g>
		<g style="opacity:0.3;">
			<path style="fill:#FFFFFF;" d="M162.968,350.208l-0.692-0.051c-2.507,0.503-4.548,2.427-5.783,4.665
				c-1.235,2.239-1.779,4.784-2.255,7.297c-0.476,2.512-0.91,5.065-1.959,7.397c-0.935,2.08-2.327,3.913-3.554,5.835
				c-0.676,1.059-1.316,2.18-1.516,3.419c-0.201,1.24,0.117,2.632,1.086,3.431c1.076,0.887,2.702,0.83,3.946,0.2
				c1.244-0.63,2.179-1.728,3.019-2.841C161.511,371.279,164.344,360.494,162.968,350.208z"/>
		</g>
	</g>
</g>
<g id="Proteins">
	<g>
		<g>
			<g>
				<g>
					<path style="fill:#407BFF;" d="M322.562,334.173c-7.331,0.164-14.943,2.067-20.333,7.038
						c-5.989,5.523-8.399,14.414-6.695,22.38c1.704,7.967,7.232,14.88,14.291,18.947c7.059,4.067,15.517,5.402,23.609,4.463
						c11.572-1.343,24.529-7.735,31.683-16.93c7.154-9.195,10.452-16.721,8.597-32.33c-0.688-5.79-4.103-13.078-8.394-17.028
						c-4.29-3.949-12.349-4.454-17.869-2.574c-4.6,1.567-7.971,5.41-11.574,8.672C332.274,330.073,331.071,332.797,322.562,334.173"
						/>
				</g>
				<g style="opacity:0.3;">
					<path d="M354.195,322.113c-1.817,0-3.636,0.28-5.121,0.786c-2.696,0.918-5.134,3.229-7.716,5.675
						c-0.7,0.663-1.397,1.324-2.104,1.964c-0.574,0.52-1.08,1.025-1.566,1.51c-3.349,3.336-6.337,5.797-14.323,7.088l-0.344,0.056
						l-0.346,0.007c-5.072,0.114-12.146,1.197-17.038,5.708c-4.473,4.126-6.558,11.213-5.185,17.631
						c1.343,6.281,5.784,12.128,11.883,15.642c4.633,2.669,10.218,4.079,16.157,4.079l0,0c1.446,0,2.914-0.086,4.363-0.254
						c10.92-1.267,22.29-7.304,28.293-15.022c6.587-8.463,9.243-14.608,7.574-28.65c-0.572-4.821-3.56-10.935-6.806-13.921
						C360.35,322.973,357.465,322.113,354.195,322.113z"/>
				</g>
			</g>
			<path style="opacity:0.3;" d="M300.38,373.272c6.671-2.499,12.116-7.756,14.933-14.295c3.139-7.284,2.863-15.787-0.527-22.927
				c-0.207-0.436-0.854-0.056-0.648,0.379c3.323,6.997,3.543,15.416,0.376,22.515c-2.765,6.198-7.967,11.22-14.334,13.606
				C299.732,372.717,299.926,373.442,300.38,373.272L300.38,373.272z"/>
			<path style="opacity:0.3;" d="M322.244,334.447c0.125,7.676,1.08,15.65,3.898,22.837c1.335,3.404,3.148,6.471,5.716,9.086
				c3.058,3.114,6.621,5.738,10.472,7.786c4.463,2.374,9.3,3.973,14.292,4.759c0.472,0.074,0.675-0.648,0.199-0.723
				c-8.588-1.352-16.78-5.159-23.154-11.106c-2.802-2.614-4.922-5.546-6.424-9.076c-1.505-3.536-2.451-7.305-3.107-11.083
				c-0.716-4.119-1.074-8.3-1.142-12.479C322.986,333.965,322.236,333.964,322.244,334.447L322.244,334.447z"/>
			<path style="opacity:0.3;" d="M363.816,319.923c-3.165,1.654-5.487,4.65-6.667,7.99c-1.272,3.6-0.871,7.529,0.46,11.054
				c2.666,7.065,8.641,12.948,15.593,15.778c0.447,0.182,0.641-0.543,0.199-0.723c-6.569-2.674-12.271-8.245-14.917-14.863
				c-1.354-3.387-1.875-7.173-0.731-10.694c1.073-3.303,3.342-6.274,6.442-7.894C364.622,320.347,364.244,319.699,363.816,319.923
				L363.816,319.923z"/>
			<path style="fill:#FFFFFF;" d="M359.086,336.239c0,3.184-2.581,5.765-5.766,5.765c-3.184,0-5.765-2.581-5.765-5.765
				c0-3.184,2.581-5.766,5.765-5.766C356.505,330.473,359.086,333.055,359.086,336.239z"/>
		</g>
		<g>
			<path style="fill:#407BFF;" d="M358.1,304.747c0,0,0.986,6.38,9.597,10.698c0,0-6.697-5.095-4.612-7.329
				c1.943-2.091,1.94-3.708,1.94-3.708L358.1,304.747z"/>
			<path style="opacity:0.4;fill:#FFFFFF;enable-background:new    ;" d="M358.1,304.747c0,0,0.986,6.38,9.597,10.698
				c0,0-6.697-5.095-4.612-7.329c1.943-2.091,1.94-3.708,1.94-3.708L358.1,304.747z"/>
			<path style="opacity:0.3;fill:#263238;enable-background:new    ;" d="M358.1,304.747c0,0,0.986,6.38,9.597,10.698
				c0,0-6.697-5.095-4.612-7.329c1.943-2.091,1.94-3.708,1.94-3.708L358.1,304.747z"/>
			<path style="fill:#407BFF;" d="M359.748,281.295c0,0,5.894-6.285,16.116-8.931c0,0-8.118,3.244-7.799,7.584
				c0.319,4.34,2.218,4.056-0.545,5.752L359.748,281.295z"/>
			<path style="opacity:0.4;fill:#FFFFFF;enable-background:new    ;" d="M359.748,281.295c0,0,5.894-6.285,16.116-8.931
				c0,0-8.118,3.244-7.799,7.584c0.319,4.34,2.218,4.056-0.545,5.752L359.748,281.295z"/>
			<path style="opacity:0.3;fill:#263238;enable-background:new    ;" d="M359.748,281.295c0,0,5.894-6.285,16.116-8.931
				c0,0-8.118,3.244-7.799,7.584c0.319,4.34,2.218,4.056-0.545,5.752L359.748,281.295z"/>
			<path style="fill:#407BFF;" d="M391.654,301.707c0,0,1.926-0.764,5.17-4.732c4.534-5.553,12.978-6.579,12.978-6.579
				c-4.876,2.326-8.853,7.346-10.648,13.443c-2.903,10.215,1.661,18.181,1.661,18.181s-6.305-6.336-6.962-11.362
				C393.422,307.527,392.684,304.522,391.654,301.707z"/>
			<path style="opacity:0.4;fill:#FFFFFF;enable-background:new    ;" d="M391.654,301.707c0,0,1.926-0.764,5.17-4.732
				c4.534-5.553,12.978-6.579,12.978-6.579c-4.876,2.326-8.853,7.346-10.648,13.443c-2.903,10.215,1.661,18.181,1.661,18.181
				s-6.305-6.336-6.962-11.362C393.422,307.527,392.684,304.522,391.654,301.707z"/>
			<path style="opacity:0.3;fill:#263238;enable-background:new    ;" d="M391.654,301.707c0,0,1.926-0.764,5.17-4.732
				c4.534-5.553,12.978-6.579,12.978-6.579c-4.876,2.326-8.853,7.346-10.648,13.443c-2.903,10.215,1.661,18.181,1.661,18.181
				s-6.305-6.336-6.962-11.362C393.422,307.527,392.684,304.522,391.654,301.707z"/>
			<path style="fill:#407BFF;" d="M338.74,274.45c1.869-4.311,4.263-8.299,7.086-11.802c0,0-0.574,5.855,7.349,11.299
				c7.923,5.444,8.144,7.865,8.144,7.865L338.74,274.45z"/>
			<path style="fill:#407BFF;" d="M338.74,274.45c1.869-4.311,4.263-8.299,7.086-11.802c0,0-0.574,5.855,7.349,11.299
				c7.923,5.444,8.144,7.865,8.144,7.865L338.74,274.45z"/>
			<path style="opacity:0.4;fill:#FFFFFF;enable-background:new    ;" d="M338.74,274.45c1.869-4.311,4.263-8.299,7.086-11.802
				c0,0-0.574,5.855,7.349,11.299c7.923,5.444,8.144,7.865,8.144,7.865L338.74,274.45z"/>
			<path style="opacity:0.3;fill:#263238;enable-background:new    ;" d="M338.74,274.45c1.869-4.311,4.263-8.299,7.086-11.802
				c0,0-0.574,5.855,7.349,11.299c7.923,5.444,8.144,7.865,8.144,7.865L338.74,274.45z"/>
			<path style="fill:#407BFF;" d="M329.708,300.135c1.28,2.079,2.09,4.587,2.36,7.309c0.6,4.867,1.797,5.207,1.797,5.207
				s4.409-5.639,3.705-7.273c-0.704-1.633-4.754-4.401-4.754-4.401L329.708,300.135z"/>
			<path style="opacity:0.4;fill:#FFFFFF;enable-background:new    ;" d="M329.708,300.135c1.28,2.079,2.09,4.587,2.36,7.309
				c0.6,4.867,1.797,5.207,1.797,5.207s4.409-5.639,3.705-7.273c-0.704-1.633-4.754-4.401-4.754-4.401L329.708,300.135z"/>
			<path style="opacity:0.3;fill:#263238;enable-background:new    ;" d="M329.708,300.135c1.28,2.079,2.09,4.587,2.36,7.309
				c0.6,4.867,1.797,5.207,1.797,5.207s4.409-5.639,3.705-7.273c-0.704-1.633-4.754-4.401-4.754-4.401L329.708,300.135z"/>
			<path style="fill:#407BFF;" d="M391.983,300.469c-11.703-7.535-30.566-21.323-44.21-25.2
				c-12.288-3.492-34.667-0.794-40.124,4.863l5.998,7.804c-2.278-1.476-4.643-2.769-7.084-3.873
				c2.105,7.958,25.348,18.386,32.878,20.526c14.906,4.236,38.451-0.134,52.346-1.308c3.912-0.332,6.032,0.596,6.139,0.219
				C398.033,303.124,395.508,302.711,391.983,300.469z"/>
			<path style="opacity:0.4;fill:#FFFFFF;enable-background:new    ;" d="M391.983,300.469c-11.703-7.535-30.566-21.323-44.21-25.2
				c-12.288-3.492-34.667-0.794-40.124,4.863l5.998,7.804c-2.278-1.476-4.643-2.769-7.084-3.873
				c2.105,7.958,25.348,18.386,32.878,20.526c14.906,4.236,38.451-0.134,52.346-1.308c3.912-0.332,6.032,0.596,6.139,0.219
				C398.033,303.124,395.508,302.711,391.983,300.469z"/>
			<path style="fill:#407BFF;" d="M391.983,300.469c-11.703-7.535-30.566-21.323-44.21-25.2
				c-12.288-3.492-34.667-0.794-40.124,4.863l0.196,0.249c8.665,1.232,49.488,7.618,87.564,22.902
				c1.593,0.158,2.456,0.434,2.523,0.198C398.035,303.033,395.508,302.711,391.983,300.469z"/>
			<path style="opacity:0.6;enable-background:new    ;" d="M391.983,300.469c-11.703-7.535-30.566-21.323-44.21-25.2
				c-12.288-3.492-34.667-0.794-40.124,4.863l0.196,0.249c8.665,1.232,49.488,7.618,87.564,22.902
				c1.593,0.158,2.456,0.434,2.523,0.198C398.035,303.033,395.508,302.711,391.983,300.469z"/>
			<path style="fill:#407BFF;" d="M333,286.371c0,0,10.393,2.598,5.721,6.048l14.457-1.991
				C353.178,290.427,343.75,282.696,333,286.371z"/>
			<path style="opacity:0.4;fill:#FFFFFF;enable-background:new    ;" d="M333,286.371c0,0,10.393,2.598,5.721,6.048l14.457-1.991
				C353.178,290.427,343.75,282.696,333,286.371z"/>
			<path style="opacity:0.3;fill:#263238;enable-background:new    ;" d="M333,286.371c0,0,10.393,2.598,5.721,6.048l14.457-1.991
				C353.178,290.427,343.75,282.696,333,286.371z"/>
			<path style="fill:#407BFF;" d="M326.656,281.111c0.257,4.697-1.926,9.5-5.456,12
				C321.199,293.112,328.847,289.704,326.656,281.111z"/>
			<path style="fill:#407BFF;" d="M333.249,283.29c-0.561,5.641-3.887,10.719-8.308,12.685
				C324.94,295.974,334.181,294.077,333.249,283.29z"/>
			<g style="opacity:0.4;">
				<path style="fill:#FFFFFF;" d="M326.656,281.111c0.257,4.697-1.926,9.5-5.456,12
					C321.199,293.112,328.847,289.704,326.656,281.111z"/>
				<path style="fill:#FFFFFF;" d="M333.249,283.29c-0.561,5.641-3.887,10.719-8.308,12.685
					C324.94,295.974,334.181,294.077,333.249,283.29z"/>
			</g>
			<g style="opacity:0.3;">
				<path style="fill:#263238;" d="M326.656,281.111c0.257,4.697-1.926,9.5-5.456,12
					C321.199,293.112,328.847,289.704,326.656,281.111z"/>
				<path style="fill:#263238;" d="M333.249,283.29c-0.561,5.641-3.887,10.719-8.308,12.685
					C324.94,295.974,334.181,294.077,333.249,283.29z"/>
			</g>
			<path style="fill:#263238;" d="M319.7,282.499c-0.283,0.997-1.137,1.629-1.906,1.41c-0.769-0.219-1.163-1.204-0.879-2.202
				c0.283-0.997,1.137-1.629,1.906-1.41S319.983,281.502,319.7,282.499L319.7,282.499z"/>
			<path style="opacity:0.8;fill:#FFFFFF;enable-background:new    ;" d="M319.7,282.499c-0.283,0.997-1.137,1.629-1.906,1.41
				c-0.769-0.219-1.163-1.204-0.879-2.202c0.283-0.997,1.137-1.629,1.906-1.41S319.983,281.502,319.7,282.499L319.7,282.499z"/>
			<path style="fill:#263238;" d="M318.96,282.289c-0.133,0.468-0.533,0.764-0.893,0.661c-0.36-0.102-0.545-0.565-0.412-1.032
				c0.133-0.468,0.533-0.763,0.893-0.661l0,0C318.908,281.359,319.093,281.822,318.96,282.289z"/>
		</g>
		<g>
			<path style="fill:#FFFFFF;" d="M267.89,355.908l4.133-12.829l6.004,2.099l-3.778,13.132c0,0,6.925,4.755,2.414,7.718
				c-4.511,2.964-5.202-3.574-7.103-4.419c-2.157-1.01-9.174,3.36-9.294-2.149C260.208,353.339,267.89,355.908,267.89,355.908z"/>
			<path style="fill:#407BFF;" d="M280.937,281.701c5.837-2.566,15.224-4.525,22.802,12.007c7.578,16.532,3.757,28.71-3.619,33.844
				c-7.375,5.135-15.406,9.335-16.275,14.854c-0.869,5.52-3.592,10.648-7.08,6.603c-3.488-4.044-12.095,1.344-10.275-5.099
				c1.821-6.442,7.5-3.288,3.013-12.192C265.015,322.816,253.827,293.431,280.937,281.701z"/>
			<path style="opacity:0.2;" d="M280.937,281.701c5.837-2.566,15.224-4.525,22.802,12.007c7.578,16.532,3.757,28.71-3.619,33.844
				c-7.375,5.135-15.406,9.335-16.275,14.854c-0.869,5.52-3.592,10.648-7.08,6.603c-3.488-4.044-12.095,1.344-10.275-5.099
				c1.821-6.442,7.5-3.288,3.013-12.192C265.015,322.816,253.827,293.431,280.937,281.701z"/>
			<path style="opacity:0.5;fill:#FFFFFF;enable-background:new    ;" d="M301.169,301.471c2.186,2.448,4.802,5.968,2.687,12.874
				c-2.115,6.906-8.797,10.886-10.028,8.787c-1.231-2.099,4.265-8.846,3.496-13.625
				C296.555,304.728,298.698,298.705,301.169,301.471z"/>
		</g>
	</g>
	<g>
		<g>
			<path style="fill:#407BFF;" d="M299.545,423.383c0,0,16.727-7.152,19.319-9.842c2.443-2.535,3.054-8.522,2.281-10.373
				c-1.795-4.299-28.729-35.113-45.266-29.561c-16.537,5.552-17.025,4.986-18.477,8.801c-1.452,3.816-1.288,4.465-0.996,4.529
				C256.697,387.002,299.545,423.383,299.545,423.383z"/>
		</g>
		<g style="opacity:0.3;">
			<path style="fill:#FFFFFF;" d="M297.605,421.78c-0.077,0-0.154-0.027-0.215-0.081c-0.135-0.119-0.147-0.324-0.029-0.459
				c1.009-1.141,1.645-2.511,2.318-3.961c0.313-0.675,0.637-1.373,0.999-2.037c1.071-1.964,2.522-3.718,3.925-5.415
				c1.704-2.059,3.465-4.188,4.495-6.661c0.511-1.226,1.227-3.59,0.278-5.644c-0.794-1.72-2.585-2.811-3.863-3.481
				c-4.703-2.468-10.094-3.431-15.308-4.362l-0.971-0.174c-3.207-0.575-6.523-1.173-9.522-0.088
				c-1.846,0.666-3.562,1.977-5.099,3.894c-1.379,1.72-2.443,3.703-3.473,5.621c-0.085,0.158-0.282,0.216-0.44,0.133
				c-0.158-0.085-0.218-0.282-0.133-0.44c1.043-1.943,2.123-3.953,3.54-5.72c1.613-2.013,3.425-3.392,5.385-4.099
				c3.161-1.141,6.566-0.531,9.857,0.06l0.97,0.174c5.262,0.939,10.704,1.911,15.496,4.427c1.362,0.714,3.274,1.884,4.151,3.783
				c0.78,1.69,0.685,3.879-0.268,6.167c-1.068,2.563-2.861,4.73-4.595,6.826c-1.383,1.673-2.814,3.402-3.855,5.312
				c-0.353,0.646-0.672,1.335-0.981,2c-0.663,1.428-1.348,2.906-2.42,4.118C297.784,421.743,297.695,421.78,297.605,421.78z"/>
		</g>
		<g style="opacity:0.3;">
			<path style="fill:#FFFFFF;" d="M292.214,416.483c-0.025,0-0.05-0.003-0.075-0.009c-0.174-0.042-0.282-0.217-0.24-0.391
				c0.92-3.857,2.065-8.656,5.354-11.818c0.25-0.24,0.511-0.47,0.772-0.699c0.52-0.456,1.01-0.887,1.416-1.402
				c0.667-0.846,0.932-1.808,0.709-2.573c-0.345-1.184-1.681-1.799-3.073-2.289c-2.004-0.705-4.277-1.503-6.574-1.732
				c-2.472-0.245-4.739,0.243-6.381,1.375c-2.299,1.588-3.434,4.284-4.58,7.384c-0.062,0.169-0.249,0.256-0.417,0.192
				c-0.169-0.062-0.254-0.249-0.192-0.417c1.184-3.206,2.365-5.999,4.819-7.694c1.768-1.22,4.186-1.749,6.814-1.487
				c2.374,0.235,4.686,1.048,6.725,1.765c1.555,0.547,3.054,1.254,3.482,2.72c0.285,0.981-0.015,2.131-0.823,3.157
				c-0.443,0.561-0.979,1.032-1.498,1.487c-0.254,0.223-0.508,0.446-0.75,0.679c-3.151,3.03-4.271,7.727-5.172,11.501
				C292.495,416.383,292.361,416.483,292.214,416.483z"/>
		</g>
		<g style="opacity:0.3;">
			<path style="fill:#FFFFFF;" d="M263.627,393.199c-0.034,0-0.069-0.005-0.103-0.017c-0.17-0.057-0.262-0.241-0.206-0.411
				c0.777-2.327,1.576-4.583,2.793-6.608c1.4-2.329,3.208-4.042,5.228-4.955c2.193-0.991,4.691-1.075,6.861-1.076
				c0.019,0,0.039,0,0.058,0c9.146,0,16.576,0.984,24.088,3.19c0.173,0.05,0.271,0.231,0.22,0.403
				c-0.05,0.172-0.231,0.27-0.403,0.22c-7.449-2.187-14.825-3.163-23.905-3.163c-0.02,0-0.038,0-0.058,0
				c-2.102,0.001-4.518,0.081-6.594,1.019c-1.9,0.858-3.608,2.482-4.939,4.697c-1.184,1.969-1.968,4.188-2.733,6.479
				C263.89,393.113,263.763,393.199,263.627,393.199z"/>
		</g>
		<g style="opacity:0.3;">
			<path style="fill:#FFFFFF;" d="M290.295,376.223c-0.021,0-0.042-0.002-0.063-0.006c-5.845-1.142-11.793-1.254-17.68-0.331
				c-0.174,0.023-0.343-0.093-0.371-0.271c-0.028-0.177,0.093-0.343,0.271-0.371c5.961-0.935,11.985-0.823,17.905,0.336
				c0.176,0.034,0.291,0.205,0.256,0.38C290.583,376.116,290.446,376.223,290.295,376.223z"/>
		</g>
		<g style="opacity:0.3;">
			<path style="fill:#FFFFFF;" d="M310.488,417.95c-0.07,0-0.139-0.022-0.198-0.068c-0.142-0.11-0.168-0.314-0.058-0.455
				c0.591-0.764,1.481-1.744,2.424-2.781c1.841-2.027,3.928-4.324,4.688-5.961c0.909-1.957,1.838-4.93,1.104-7.975
				c-0.042-0.174,0.065-0.349,0.24-0.392c0.177-0.038,0.349,0.065,0.392,0.24c0.778,3.227-0.194,6.35-1.147,8.402
				c-0.801,1.727-2.924,4.063-4.797,6.124c-0.933,1.028-1.814,1.997-2.39,2.741C310.681,417.907,310.585,417.95,310.488,417.95z"/>
		</g>
		<g style="opacity:0.3;">
			<path d="M257.401,382.409c0.427-1.122,0.773-1.864,1.465-2.495c1.285,0.011,10.29,1.664,19.028,8.314
				c8.739,6.65,22.813,24.214,22.637,25.97c-0.555,5.541-0.988,9.184-0.988,9.184s-42.847-36.381-43.14-36.445
				C256.113,386.874,255.949,386.225,257.401,382.409z"/>
		</g>
		<g style="opacity:0.3;">
			<path style="fill:#FFFFFF;" d="M321.255,403.507c0.589,2.151-0.08,7.636-2.392,10.035c-2.592,2.689-19.319,9.842-19.319,9.842
				l1.118-9.41C306.722,411.884,317.045,406.051,321.255,403.507z"/>
		</g>
	</g>
	<g>
		<path style="fill:#407BFF;" d="M406.128,353.996c-4.599,2.578-15.78,5.27-20.661-3.205c-4.881-8.475,2.195-21.917,2.195-21.917
			s-2.681-7.04-0.764-7.976c1.917-0.937,2.685,5.694,2.685,5.694s1.909-5.498,4.951-4.366c2.019,0.751-4.002,6.587-4.002,6.587
			s-1.866,6.497-0.852,10.245c1.014,3.748,2.84,5.208,2.84,5.208s1.367,1.767,4.783,0.156c2.268-1.069,5.872-3.649,9.441-4.679
			c3.101-0.895,6.504,0.309,8.014,3.161c0.573,1.084,0.75,2.301,0.176,3.584C412.693,351.504,406.128,353.996,406.128,353.996z"/>
		<path style="opacity:0.7;fill:#FFFFFF;" d="M406.128,353.996c-4.599,2.578-15.78,5.27-20.661-3.205
			c-4.881-8.475,2.195-21.917,2.195-21.917s-2.681-7.04-0.764-7.976c1.917-0.937,2.685,5.694,2.685,5.694s1.909-5.498,4.951-4.366
			c2.019,0.751-4.002,6.587-4.002,6.587s-1.866,6.497-0.852,10.245c1.014,3.748,2.84,5.208,2.84,5.208s1.367,1.767,4.783,0.156
			c2.268-1.069,5.872-3.649,9.441-4.679c3.101-0.895,6.504,0.309,8.014,3.161c0.573,1.084,0.75,2.301,0.176,3.584
			C412.693,351.504,406.128,353.996,406.128,353.996z"/>
		<g>
			<path style="fill:#407BFF;" d="M389.586,333.496c0.332-2.536,0.947-4.682,0.947-4.682s6.021-5.836,4.002-6.587
				c-3.043-1.132-4.951,4.365-4.951,4.365s-0.768-6.631-2.685-5.694c-1.917,0.937,0.764,7.976,0.764,7.976s-1.078,2.053-2.102,5.055
				C386.902,333.78,388.354,333.623,389.586,333.496z"/>
			<path style="opacity:0.4;fill:#407BFF;" d="M385.467,350.79c0.615,1.069,1.332,1.959,2.122,2.695l7.075-8.385
				c-1.502-0.005-2.144-0.833-2.144-0.833s-1.459-1.173-2.493-4.1l-6.255,2.529C383.653,345.513,384.066,348.357,385.467,350.79z"/>
			<path style="opacity:0.4;fill:#407BFF;" d="M398.111,344.012c-0.441,3.291-1.141,9.052-1.559,12.523
				c3.756-0.078,7.402-1.32,9.576-2.539c0,0,0.528-0.204,1.322-0.597c-1.946-3.903-2.788-10.189-3.065-12.773
				C402.038,341.67,399.812,343.099,398.111,344.012z"/>
		</g>
	</g>
	<g>
		<path style="fill:#407BFF;" d="M390.279,273.463c3.772-3.683,13.872-9.184,20.785-2.265c6.912,6.919,3.567,21.736,3.567,21.736
			s4.415,6.103,2.807,7.505c-1.608,1.402-4.071-4.803-4.071-4.803s-0.417,5.805-3.649,5.501c-2.145-0.202,2.156-7.4,2.156-7.4
			s0.116-6.759-1.835-10.115c-1.951-3.356-4.094-4.293-4.094-4.293s-1.778-1.352-4.66,1.09c-1.913,1.621-4.724,5.048-7.904,6.968
			c-2.763,1.669-6.362,1.39-8.56-0.974c-0.835-0.898-1.321-2.028-1.1-3.415C384.584,277.572,390.279,273.463,390.279,273.463z"/>
		<path style="opacity:0.7;fill:#FFFFFF;" d="M390.279,273.463c3.772-3.683,13.872-9.184,20.785-2.265
			c6.912,6.919,3.567,21.736,3.567,21.736s4.415,6.103,2.807,7.505c-1.608,1.402-4.071-4.803-4.071-4.803s-0.417,5.805-3.649,5.501
			c-2.145-0.202,2.156-7.4,2.156-7.4s0.116-6.759-1.835-10.115c-1.951-3.356-4.094-4.293-4.094-4.293s-1.778-1.352-4.66,1.09
			c-1.913,1.621-4.724,5.048-7.904,6.968c-2.763,1.669-6.362,1.39-8.56-0.974c-0.835-0.898-1.321-2.028-1.1-3.415
			C384.584,277.572,390.279,273.463,390.279,273.463z"/>
		<g>
			<path style="fill:#407BFF;" d="M411.573,288.968c0.337,2.535,0.3,4.768,0.3,4.768s-4.3,7.198-2.156,7.4
				c3.232,0.304,3.649-5.501,3.649-5.501s2.462,6.205,4.071,4.803c1.608-1.402-2.807-7.505-2.807-7.505s0.508-2.262,0.719-5.427
				C414.091,287.997,412.73,288.526,411.573,288.968z"/>
			<path style="opacity:0.4;fill:#407BFF;" d="M411.063,271.198c-0.872-0.872-1.794-1.546-2.748-2.052l-4.658,9.934
				c1.452-0.385,2.287,0.248,2.287,0.248s1.713,0.755,3.471,3.313l5.385-4.065C414.185,275.824,413.049,273.185,411.063,271.198z"/>
			<path style="opacity:0.4;fill:#407BFF;" d="M400.611,281.025c-0.428-3.293-1.246-9.038-1.743-12.498
				c-3.607,1.049-6.806,3.195-8.589,4.937c0,0-0.457,0.334-1.122,0.92c2.892,3.265,5.336,9.117,6.274,11.541
				C397.426,284.305,399.205,282.348,400.611,281.025z"/>
		</g>
	</g>
</g>
<g id="Grains_00000098924508487140320760000017752403546768768690_">
	<g>
		<g>
			<path style="fill:#407BFF;" d="M271.893,125.96c0,0-6.78-46.293-8.368-48.142c-1.588-1.849-3.907-4.906-3.767-8.545
				c0.14-3.639,7.867-10.395,31.618-17.885c23.751-7.491,33.428,2.615,35.058,8.177c1.116,3.811-1.778,6.922-1.778,6.922
				s11.236,42.524,8.084,45.202C329.587,114.368,274.596,133.189,271.893,125.96z"/>
			<path style="fill:#407BFF;" d="M266.773,128.235c0,0-6.78-46.293-8.368-48.142c-1.588-1.849-3.907-4.906-3.767-8.544
				c0.14-3.639,7.867-10.395,31.618-17.886c23.751-7.491,33.764,2.998,34.625,6.99c0.76,3.521-1.345,8.109-1.345,8.109
				s11.236,42.524,8.084,45.202C324.467,116.643,269.476,135.465,266.773,128.235z"/>
			<path style="opacity:0.5;fill:#FFFFFF;enable-background:new    ;" d="M266.773,128.235c0,0-6.78-46.293-8.368-48.142
				c-1.588-1.849-3.907-4.906-3.767-8.544c0.14-3.639,7.867-10.395,31.618-17.886c23.751-7.491,33.764,2.998,34.625,6.99
				c0.76,3.521-1.345,8.109-1.345,8.109s11.236,42.524,8.084,45.202C324.467,116.643,269.476,135.465,266.773,128.235z"/>
			<path style="opacity:0.4;" d="M321.537,102.344c0.524,1.178-0.007,2.558-1.185,3.082c-1.178,0.524-2.558-0.007-3.082-1.185
				c-0.524-1.178,0.007-2.558,1.185-3.082C319.634,100.635,321.014,101.166,321.537,102.344z"/>
			<path style="opacity:0.4;" d="M265.919,74.979c0.524,1.178-0.007,2.558-1.185,3.082c-1.178,0.524-2.558-0.007-3.082-1.185
				c-0.524-1.179,0.007-2.558,1.185-3.082C264.016,73.27,265.396,73.8,265.919,74.979z"/>
			<path style="opacity:0.4;" d="M315.866,108.894c0.262,0.589-0.004,1.279-0.593,1.541c-0.589,0.262-1.279-0.003-1.541-0.593
				c-0.262-0.589,0.004-1.279,0.593-1.541C314.914,108.04,315.604,108.305,315.866,108.894z"/>
			<path style="opacity:0.4;" d="M260.419,74.892c0.105,0.237-0.001,0.514-0.238,0.619c-0.237,0.105-0.514-0.001-0.619-0.238
				c-0.105-0.237,0.001-0.514,0.238-0.619C260.037,74.549,260.314,74.655,260.419,74.892z"/>
			<path style="opacity:0.4;" d="M264.371,80.553c0.2,0.449-0.003,0.976-0.452,1.175c-0.449,0.2-0.975-0.003-1.175-0.452
				c-0.2-0.449,0.003-0.975,0.452-1.175C263.645,79.902,264.171,80.104,264.371,80.553z"/>
			<path style="opacity:0.3;enable-background:new    ;" d="M336.244,73.592c-24.746-2.801-32.873-0.64-34.479,2.629
				c-1.606,3.268-0.729,7.004-0.028,9.338c0.531,1.77-6.587,28.096-10.061,40.727c6.213-1.37,35.141-10.357,57.628-17.185
				c3.235-2.578,12.896-9.068,12.896-9.068s3.788-3.337,4.523-6.863C367.558,89.171,360.99,76.393,336.244,73.592z"/>
		</g>
		<g>
			<path style="fill:#407BFF;" d="M413.049,237.48c-0.906,18.597-31.844,10.822-70.562,8.881
				c-38.718-1.941-70.294,2.755-69.369-15.838c0.925-18.593,32.839-28.846,71.484-26.938
				C383.247,205.492,413.977,218.868,413.049,237.48z"/>
			<path style="opacity:0.4;fill:#FFFFFF;enable-background:new    ;" d="M413.049,237.48c-0.906,18.597-31.844,10.822-70.562,8.881
				c-38.718-1.941-70.294,2.755-69.369-15.838c0.925-18.593,32.839-28.846,71.484-26.938
				C383.247,205.492,413.977,218.868,413.049,237.48z"/>
			<path style="opacity:0.3;fill:#FFFFFF;enable-background:new    ;" d="M344.602,203.585c-36.578-1.813-67.118,7.27-71.054,24.041
				c0.448,3.084,1.855,6.449,5.732,7.165c7.534,1.429,24.85-3.688,32.189,1.597c7.339,5.285,30.926-2.317,38.321,2.045
				c7.395,4.362,36.144,0.122,43.908,1.595c7.764,1.473,18.856,6.555,19.362-2.604C413.977,218.868,383.244,205.511,344.602,203.585
				z"/>
			<g style="opacity:0.2;">
				<path d="M355.675,204.473c-1.946-0.21-4.053-0.411-6.11-0.563c-6.782,5.705-18.053,15.702-15.388,16.942
					C336.842,222.093,348.237,211.543,355.675,204.473z"/>
				<path d="M320.848,204.005c-2.527,0.236-4.985,0.524-7.393,0.862c-6.414,5.337-19.828,16.895-16.952,18.274
					C299.38,224.521,314.027,210.755,320.848,204.005z"/>
				<path d="M380.76,209.39c-6.694,5.761-15.161,13.649-12.738,14.803c2.423,1.155,10.835-6.445,17.975-13.095
					C384.288,210.549,382.542,209.979,380.76,209.39z"/>
			</g>
		</g>
		<g>
			<path style="fill:#407BFF;" d="M302.13,132.949c0,0,12.606-45.056,11.906-47.391c-0.7-2.334-1.578-6.07,0.028-9.338
				c1.606-3.268,11.411-6.303,36.157-3.502c24.746,2.801,29.485,15.967,28.714,21.711c-0.527,3.936-4.435,5.603-4.435,5.603
				s-7.004,43.422-10.972,44.589C359.56,145.789,301.664,140.653,302.13,132.949z"/>
			<path style="fill:#407BFF;" d="M296.528,132.949c0,0,12.607-45.056,11.906-47.391c-0.7-2.334-1.578-6.07,0.028-9.338
				s11.411-6.303,36.157-3.502c24.746,2.801,29.636,16.453,28.802,20.451c-0.736,3.526-4.523,6.863-4.523,6.863
				s-7.004,43.422-10.972,44.589C353.957,145.789,296.061,140.653,296.528,132.949z"/>
			<path style="opacity:0.5;fill:#FFFFFF;enable-background:new    ;" d="M296.528,132.949c0,0,12.607-45.056,11.906-47.391
				c-0.7-2.334-1.578-6.07,0.028-9.338s11.411-6.303,36.157-3.502c24.746,2.801,29.636,16.453,28.802,20.451
				c-0.736,3.526-4.523,6.863-4.523,6.863s-7.004,43.422-10.972,44.589C353.957,145.789,296.061,140.653,296.528,132.949z"/>
			<path style="opacity:0.4;" d="M357.087,131.533c0,1.29-1.046,2.335-2.335,2.335c-1.289,0-2.335-1.046-2.335-2.335
				c0-1.29,1.046-2.335,2.335-2.335C356.042,129.198,357.087,130.243,357.087,131.533z"/>
			<path style="opacity:0.4;" d="M317.378,83.936c0,1.29-1.046,2.335-2.335,2.335c-1.29,0-2.335-1.045-2.335-2.335
				c0-1.29,1.046-2.335,2.335-2.335C316.332,81.601,317.378,82.647,317.378,83.936z"/>
			<path style="opacity:0.4;" d="M349.244,135.215c0,0.645-0.523,1.167-1.168,1.167c-0.645,0-1.167-0.523-1.167-1.167
				s0.523-1.167,1.167-1.167C348.721,134.047,349.244,134.57,349.244,135.215z"/>
			<path style="opacity:0.4;" d="M312.387,81.623c0,0.259-0.21,0.469-0.469,0.469c-0.259,0-0.469-0.21-0.469-0.469
				c0-0.259,0.21-0.469,0.469-0.469C312.177,81.154,312.387,81.364,312.387,81.623z"/>
			<path style="opacity:0.4;" d="M313.699,88.401c0,0.492-0.399,0.89-0.89,0.89c-0.492,0-0.89-0.399-0.89-0.89
				c0-0.492,0.399-0.89,0.89-0.89C313.3,87.511,313.699,87.91,313.699,88.401z"/>
		</g>
		<g>
			<path style="fill:#263238;" d="M345.993,126.215c-3.653,1.096-16.41,8.019-19.74,10.682c-3.33,2.663-10.917,10.403-13.898,16.193
				c-2.981,5.789-4.242,11.199-3.749,19.765c0.067,1.154,3.56,15.974,11.622,19.385c8.061,3.412,15.038,2.617,21.99-0.536
				c6.953-3.153,9.957-6.584,14.513-18.194c4.556-11.61,1.814-18.249,3.408-26.655c1.594-8.406,1.007-12.754-0.748-15.911
				C357.637,127.786,351.431,124.583,345.993,126.215z"/>
			<path style="opacity:0.3;fill:#FFFFFF;" d="M345.993,126.215c-3.653,1.096-16.41,8.019-19.74,10.682
				c-3.33,2.663-10.917,10.403-13.898,16.193c-2.981,5.789-4.242,11.199-3.749,19.765c0.067,1.154,3.56,15.974,11.622,19.385
				c8.061,3.412,15.038,2.617,21.99-0.536c6.953-3.153,9.957-6.584,14.513-18.194c4.556-11.61,1.814-18.249,3.408-26.655
				c1.594-8.406,1.007-12.754-0.748-15.911C357.637,127.786,351.431,124.583,345.993,126.215z"/>
			<path style="opacity:0.1;fill:#FFFFFF;" d="M313.642,177.424c0,0-3.97-8.604-1.728-17.952
				c2.241-9.347,13.504-17.972,14.518-18.806c1.014-0.834,10.972-7.33,10.972-7.33s7.452-3.206,7.657-2.483
				c0.205,0.723-7.276,7.689-8.58,9.152c-1.304,1.464-6.732,4.819-9.322,8.552c-2.59,3.733-7.118,5.954-7.616,12.191
				c-0.498,6.236-2.839,17.599,1.827,21.906C326.035,186.961,317.609,191.694,313.642,177.424z"/>
			<path style="opacity:0.2;" d="M359.392,130.943c-1.233-2.218-4.665-4.452-8.482-5.022c2.301,1.429,5.02,3.311,6.75,5.501
				c1.451,1.838-1.014,10.647-1.142,11.324c-0.128,0.677-0.603,8.394,0.043,9.919c0.646,1.525-1.607,9.419-1.4,12.029
				c0.206,2.61-2.389,8.896-3.665,11.927c-1.276,3.03-2.735,5.792-6.835,10.157c-2.818,3-10.146,5.917-14.95,7.657
				c4.321,0.153,8.421-0.876,12.51-2.73c6.953-3.153,9.957-6.584,14.513-18.194c4.556-11.61,1.814-18.249,3.408-26.655
				C361.734,138.448,361.147,134.1,359.392,130.943z"/>
			<path style="opacity:0.2;" d="M352.938,151.567c0.66,0.125,1.04,1.039,0.85,2.041c-0.19,1.002-0.879,1.714-1.538,1.589
				c-0.66-0.125-1.04-1.039-0.85-2.041C351.59,152.153,352.279,151.442,352.938,151.567z"/>
			<path style="opacity:0.2;" d="M350.114,149.583c0.33,0.063,0.52,0.52,0.425,1.021c-0.095,0.501-0.439,0.857-0.769,0.794
				c-0.33-0.063-0.52-0.52-0.425-1.021C349.44,149.876,349.784,149.52,350.114,149.583z"/>
			<path style="opacity:0.2;" d="M343.459,191.117c0,0-8.064-11.85-7.166-21.559c0.898-9.709,5.371-21.028,23.847-22.704
				c0,0,2.079,1.53-0.665,14.092C356.732,173.509,348.647,187.216,343.459,191.117z"/>
		</g>
		<g>
			<path style="fill:#263238;" d="M410.425,176.467c-1.757-3.385-10.936-14.628-14.173-17.403
				c-3.237-2.775-12.255-8.787-18.499-10.637c-6.243-1.85-11.793-2.081-20.118,0c-1.122,0.28-15.03,6.475-16.88,15.03
				c-1.85,8.556,0.231,15.262,4.625,21.505s8.324,8.556,20.58,10.868c12.255,2.312,18.268-1.618,26.823-1.618
				c8.556,0,12.718-1.387,15.493-3.7C411.051,188.199,413.042,181.505,410.425,176.467z"/>
			<path style="opacity:0.3;fill:#FFFFFF;" d="M410.425,176.467c-1.757-3.385-10.936-14.628-14.173-17.403
				c-3.237-2.775-12.255-8.787-18.499-10.637c-6.243-1.85-11.793-2.081-20.118,0c-1.122,0.28-15.03,6.475-16.88,15.03
				c-1.85,8.556,0.231,15.262,4.625,21.505s8.324,8.556,20.58,10.868c12.255,2.312,18.268-1.618,26.823-1.618
				c8.556,0,12.718-1.387,15.493-3.7C411.051,188.199,413.042,181.505,410.425,176.467z"/>
			<path style="opacity:0.1;fill:#FFFFFF;" d="M354.085,154.225c0,0,7.714-5.503,17.315-5.043s20.173,9.918,21.182,10.759
				c1.009,0.841,9.246,9.414,9.246,9.414s4.539,6.724,3.867,7.061c-0.672,0.336-8.91-5.716-10.591-6.724
				c-1.681-1.009-5.989-5.716-10.139-7.565c-4.15-1.849-7.176-5.884-13.396-5.211c-6.22,0.672-17.82,0.49-21.182,5.877
				C347.024,168.178,340.804,160.781,354.085,154.225z"/>
			<path style="opacity:0.2;" d="M408.276,190.512c1.95-1.625,3.505-5.413,3.354-9.27c-0.975,2.526-2.317,5.549-4.147,7.657
				c-1.535,1.768-10.649,0.988-11.338,0.988c-0.689,0-8.359,0.972-9.737,1.89c-1.378,0.919-9.553,0.177-12.079,0.866
				c-2.526,0.689-9.186-0.689-12.401-1.378c-3.215-0.689-6.2-1.607-11.253-4.822c-3.472-2.21-7.703-8.866-10.309-13.261
				c0.655,4.274,2.43,8.11,5.014,11.782c4.393,6.243,8.324,8.556,20.58,10.868c12.255,2.312,18.268-1.618,26.823-1.618
				C401.339,194.212,405.502,192.824,408.276,190.512z"/>
			<path style="opacity:0.2;" d="M386.812,188.014c0,0.671-0.827,1.215-1.847,1.215c-1.02,0-1.847-0.544-1.847-1.215
				c0-0.671,0.827-1.215,1.847-1.215C385.985,186.799,386.812,187.343,386.812,188.014z"/>
			<path style="opacity:0.2;" d="M388.235,184.869c0,0.336-0.414,0.608-0.924,0.608c-0.51,0-0.924-0.272-0.924-0.608
				s0.414-0.608,0.924-0.608C387.821,184.262,388.235,184.534,388.235,184.869z"/>
		</g>
		<g>
			<g>
				<path style="fill:#263238;" d="M266.894,229.757c9.251-24.475,22.528-47.307,39.221-67.455c0.425-0.513-0.397-1.14-0.821-0.628
					c-16.748,20.213-30.078,43.141-39.359,67.695C265.701,229.99,266.658,230.382,266.894,229.757L266.894,229.757z"/>
			</g>
			<path style="fill:#263238;" d="M273.373,212.199c0,0-10.487-5.534-2.316-21.107C271.057,191.092,281.204,200.611,273.373,212.199
				z"/>
			<path style="fill:#263238;" d="M274.481,212.186c0,0,2.205-11.65,19.493-8.421C293.973,203.765,287.859,216.264,274.481,212.186z
				"/>
			<path style="fill:#263238;" d="M279.11,201.299c0,0-10.232-5.992-1.382-21.189C277.729,180.11,287.446,190.068,279.11,201.299z"
				/>
			<path style="fill:#263238;" d="M278.88,201.161c0,0,3.615-11.293,20.377-5.972C299.257,195.189,291.659,206.845,278.88,201.161z"
				/>
			<path style="fill:#263238;" d="M285.258,190.958c0,0-9.842-6.613-0.068-21.234C285.19,169.724,294.273,180.265,285.258,190.958z"
				/>
			<path style="fill:#263238;" d="M284.745,190.531c0,0,3.934-11.186,20.539-5.391C305.284,185.141,297.357,196.576,284.745,190.531
				z"/>
			<path style="fill:#263238;" d="M292.818,181.118c0,0-10.419-5.66-2.062-21.134C290.756,159.984,300.789,169.625,292.818,181.118z
				"/>
			<path style="fill:#263238;" d="M290.653,182.008c0,0,2.037-11.681,19.37-8.701C310.023,173.307,304.089,185.892,290.653,182.008z
				"/>
			<path style="fill:#263238;" d="M299.053,171.155c0,0-9.597-6.963,0.696-21.223C299.749,149.932,308.446,160.793,299.053,171.155z
				"/>
			<path style="fill:#263238;" d="M298.567,171.766c0,0,1.854-11.711,19.231-9.002C317.798,162.763,312.062,175.439,298.567,171.766
				z"/>
			<path style="fill:#263238;" d="M304.582,165.58c0,0-6.494-9.92,8.197-19.588C312.779,145.991,317.046,159.235,304.582,165.58z"/>
		</g>
		<g>
			<g>
				<path style="fill:#263238;" d="M262.072,203.784c0.94-24.488,5.943-48.714,14.779-71.571c0.225-0.581-0.691-0.894-0.916-0.314
					c-8.865,22.932-13.887,47.258-14.829,71.826C261.082,204.346,262.048,204.409,262.072,203.784L262.072,203.784z"/>
			</g>
			<g style="opacity:0.3;">
				<path style="fill:#FFFFFF;" d="M262.072,203.784c0.94-24.488,5.943-48.714,14.779-71.571c0.225-0.581-0.691-0.894-0.916-0.314
					c-8.865,22.932-13.887,47.258-14.829,71.826C261.082,204.346,262.048,204.409,262.072,203.784L262.072,203.784z"/>
			</g>
			<path style="fill:#263238;" d="M262.606,186.263c0,0-10.959-1.797-8.333-18.058C254.273,168.206,266.116,173.643,262.606,186.263
				z"/>
			<path style="fill:#263238;" d="M263.586,185.923c0,0-1.506-11.003,14.809-13.275
				C278.395,172.648,276.681,185.566,263.586,185.923z"/>
			<path style="fill:#263238;" d="M264.461,174.876c0,0-10.869-2.279-7.527-18.408C256.934,156.468,268.525,162.424,264.461,174.876
				z"/>
			<path style="opacity:0.3;fill:#FFFFFF;" d="M264.461,174.876c0,0-10.869-2.279-7.527-18.408
				C256.934,156.468,268.525,162.424,264.461,174.876z"/>
			<path style="fill:#263238;" d="M264.215,174.822c0,0-0.147-11.104,16.322-11.363C280.538,163.46,277.255,176.071,264.215,174.822
				z"/>
			<path style="opacity:0.3;fill:#FFFFFF;" d="M264.215,174.822c0,0-0.147-11.104,16.322-11.363
				C280.538,163.46,277.255,176.071,264.215,174.822z"/>
			<path style="fill:#263238;" d="M266.847,163.864c0,0-10.707-2.947-6.374-18.839C260.473,145.026,271.673,151.687,266.847,163.864
				z"/>
			<path style="opacity:0.3;fill:#FFFFFF;" d="M266.847,163.864c0,0-10.707-2.947-6.374-18.839
				C260.473,145.026,271.673,151.687,266.847,163.864z"/>
			<path style="fill:#263238;" d="M266.264,163.638c0,0,0.168-11.104,16.638-10.894
				C282.903,152.744,279.263,165.257,266.264,163.638z"/>
			<path style="opacity:0.3;fill:#FFFFFF;" d="M266.264,163.638c0,0,0.168-11.104,16.638-10.894
				C282.903,152.744,279.263,165.257,266.264,163.638z"/>
			<path style="fill:#263238;" d="M270.635,152.877c0,0-10.936-1.929-8.115-18.157C262.521,134.72,274.297,140.3,270.635,152.877z"
				/>
			<path style="opacity:0.3;fill:#FFFFFF;" d="M270.635,152.877c0,0-10.936-1.929-8.115-18.157
				C262.521,134.72,274.297,140.3,270.635,152.877z"/>
			<path style="fill:#263238;" d="M268.977,154.311c0,0-1.664-10.98,14.616-13.487C283.593,140.824,282.065,153.766,268.977,154.311
				z"/>
			<path style="fill:#263238;" d="M273.211,142.175c0,0-10.594-3.33-5.692-19.056C267.519,123.119,278.472,130.179,273.211,142.175z
				"/>
			<path style="opacity:0.3;fill:#FFFFFF;" d="M273.211,142.175c0,0-10.594-3.33-5.692-19.056
				C267.519,123.119,278.472,130.179,273.211,142.175z"/>
			<path style="fill:#263238;" d="M272.96,142.862c0,0-1.835-10.952,14.404-13.713C287.364,129.148,286.038,142.112,272.96,142.862z
				"/>
			<path style="opacity:0.3;fill:#FFFFFF;" d="M272.96,142.862c0,0-1.835-10.952,14.404-13.713
				C287.364,129.148,286.038,142.112,272.96,142.862z"/>
			<path style="fill:#263238;" d="M276.464,135.579c0,0-8.717-6.88,1.456-19.834C277.919,115.745,285.647,126.238,276.464,135.579z"
				/>
			<path style="opacity:0.3;fill:#FFFFFF;" d="M262.606,186.263c0,0-10.959-1.797-8.333-18.058
				C254.273,168.206,266.116,173.643,262.606,186.263z"/>
			<path style="opacity:0.3;fill:#FFFFFF;" d="M263.586,185.923c0,0-1.506-11.003,14.809-13.275
				C278.395,172.648,276.681,185.566,263.586,185.923z"/>
			<path style="opacity:0.3;fill:#FFFFFF;" d="M276.464,135.579c0,0-8.717-6.88,1.456-19.834
				C277.919,115.745,285.647,126.238,276.464,135.579z"/>
			<path style="opacity:0.3;fill:#FFFFFF;" d="M268.977,154.311c0,0-1.664-10.98,14.616-13.487
				C283.593,140.824,282.065,153.766,268.977,154.311z"/>
		</g>
	</g>
</g>
<g id="Vegetables">
	<g>
		<g id="freepik--Tomato--inject-2">
			<path style="fill:#407BFF;" d="M147.318,117.006c-1.734-0.002-3.465,0.147-5.174,0.446c-3.232,0.554-6.534,0.554-9.766,0
				c-1.713-0.299-3.448-0.448-5.187-0.446c-16.506,0-29.906,12.913-29.906,28.866c0,15.953,13.399,28.866,29.906,28.866
				c1.078,0.003,2.156-0.055,3.228-0.175c4.548-0.486,9.135-0.486,13.683,0c1.067,0.12,2.141,0.178,3.215,0.175
				c16.52,0,29.906-12.927,29.906-28.866C177.223,129.933,163.837,117.006,147.318,117.006z"/>
			<path style="opacity:0.1;enable-background:new    ;" d="M147.318,117.006c-1.734-0.002-3.465,0.147-5.174,0.446
				c-3.232,0.554-6.534,0.554-9.766,0c-1.713-0.299-3.448-0.448-5.187-0.446c-16.506,0-29.906,12.913-29.906,28.866
				c0,15.953,13.399,28.866,29.906,28.866c1.078,0.003,2.156-0.055,3.228-0.175c4.548-0.486,9.135-0.486,13.683,0
				c1.067,0.12,2.141,0.178,3.215,0.175c16.52,0,29.906-12.927,29.906-28.866C177.223,129.933,163.837,117.006,147.318,117.006z"/>
			<path style="opacity:0.2;fill:#FFFFFF;enable-background:new    ;" d="M107.484,132.621c2.242-4.322,5.403-7.78,8.267-6.619
				c1.985,0.824-0.621,4.768,1.837,5.727c2.458,0.959,4.741-3.431,7.186-3.633c2.445-0.203,1.837,5.403,5.052,5.538
				c3.215,0.135,2.702-5.146,4.755-4.957c2.283,0.216,1.526,13.251-1.229,13.345c-1.688,0-1.526-4.052-3.674-4.052
				c-3.728,0-6.281,5.525-9.644,5.525c-3.364,0-1.067-5.903-3.525-6.484c-2.459-0.581-6.43,8.78-9.793,6.484
				C103.35,141.198,105.93,135.606,107.484,132.621z"/>
			<path style="opacity:0.2;enable-background:new    ;" d="M147.318,174.737c16.52,0,29.906-12.927,29.906-28.866
				c-0.015-7.768-3.224-15.187-8.874-20.518c1.689,1.661,14.169,14.966,2.864,31.486c-12.076,17.681-24.543,11.063-39.294,13.508
				c-14.507,2.377-28.69-7.51-29.163-7.848c5.718,7.757,14.799,12.315,24.435,12.265c1.078,0.003,2.156-0.055,3.228-0.176
				c4.548-0.486,9.135-0.486,13.683,0C145.171,174.699,146.244,174.749,147.318,174.737z"/>
			<path style="fill:#263238;" d="M135.269,115.588c-4.133,0.473-8.55-9.901-12.386-9.023c0,0,5.592,4.876,6.984,9.239
				c0,0-14.993-2.526-18.654,1.864c0,0,20.545-3.134,20.261,2.324c-0.108,1.783-4.714,2.093-4.714,5.403c0,0,5.592-3.836,9.455-3.66
				c3.863,0.176,6.267,5.754,6.267,5.754c-0.564-1.996-0.564-4.109,0-6.105c1.067-3.134,13.427-4.376,17.438-0.175
				c0,0-3.701-6.983-13.643-4.836c0,0,5.619-5.619,12.427-4.404c0,0-6.997-3.755-14.926,2.702c-1.663,1.34-3.991,1.487-5.808,0.365
				l-1.243-0.757C136.728,114.277,136.187,115.48,135.269,115.588z"/>
			<path style="fill:#263238;" d="M136.12,116.587c-0.405-3.647,1.824-10.333-1.135-14.615c0,0,3.566-2.431,5.66,0.783
				c1.241,4.712,0.452,9.728-2.175,13.832C138.146,117.141,136.336,118.613,136.12,116.587z"/>
			<path style="opacity:0.2;fill:#FFFFFF;enable-background:new    ;" d="M136.12,116.587c-0.405-3.647,1.824-10.333-1.135-14.615
				c0,0,3.566-2.431,5.66,0.783c1.241,4.712,0.452,9.728-2.175,13.832C138.146,117.141,136.336,118.613,136.12,116.587z"/>
			<path style="opacity:0.4;fill:#FFFFFF;enable-background:new    ;" d="M140.645,102.755c-2.093-3.215-5.66-0.783-5.66-0.783
				S137.781,104.984,140.645,102.755z"/>
		</g>
	</g>
	<g>
		<g>
			<path style="fill:#407BFF;" d="M191.053,122.386c-7.13-1.357-13.398-6.589-16.009-13.361c-2.61-6.772-1.475-14.858,2.9-20.649
				c2.375-3.144,5.644-5.684,7.232-9.29c1.91-4.339,1.085-9.589,3.371-13.742c2.952-5.361,11.223-6.736,15.75-2.617
				c3.604,3.279,4.372,8.549,6.33,13.011c2.308,5.259,6.423,9.605,8.463,14.974c2.356,6.201,2.397,14.809-0.518,20.768
				C210.456,128.07,195.651,122.162,191.053,122.386"/>
		</g>
		<g style="opacity:0.5;enable-background:new    ;">
			<g>
				<path style="fill:#FFFFFF;" d="M191.32,119.623c0.997,0,2.16,0.16,3.481,0.34c6.179,0.842,15.515,2.122,21.296-9.694
					c2.438-4.984,2.613-12.797,0.417-18.578c-0.982-2.584-2.533-4.96-4.174-7.478c-1.508-2.312-3.067-4.703-4.236-7.368
					c-0.622-1.418-1.122-2.88-1.606-4.293c-1.046-3.06-2.035-5.949-4.055-7.786c-1.506-1.371-3.81-1.955-6.158-1.566
					c-2.35,0.39-4.34,1.689-5.323,3.474c-0.968,1.759-1.261,3.964-1.571,6.3c-0.315,2.377-0.641,4.835-1.692,7.222
					c-1.212,2.752-3.133,4.846-4.992,6.871c-0.929,1.012-1.805,1.967-2.563,2.97c-3.806,5.04-4.798,12.103-2.527,17.994
					c2.238,5.808,7.586,10.329,13.677,11.592C191.302,119.623,191.311,119.623,191.32,119.623z"/>
			</g>
		</g>
		<circle style="fill:#407BFF;" cx="197.235" cy="101.791" r="15.168"/>
		<circle style="opacity:0.2;enable-background:new    ;" cx="197.235" cy="101.791" r="15.168"/>
		<g style="opacity:0.2;enable-background:new    ;">
			<path style="fill:#FFFFFF;" d="M201.898,91.084c-0.32-0.95-1.146-1.672-2.076-2.045c-0.93-0.373-1.958-0.435-2.959-0.378
				c-3.597,0.202-7.084,1.93-9.424,4.67c-2.006,2.348-3.145,5.412-3.201,8.497c-0.021,1.186,0.587,2.365,1.671,2.847
				c1.694,0.754,2.775-0.883,3.457-1.729c0.877-1.088,1.3-2.494,2.218-3.547c2.154-2.473,6.182-2.209,8.758-4.237
				C201.56,94.201,202.393,92.554,201.898,91.084z"/>
		</g>
	</g>
	<g>
		<path style="fill:#407BFF;" d="M228.299,126.525c2.507-3.777,5.503-6.654,7.412-10.139c1.909-3.485,4.673-8.596,4.673-8.596
			c0.384-0.526,0.321-1.255-0.148-1.707c-0.48-0.41-1.003,0.295-1.276,0.865c-3.275,7.057-7.83,13.446-13.435,18.841
			C226.51,125.799,228.055,125.62,228.299,126.525z"/>
		<path style="opacity:0.1;enable-background:new    ;" d="M228.299,126.525c2.507-3.777,5.503-6.654,7.412-10.139
			c1.909-3.485,4.673-8.596,4.673-8.596c0.384-0.526,0.321-1.255-0.148-1.707c-0.48-0.41-1.003,0.295-1.276,0.865
			c-3.275,7.057-7.83,13.446-13.435,18.841C226.51,125.799,228.055,125.62,228.299,126.525z"/>
		<path style="fill:#407BFF;" d="M230.775,128.643c3.502-2.873,7.195-4.779,9.999-7.525c2.804-2.746,6.994-6.799,6.994-6.799
			c0.529-0.398,0.682-1.126,0.358-1.703c-0.33-0.523-1.054,0.01-1.479,0.476c-5.186,5.797-11.397,10.585-18.323,14.124
			C229.305,127.385,230.856,127.64,230.775,128.643z"/>
		<path style="opacity:0.1;enable-background:new    ;" d="M230.775,128.643c3.502-2.873,7.195-4.779,9.999-7.525
			c2.804-2.746,6.994-6.799,6.994-6.799c0.529-0.398,0.682-1.126,0.358-1.703c-0.33-0.523-1.054,0.01-1.479,0.476
			c-5.186,5.797-11.397,10.585-18.323,14.124C229.305,127.385,230.856,127.64,230.775,128.643z"/>
		<path style="fill:#407BFF;" d="M245.102,107.537c0.176-0.331,0.127-0.736-0.123-1.016c-0.263-0.225-0.486-0.121-0.791,0.047
			l-9.119,10.662l-7.921,8.98c0.144,0.591,0.602,1.055,1.192,1.207C229.339,127.629,245.102,107.537,245.102,107.537z"/>
		<path style="opacity:0.1;fill:#FFFFFF;enable-background:new    ;" d="M245.746,108.088c0.175-0.331,0.126-0.736-0.123-1.016
			c-0.263-0.225-0.486-0.121-0.791,0.048l-9.119,10.662l-7.921,8.98c0.144,0.591,0.602,1.055,1.192,1.207
			C229.983,128.18,245.746,108.088,245.746,108.088z"/>
		<path style="fill:#407BFF;" d="M246.917,109.331c0.309-0.211,0.72-0.197,1.014,0.036c0.279,0.238,0.166,0.464,0.019,0.793
			l-9.868,9.941l-8.277,8.675c-0.594-0.092-1.086-0.512-1.269-1.085c-0.142-0.523,5.464-6.044,10.461-10.854
			C243.197,112.928,246.917,109.331,246.917,109.331z"/>
		<path style="fill:#407BFF;" d="M229.905,138.777c-4.121,4.192-7.624,7.787-10.905,11.09c-0.41,0.48-0.807,0.944-1.328,1.302
			c-7.252,7.195-13.62,13.136-23.015,20.989l-0.677,0.573c-0.909,0.75-1.816,1.528-2.767,2.296c-2.102,1.738-5.167,1.65-7.165-0.206
			l-1.222-1.046c-2.029-1.891-2.309-5.005-0.65-7.228c5.222-6.921,9.349-12.341,13.456-17.268l0,0
			c0.357-0.418,0.728-0.851,1.072-1.253c6.404-7.534,13.367-14.575,20.829-21.064c0.146-0.17,0.304-0.356,0.463-0.542
			c0.368-0.341,0.77-0.644,1.2-0.902c2.226-1.418,4.971-1.765,7.479-0.945c0.475,0.163,0.932,0.374,1.364,0.63
			c0.263,0.135,0.517,0.289,0.758,0.461c0.266,0.201,0.519,0.417,0.758,0.649l0.201,0.172c0.39,0.38,0.742,0.798,1.05,1.247
			l0.33,0.523C233.113,131.644,232.612,135.934,229.905,138.777z"/>
		<path style="opacity:0.5;fill:#FFFFFF;enable-background:new    ;" d="M229.905,138.777c-4.121,4.192-7.624,7.787-10.905,11.09
			c-0.41,0.48-0.807,0.944-1.328,1.302c-7.252,7.195-13.62,13.136-23.015,20.989l-0.677,0.573c-0.909,0.75-1.816,1.528-2.767,2.296
			c-2.102,1.738-5.167,1.65-7.165-0.206l-1.222-1.046c-2.029-1.891-2.309-5.005-0.65-7.228c5.222-6.921,9.349-12.341,13.456-17.268
			l0,0c0.357-0.418,0.728-0.851,1.072-1.253c6.404-7.534,13.367-14.575,20.829-21.064c0.146-0.17,0.304-0.356,0.463-0.542
			c0.368-0.341,0.77-0.644,1.2-0.902c2.226-1.418,4.971-1.765,7.479-0.945c0.475,0.163,0.932,0.374,1.364,0.63
			c0.263,0.135,0.517,0.289,0.758,0.461c0.266,0.201,0.519,0.417,0.758,0.649l0.201,0.172c0.39,0.38,0.742,0.798,1.05,1.247
			l0.33,0.523C233.113,131.644,232.612,135.934,229.905,138.777z"/>
		<path style="opacity:0.1;enable-background:new    ;" d="M219.323,125.493c2.323,2.609,4.288,5.515,5.844,8.643
			c-1.85-3.043-4.465-5.548-7.586-7.265c0.146-0.17,0.304-0.356,0.463-0.542C218.44,126.006,218.868,125.726,219.323,125.493z"/>
		<path style="opacity:0.1;enable-background:new    ;" d="M202.884,153.955c-2.014-2.097-4.469-3.721-7.188-4.754
			c0.357-0.418,0.728-0.851,1.072-1.253C199.022,149.719,201.073,151.733,202.884,153.955z"/>
	</g>
	<g id="freepik--Pepper--inject-2">
		<path style="fill:#407BFF;" d="M233.786,211.926c-0.519-5.654-4.022-10.598-9.184-12.962c-2.46-1.194-5.184-1.738-7.914-1.581
			c-1.61-2.209-3.759-3.969-6.241-5.113c-4.15-2.06-9.001-2.174-13.243-0.309c-1.228-1.11-2.614-2.03-4.113-2.73
			c-9.037-4.261-19.859-0.362-27.429,15.656c-7.569,16.018-9.116,38.155-0.058,42.444c0.988,0.461,2.064,0.706,3.154,0.72
			c0.259,6.805,2.196,12.186,6.193,14.086c2.531,1.194,5.636,0.866,8.938-0.585c0.982,3.48,2.681,6.079,5.217,7.28
			c3.459,1.606,7.878,0.446,12.495-2.51c0.808,1.248,1.937,2.255,3.269,2.914c9.051,4.294,25.195-10.891,32.786-26.925
			C244.823,227.146,241.74,216.675,233.786,211.926z"/>
		<path style="opacity:0.1;enable-background:new    ;" d="M179.289,217.162c7.096-15.009,16.01-19.211,22.98-15.916
			c1.549,0.722,2.903,1.805,3.947,3.158c-0.666-4.459-2.959-7.545-6.348-9.148c-6.983-3.296-15.884,0.907-22.993,15.915
			c-6.552,13.857-9.281,32.062-4.172,37.377C171.564,240.557,174.335,227.61,179.289,217.162z"/>
		<path style="opacity:0.1;enable-background:new    ;" d="M219.918,238.566c7.591-16.034,5.421-26.07-1.55-29.364
			c-1.551-0.746-3.267-1.084-4.986-0.981c3.985-2.552,7.898-2.847,11.274-1.234c6.983,3.296,9.141,13.33,1.55,29.364
			c-7.005,14.805-19.881,29.539-27.304,29.117C206.02,260.844,214.634,249.724,219.918,238.566z"/>
		<path style="opacity:0.1;enable-background:new    ;" d="M189.633,234.307c-5.844,13.921-5.276,21.676-1.257,23.326
			c0.947,0.385,2.001,0.42,2.971,0.098c-2.632,2.596-5.029,3.37-6.996,2.563c-4.013-1.687-4.594-9.443,1.257-23.326
			c5.401-12.857,14.378-26.468,18.885-27.159C199.808,214.483,193.704,224.61,189.633,234.307z"/>
		<path style="opacity:0.3;fill:#FFFFFF;enable-background:new    ;" d="M218.877,225.076c-1.013,3.724-3.666,6.247-5.926,5.629
			c-2.26-0.618-3.274-4.14-2.261-7.864c1.013-3.724,3.673-6.252,5.933-5.635C218.882,217.825,219.897,221.347,218.877,225.076z"/>
		<path style="opacity:0.2;fill:#FFFFFF;enable-background:new    ;" d="M212.054,237.461c-1.225,1.491-2.952,2.102-3.86,1.35
			c-0.908-0.752-0.638-2.557,0.587-4.048c1.225-1.491,2.957-2.095,3.86-1.35C213.543,234.158,213.291,235.972,212.054,237.461z"/>
		<path style="fill:#407BFF;" d="M205.011,195.737c0,0,4.513,0.155,2.558,5.814c0,0,4.864,0.983,3.364,5.536
			c0,0,11.228-1.412,11.691,2.576c2.144-1.565,5.032-1.646,7.26-0.203c0,0-3.867-8.945-13.116-8.414
			C216.79,201.03,211.281,191.221,205.011,195.737z"/>
		<path style="opacity:0.3;enable-background:new    ;" d="M205.011,195.737c0,0,4.513,0.155,2.558,5.814
			c0,0,4.864,0.983,3.364,5.536c0,0,11.228-1.412,11.691,2.576c2.144-1.565,5.032-1.646,7.26-0.203c0,0-3.867-8.945-13.116-8.414
			C216.79,201.03,211.281,191.221,205.011,195.737z"/>
		<path style="fill:#407BFF;" d="M217.063,204.547c-1.896-0.518-3.014-2.476-2.495-4.372c0.215-0.785,0.692-1.473,1.352-1.949
			c4.501-3.314,12.647-8.363,21.367-9.264c13.137-1.344,16.74,6.27,16.74,6.27s-3.245,9.65-10.793,5.084
			c0,0,1.143-10.723-21.821,4.04c-0.698,0.456-1.533,0.653-2.362,0.556C218.379,204.849,217.714,204.727,217.063,204.547z"/>
		<path style="opacity:0.2;enable-background:new    ;" d="M217.063,204.547c-1.896-0.518-3.014-2.476-2.495-4.372
			c0.215-0.785,0.692-1.473,1.352-1.949c4.501-3.314,12.647-8.363,21.367-9.264c13.137-1.344,16.74,6.27,16.74,6.27
			s-3.245,9.65-10.793,5.084c0,0,1.143-10.723-21.821,4.04c-0.698,0.456-1.533,0.653-2.362,0.556
			C218.379,204.849,217.714,204.727,217.063,204.547z"/>
		<path style="opacity:0.3;enable-background:new    ;" d="M243.256,200.345c7.548,4.567,10.793-5.084,10.793-5.084
			C247.757,192.623,243.256,200.345,243.256,200.345z"/>
	</g>
	<g id="freepik--Broccoli--inject-2">
		<path style="fill:#407BFF;" d="M144.671,199.336c0.275-4.099-2.824-7.645-6.923-7.92c-0.002,0-0.005,0-0.007-0.001
			c-0.759-0.052-1.521,0.017-2.258,0.203l0.048-0.352c0.388-5.785-3.987-10.789-9.771-11.177c-3.754-0.252-7.355,1.525-9.441,4.656
			c-1.529-1.014-3.294-1.617-5.125-1.751c-5.787-0.37-10.784,4.009-11.177,9.794c-0.077,1.336,0.104,2.674,0.534,3.941
			c-3.124,0.797-5.384,3.508-5.606,6.724c-0.153,2.288,0.765,4.517,2.484,6.034c-3.402,2.304-4.292,6.928-1.988,10.33
			c0.988,1.459,2.461,2.52,4.158,2.993c3.063,5.164,9.732,6.866,14.895,3.804c1.697-1.007,3.088-2.457,4.024-4.194
			c2.925,2.872,7.625,2.83,10.497-0.096c0.847-0.863,1.471-1.919,1.817-3.078c0.903,0.359,1.858,0.571,2.829,0.628
			c5.254,0.353,9.799-3.62,10.152-8.875c0.154-2.29-0.523-4.558-1.907-6.389C143.523,203.316,144.525,201.403,144.671,199.336z"/>
		<path style="opacity:0.1;enable-background:new    ;" d="M143.39,213.161c-0.734-12.155-13.008-10.134-13.008-10.134
			c-8.712-8.844-13.604-0.352-13.604-0.352c-9.972-2.212-7.747,8.211-7.747,8.211l-4.567,7.619l2.637,9.493
			c0.365,0.056,0.73,0.112,1.111,0.141c4.243,0.282,8.261-1.936,10.283-5.676c2.925,2.872,7.625,2.829,10.497-0.096
			c0.847-0.863,1.471-1.919,1.816-3.078c0.903,0.359,1.858,0.571,2.828,0.627C138.062,220.201,142.101,217.404,143.39,213.161z"/>
		<path style="fill:#407BFF;" d="M127.648,207.707c-0.746-5.091-5.478-8.614-10.57-7.868c-1.836,0.269-3.55,1.08-4.922,2.329
			c-4.696-4.912-12.369-5.415-17.665-1.158c-4.574-5.61-12.83-6.449-18.44-1.875c-3.569,2.91-5.348,7.479-4.689,12.036
			c0.226,1.677,0.784,3.292,1.642,4.751c-4.61,2.285-6.495,7.876-4.21,12.486c0.811,1.637,2.086,2.999,3.665,3.917
			c-3.541,3.734-3.385,9.631,0.349,13.172c2.04,1.935,4.846,2.845,7.633,2.477c1.192-0.177,2.34-0.576,3.384-1.176
			c5.52,5.109,14.137,4.776,19.246-0.745c1.855-2.004,3.064-4.519,3.471-7.218l0.575-0.053c3.627-0.529,6.608-3.136,7.614-6.661
			c0.271-0.001,0.543-0.02,0.812-0.056c5.086-0.729,8.621-5.438,7.903-10.525c-0.201-1.411-0.728-2.755-1.538-3.928
			C125.864,216.012,128.228,211.932,127.648,207.707z"/>
		<path style="opacity:0.2;fill:#FFFFFF;enable-background:new    ;" d="M127.648,207.707c-0.746-5.091-5.478-8.614-10.57-7.868
			c-1.836,0.269-3.55,1.08-4.922,2.329c-4.696-4.912-12.369-5.415-17.665-1.158c-4.574-5.61-12.83-6.449-18.44-1.875
			c-3.569,2.91-5.348,7.479-4.689,12.036c0.226,1.677,0.784,3.292,1.642,4.751c-4.61,2.285-6.495,7.876-4.21,12.486
			c0.811,1.637,2.086,2.999,3.665,3.917c-3.541,3.734-3.385,9.631,0.349,13.172c2.04,1.935,4.846,2.845,7.633,2.477
			c1.192-0.177,2.34-0.576,3.384-1.176c5.52,5.109,14.137,4.776,19.246-0.745c1.855-2.004,3.064-4.519,3.471-7.218l0.575-0.053
			c3.627-0.529,6.608-3.136,7.614-6.661c0.271-0.001,0.543-0.02,0.812-0.056c5.086-0.729,8.621-5.438,7.903-10.525
			c-0.201-1.411-0.728-2.755-1.538-3.928C125.864,216.012,128.228,211.932,127.648,207.707z"/>
		<path style="opacity:0.1;enable-background:new    ;" d="M111.362,212.192c0,0-6.878-4.866-12.232-0.888
			c-7.186,5.342-2.106,17.586-2.106,17.586s-12.222,5.075-11.391,12.78c0.831,7.704,9.322,8.612,9.322,8.612
			c5.956-0.85,10.651-5.503,11.554-11.451l0.575-0.054c3.628-0.529,6.608-3.136,7.614-6.661c0.272-0.002,0.543-0.02,0.812-0.056
			c5.086-0.729,8.621-5.438,7.903-10.525c-0.201-1.411-0.728-2.756-1.538-3.928c3.961-1.603,6.324-5.694,5.733-9.925
			C121.628,195.551,111.362,212.192,111.362,212.192z"/>
		<path style="fill:#407BFF;" d="M89.628,243.341c0,0,22.853-0.277,39.065,34.139c0,0,20.156,8.118,25.907-17.059
			c0,0-28.518-22.257-16.707-52.891c-1.924-1.551-4.553-1.898-6.813-0.898c0,0,0.451,18.123-4.198,19.898
			c-4.649,1.775-3.894-17.001-3.894-17.001s-6.845-0.482-8.87,3.228c0,0,5.371,12.545,0.743,16.307
			c-4.627,3.762-12.267-7.354-12.267-7.354c-2.775,1.035-4.737,3.537-5.079,6.479c0,0,11.007,7.794,9.083,10.008
			c-1.925,2.214-14.212-2.962-14.212-2.962S88.861,237.341,89.628,243.341z"/>
		<path style="opacity:0.5;fill:#FFFFFF;enable-background:new    ;" d="M89.628,243.341c0,0,22.853-0.277,39.065,34.139
			c0,0,20.156,8.118,25.907-17.059c0,0-28.518-22.257-16.707-52.891c-1.924-1.551-4.553-1.898-6.813-0.898
			c0,0,0.451,18.123-4.198,19.898c-4.649,1.775-3.894-17.001-3.894-17.001s-6.845-0.482-8.87,3.228c0,0,5.371,12.545,0.743,16.307
			c-4.627,3.762-12.267-7.354-12.267-7.354c-2.775,1.035-4.737,3.537-5.079,6.479c0,0,11.007,7.794,9.083,10.008
			c-1.925,2.214-14.212-2.962-14.212-2.962S88.861,237.341,89.628,243.341z"/>
		<path style="opacity:0.3;fill:#FFFFFF;enable-background:new    ;" d="M154.563,260.453
			c-23.978-2.679-25.907,17.059-25.907,17.059S148.849,285.599,154.563,260.453z"/>
		<path style="opacity:0.1;enable-background:new    ;" d="M131.154,261.9c0,0-10.804-20.364-19.015-22.644
			C103.927,236.977,122.545,249.985,131.154,261.9z"/>
		<path style="opacity:0.1;enable-background:new    ;" d="M133.827,251.914c0,0-10.868-19.805-7.174-21.556
			C130.346,228.607,128.546,237.559,133.827,251.914z"/>
		<path style="opacity:0.1;enable-background:new    ;" d="M123.515,243.958c0,0-9.048-10.73-6.897-12.083
			C118.769,230.521,123.515,243.958,123.515,243.958z"/>
		<path style="opacity:0.1;enable-background:new    ;" d="M137.152,257.421c-6.479-5.079-1.168,9.892-7.396,6.81
			c-3.631-1.796-4.46,2.758-4.453,6.763c1.149,2.01,2.286,4.159,3.363,6.47c0,0,20.155,8.118,25.907-17.059
			c0,0-16.522-12.911-19.2-32.604l0,0C135.029,240.848,143.631,262.5,137.152,257.421z"/>
	</g>
</g>
</svg>
