<?xml version="1.0" encoding="utf-8"?>
<!-- Generator: Adobe Illustrator 27.5.0, SVG Export Plug-In . SVG Version: 6.00 Build 0)  -->
<svg version="1.1" xmlns="http://www.w3.org/2000/svg" xmlns:xlink="http://www.w3.org/1999/xlink" x="0px" y="0px"
	 viewBox="0 0 750 500" style="enable-background:new 0 0 750 500;" xml:space="preserve">
<g id="BACKGROUND">
</g>
<g id="OBJECTS">
	<g style="opacity:0.5;">
		<path style="fill:#E1EFFF;" d="M405.522,400.711c-18.722-10.556-42.38-9.195-63.54-4.268
			c-21.161,4.928-41.602,13.08-63.278,15.202c-21.837,2.138-43.853-1.976-64.899-7.888c-24.694-6.937-49.006-16.614-68.699-32.33
			c-31.774-25.356-48.659-64.579-52.577-103.742c-3.919-39.162,3.962-78.555,14.83-116.523
			c4.719-16.483,10.176-33.155,20.681-47.039c20.626-27.262,57.134-39.293,92.112-44.606c40.359-6.131,81.868-5.417,121.964,2.098
			c59.53,11.157,118.638,37.255,178.326,26.878c13.602-2.365,26.993-6.623,40.823-6.527c11.831,0.082,23.463,3.393,34.057,8.378
			c39.052,18.374,63.177,59.956,63.171,101.235c-0.006,41.278-22.264,81.109-55.342,108.009c-11.449,9.31-24.315,17.399-33.268,28.9
			c-7.698,9.888-12.034,21.716-18.419,32.409c-16.287,27.275-45.969,46.264-78.112,53.743
			C441.208,422.119,432.007,414.003,405.522,400.711"/>
	</g>
	<g>
		<path style="fill:#FCC7C0;" d="M308.154,201.921c-1.066-0.711-10.422-11.488-11.251-14.686
			c-0.829-3.198,9.238-17.409,12.08-15.041c2.842,2.369,3.435,9.827,3.435,9.827s9.001,3.911,7.343,12.438
			C318.103,202.987,308.154,201.921,308.154,201.921z"/>
		<path style="fill:#FCC7C0;" d="M419.998,251.553c1.04,0.748,10.003,11.854,10.717,15.079c0.714,3.225-9.856,17.067-12.612,14.598
			c-2.755-2.469-3.08-9.944-3.08-9.944s-8.855-4.232-6.892-12.694C410.094,250.131,419.998,251.553,419.998,251.553z"/>
		<g>
			<g>
				<g>
					<path style="fill:#506789;" d="M401.434,195.166c2.412,12.059,5.283,24.263,8.546,37.797c1.091,4.525-1.574,9.102-6.046,10.393
						l0,0c-4.744,1.369-9.676-1.481-10.858-6.276l-9.488-38.169c-1.125-5.129,2.304-10.146,7.492-10.96h0
						C395.909,187.192,400.476,190.373,401.434,195.166z"/>
					<g>
						<path style="fill:#506789;" d="M400.775,217.079l24.524,39.842l-14.663,9.572l-25.027-40.76
							c-2.532-4.345-0.88-9.924,3.609-12.19l0,0C393.397,211.434,398.494,212.992,400.775,217.079z"/>
					</g>
				</g>
				<g>
					<polygon style="fill:#506789;" points="378.96,180.39 370.168,180.516 361.61,180.39 344.68,188.134 346.772,255.787 
						370.168,255.787 393.797,255.787 394.036,187.956 					"/>
				</g>
				<g>
					<g>
						<path style="fill:#506789;" d="M338.044,195.166c-2.412,12.059-5.518,26.855-8.78,40.389
							c-1.091,4.525,1.574,9.102,6.046,10.393l0,0c4.745,1.369,9.676-1.481,10.858-6.276l9.723-40.762
							c1.125-5.129-2.304-10.146-7.492-10.96l0,0C343.57,187.192,339.003,190.373,338.044,195.166z"/>
					</g>
					<g>
						<path style="fill:#506789;" d="M344.965,232.719l-24.269-39.998l-15.207,8.682l24.856,40.865
							c2.712,4.235,8.43,5.31,12.495,2.349l0,0C346.623,241.86,347.561,236.613,344.965,232.719z"/>
					</g>
				</g>
			</g>
			<g>
				<polygon style="fill:#2D394C;" points="395.836,281.507 346.295,281.507 346.772,255.787 393.622,255.787 				"/>
				<g>
					<path style="fill:#2D394C;" d="M346.179,281.2l-1.51,59.401c-0.18,5.367,4.122,9.816,9.492,9.816l0,0
						c4.862,0,8.939-3.672,9.446-8.507l5.972-59.092c0.727-6.928-4.706-12.96-11.672-12.96l0,0
						C351.58,269.858,346.391,274.875,346.179,281.2z"/>
					<g>
						<g>
							<g>
								<linearGradient id="SVGID_1_" gradientUnits="userSpaceOnUse" x1="349.1955" y1="399.4548" x2="349.1955" y2="419.0285">
									<stop  offset="0" style="stop-color:#DFEDFF"/>
									<stop  offset="1" style="stop-color:#B6D7FF"/>
								</linearGradient>
								<polygon style="fill:url(#SVGID_1_);" points="344.02,419.021 345.21,399.455 354.371,399.496 352.92,419.029 								"/>
							</g>
							<g>
								<path style="fill:#2D394C;" d="M353.647,418.908h-10.433l-6.974,5.712c-1.698,1.206-2.722,3.261-2.722,5.464v1.226
									l23.438-0.137v-3.111c0-1.151-0.28-2.281-0.812-3.277L353.647,418.908z"/>
								
									<linearGradient id="SVGID_00000114757148008511930140000000676533628113461671_" gradientUnits="userSpaceOnUse" x1="345.2375" y1="431.065" x2="345.2375" y2="434.3733">
									<stop  offset="0" style="stop-color:#DFEDFF"/>
									<stop  offset="1" style="stop-color:#B6D7FF"/>
								</linearGradient>
								<polyline style="fill:url(#SVGID_00000114757148008511930140000000676533628113461671_);" points="333.038,434.373 
									357.451,434.245 357.437,431.065 333.024,431.194 333.038,434.373 								"/>
								<g>
									
										<path style="fill:none;stroke:#FFFFFF;stroke-width:0.4606;stroke-linecap:round;stroke-linejoin:round;stroke-miterlimit:10;" d="
										M346.095,421.799c0,0,1.84-6.934,4.586-6.539C354.61,415.827,350.961,420.403,346.095,421.799z"/>
									
										<path style="fill:none;stroke:#FFFFFF;stroke-width:0.4606;stroke-linecap:round;stroke-linejoin:round;stroke-miterlimit:10;" d="
										M346.185,421.8c0,0-2.172-6.838-4.896-6.31C337.392,416.244,341.258,420.64,346.185,421.8z"/>
								</g>
							</g>
						</g>
						<path style="fill:#2D394C;" d="M363.59,342.241l-7.554,68.812h-13.389l2.055-70.146c0.152-5.304,4.63-9.45,9.93-9.194h0
							C360.098,331.977,364.204,336.803,363.59,342.241z"/>
					</g>
				</g>
				<g>
					<path style="fill:#2D394C;" d="M395.75,281.2l2.577,59.401c0.18,5.367-4.122,9.816-9.492,9.816l0,0
						c-4.862,0-8.938-3.672-9.446-8.507l-7.039-59.092c-0.727-6.928,4.706-12.96,11.671-12.96l0,0
						C390.349,269.858,395.538,274.875,395.75,281.2z"/>
					<g>
						<g>
							
								<linearGradient id="SVGID_00000058578323281700451200000001101570367681235849_" gradientUnits="userSpaceOnUse" x1="393.1845" y1="399.4548" x2="393.1845" y2="419.0621">
								<stop  offset="0" style="stop-color:#DFEDFF"/>
								<stop  offset="1" style="stop-color:#B6D7FF"/>
							</linearGradient>
							<polygon style="fill:url(#SVGID_00000058578323281700451200000001101570367681235849_);" points="398.36,419.021 
								397.17,399.455 388.009,399.496 389.181,419.062 							"/>
							<path style="fill:#2D394C;" d="M399.06,419.017l11.443,6.231l6.44,1.258c2.96,0.578,5.185,3.038,5.464,6.041l0.13,1.405
								l-34.714,0.157l-0.068-15.041L399.06,419.017z"/>
							<g>
								
									<path style="fill:none;stroke:#FFFFFF;stroke-width:0.4606;stroke-linecap:round;stroke-linejoin:round;stroke-miterlimit:10;" d="
									M403.874,422.01c0,0-2.164-6.84,0.366-7.978C407.86,412.404,407.233,418.223,403.874,422.01z"/>
								
									<path style="fill:none;stroke:#FFFFFF;stroke-width:0.4606;stroke-linecap:round;stroke-linejoin:round;stroke-miterlimit:10;" d="
									M403.951,421.963c0,0-5.499-4.608-7.516-2.702C393.55,421.987,399.169,423.625,403.951,421.963z"/>
							</g>
							
								<linearGradient id="SVGID_00000157274079216884237370000016572527238071403685_" gradientUnits="userSpaceOnUse" x1="405.1748" y1="431.0951" x2="405.1748" y2="434.3432">
								<stop  offset="0" style="stop-color:#DFEDFF"/>
								<stop  offset="1" style="stop-color:#B6D7FF"/>
							</linearGradient>
							<polyline style="fill:url(#SVGID_00000157274079216884237370000016572527238071403685_);" points="387.684,434.343 
								422.679,434.185 422.665,431.095 387.67,431.254 387.684,434.343 							"/>
						</g>
						<path style="fill:#2D394C;" d="M379.407,342.241l7.554,68.812h13.389l-2.055-70.146c-0.152-5.304-4.63-9.45-9.93-9.194l0,0
							C382.899,331.977,378.792,336.803,379.407,342.241z"/>
					</g>
				</g>
			</g>
			<g>
				<g>
					<polygon style="fill:#506789;" points="382.65,178.305 378.246,178.305 379.813,182.022 					"/>
					<g>
						<path style="fill:#FCC7C0;" d="M371.686,191.452v-0.374c-5.087,0-9.212-4.124-9.212-9.211v-19.605h18.423v19.605
							C380.897,186.955,376.773,191.452,371.686,191.452z"/>
					</g>
					<g>
						<polygon style="fill:#506789;" points="356.116,193.89 365.921,182.543 373.602,192.021 380.281,182.022 390.569,193.89 
													"/>
						<g>
							<path style="fill:#7FB5F7;" d="M373.602,191.079l-5.527-7.685c-0.75-1.272-1.775-2.371-3.005-3.223l-2.298-1.59
								c-0.486-0.337-1.131-0.368-1.649-0.079l-2.317,1.291c-0.535,0.298-0.832,0.879-0.753,1.472l0.953,7.173
								c0.094,0.708,0.992,0.994,1.502,0.479l5.072-5.133c0.283-0.286,0.765-0.248,0.996,0.078l7.027,8.493V191.079z"/>
							<path style="fill:#7FB5F7;" d="M373.602,191.083l8.709-12.503c0.243-0.344,0.255-0.367,0.678-0.079l1.894,1.291
								c0.437,0.298,0.68,0.879,0.616,1.472l0.289,7.173c-0.077,0.708-0.811,0.994-1.227,0.479l-3.705-5.106
								c-0.231-0.286-0.625-0.248-0.814,0.078l-6.439,8.471V191.083z"/>
						</g>
					</g>
				</g>
				<g>
					<path style="fill:#2D394C;" d="M391.296,135.057c-0.923-3.424-3.092-8.255-10.835-11.859
						c-12.794-5.954-19.531,6.692-19.531,6.692c-3.448-0.375-6.311,0.837-7.954,4.153c-1.539,3.107-0.032,8.95,0.435,10.985
						l2.804,12.905l2.461-12.275c2.42-8.074,6.098-11.363,6.098-11.363l11.691-0.949l12.398,23.411l2.412-13.854
						c0.306-1.757,0.433-3.548,0.336-5.33C391.555,136.543,391.455,135.648,391.296,135.057z"/>
					<g>
						<path style="fill:#FCC7C0;" d="M386.708,153.923c0,0,1.56-2.48,4.776-1.26c3.217,1.22,1.762,9.032-3.064,10.028
							c0,0-1.73,0.377-3.086-0.807C385.335,161.883,386.521,156.113,386.708,153.923z"/>
					</g>
					<g>
						<path style="fill:#FCC7C0;" d="M356.636,153.834c0,0-1.904-2.431-4.959-1.172c-3.181,1.312-1.762,9.032,3.064,10.028
							c0,0,1.73,0.377,3.086-0.807C357.826,161.883,356.822,156.024,356.636,153.834z"/>
					</g>
					<path style="fill:#FCC7C0;" d="M389.703,146.51c0.002,4.709-0.461,14.562-3.356,20.41c-2.718,5.491-7.214,8.446-13.108,8.622
						c-5.894,0.176-10.286-2.096-13.805-9.222c-3.519-7.126-3.351-19.722-3.351-19.722s0-16.824,16.628-16.824
						C390.224,129.774,389.703,146.51,389.703,146.51z"/>
					<path style="fill:#2D394C;" d="M388.189,131.878c-0.433,0.145-14.412-3.73-14.412-3.73l-12.268,3.73
						c0,0,0.004,0.01,0.007,0.018c-10.785,2.918-6.032,13.131-6.032,13.131c6.77-2.607,6.784-6.951,7.625-10.314
						c1.962,2.58,10.816,7.279,20.064,7.101c9.471-0.183,7.868-3.871,7.868-3.871S388.623,131.734,388.189,131.878z"/>
					<g>
						<path style="fill:#2D394C;" d="M371.253,151.719c0,1.421-0.703,2.573-1.569,2.573c-0.866,0-1.569-1.152-1.569-2.573
							c0-1.421,0.703-2.573,1.569-2.573C370.55,149.145,371.253,150.298,371.253,151.719z"/>
						<path style="fill:#2D394C;" d="M381.606,151.719c0,1.421,0.702,2.573,1.569,2.573c0.866,0,1.569-1.152,1.569-2.573
							c0-1.421-0.703-2.573-1.569-2.573C382.308,149.145,381.606,150.298,381.606,151.719z"/>
					</g>
					<polygon style="fill:#2D394C;" points="357.27,140.862 357.826,154.859 355.597,152.941 355.597,152.941 353.892,140.135 					
						"/>
				</g>
			</g>
		</g>
		<polygon style="fill:#7FB5F7;" points="427.904,260.884 411.022,269.767 405.904,260.609 416.978,254.844 421.22,258.922 
			419.272,253.799 422.781,252.124 		"/>
		<g>
			<path style="fill:#EF9F9A;" d="M362.646,171.33c0.896,1.997,3.174,3.004,5.118,3.747c2.553,0.976,5.295,1.818,7.989,0.999
				c0.738-0.225,0.43-1.366-0.32-1.16c-4.404,1.208-9.066-1.229-12.431-3.861C362.798,170.896,362.537,171.087,362.646,171.33
				L362.646,171.33z"/>
		</g>
		<g>
			<path style="fill:#EF9F9A;" d="M376.8,152.15c-0.441,1.416-0.034,3.094,0.577,4.41c0.407,0.877,1.427,1.972,1.333,2.975
				c-0.157,1.67-2.158,1.507-3.387,1.751c-0.489,0.097-0.366,0.723,0,0.874c1.963,0.811,4.661,0.143,4.791-2.332
				c0.067-1.275-0.697-2.275-1.292-3.328c-0.794-1.405-0.943-3.02-1.728-4.387C377.022,151.989,376.841,152.02,376.8,152.15
				L376.8,152.15z"/>
		</g>
		<g>
			<path style="fill:#EF9F9A;" d="M366.597,165.176c0.808-0.103,1.981-1.133,1.625-2.055c-0.046-0.119-0.163-0.175-0.281-0.114
				c-0.309,0.157-0.525,0.491-0.749,0.747c-0.265,0.3-0.582,0.538-0.832,0.85C366.204,164.796,366.274,165.217,366.597,165.176
				L366.597,165.176z"/>
		</g>
		<g>
			<path style="fill:#EF9F9A;" d="M367.469,164.337c2.037,5.364,12.697,6.041,15.547,1.219c0.176-0.298-0.162-0.549-0.433-0.433
				c-1.249,0.536-2.172,1.517-3.462,1.986c-1.603,0.584-3.491,0.485-5.153,0.175c-2.528-0.472-4.134-1.751-6.121-3.238
				C367.672,163.914,367.392,164.134,367.469,164.337L367.469,164.337z"/>
		</g>
		<path style="fill:#7FB5F7;" d="M353.21,144.164l-7.716-35.723h46.15l-0.043,31.694C391.6,140.135,374.666,131.186,353.21,144.164z
			"/>
		<g>
			<path style="fill:#7FB5F7;" d="M348.382,120.449c-0.709-2.561-2.073-4.937-3.926-6.842c-1.175-1.208-2.548-2.237-3.539-3.6
				c-2.155-2.963-2.033-7.375,0.282-10.215c0.475-0.583,1.034-1.105,1.68-1.49c1.855-1.106,4.248-0.96,6.248-0.145
				c2,0.814,3.694,2.219,5.353,3.601c0.329-3.931,3.766-7,7.482-8.324c2.557-0.911,5.525-1.159,7.897,0.161
				c1.017,0.567,1.874,1.395,2.569,2.329c1.023,1.375,1.712,2.996,1.992,4.687c0.773-0.242-1.612-5.848,3.829-7.989
				c1.962-0.772,4.552-1.52,6.636-1.84c2.553-0.392,5.14,0.289,7.435,1.474c3.509,1.813,4.673,6.375,4.223,10.299
				c-0.209,1.827-0.683,3.624-1.403,5.317c-0.874,2.055-2.1,3.944-3.003,5.987c-0.903,2.042-1.478,4.34-0.949,6.509"/>
		</g>
		<g>
			<path style="fill:#506789;" d="M375.504,132.287c-1.943,0.051-3.887,0.205-5.798,0.562c-4.328,0.808-8.39,2.632-12.404,4.44
				c-1.442,0.649-2.884,1.299-4.325,1.949c-0.251,0.113-0.504,0.228-0.756,0.346l0.989,4.58c21.456-12.978,38.39-4.029,38.39-4.029
				l0.008-5.859C386.376,132.828,380.931,132.146,375.504,132.287z"/>
		</g>
		<path style="fill:#7FB5F7;" d="M376.031,255.787h-5.378v-68.199l4.579,5.366c0.516,0.604,0.799,1.372,0.799,2.167V255.787z"/>
		<path style="fill:#506789;" d="M375.361,197.148c0,1.109-0.899,2.009-2.009,2.009c-1.11,0-2.009-0.9-2.009-2.009
			s0.899-2.009,2.009-2.009C374.462,195.139,375.361,196.038,375.361,197.148z"/>
		<path style="fill:#506789;" d="M375.361,213.152c0,1.11-0.899,2.009-2.009,2.009c-1.11,0-2.009-0.899-2.009-2.009
			c0-1.11,0.899-2.009,2.009-2.009C374.462,211.143,375.361,212.042,375.361,213.152z"/>
		<path style="fill:#506789;" d="M375.361,229.156c0,1.11-0.899,2.009-2.009,2.009c-1.11,0-2.009-0.899-2.009-2.009
			c0-1.109,0.899-2.009,2.009-2.009C374.462,227.147,375.361,228.046,375.361,229.156z"/>
		<path style="fill:#506789;" d="M375.361,245.16c0,1.109-0.899,2.009-2.009,2.009c-1.11,0-2.009-0.9-2.009-2.009
			s0.899-2.009,2.009-2.009C374.462,243.15,375.361,244.05,375.361,245.16z"/>
		<polygon style="fill:#7FB5F7;" points="304.614,201.448 321.384,192.355 326.617,201.448 315.615,207.351 311.322,203.326 
			313.335,208.424 309.846,210.144 		"/>
		<g>
			<path style="fill:#6382A8;" d="M333.741,214.97c-0.745,3.632-0.87,8.043,0.242,11.618c0.1,0.323,0.583,0.264,0.591-0.08
				c0.083-3.781-0.26-7.686-0.372-11.475C334.193,214.779,333.796,214.702,333.741,214.97L333.741,214.97z"/>
		</g>
		<g>
			<path style="fill:#6382A8;" d="M346.436,239.835c2.23-5.639,3.689-11.783,4.914-17.713c0.604-2.925,1.131-5.865,1.579-8.818
				c0.376-2.476,1.031-5.172,0.649-7.665c-0.03-0.195-0.291-0.144-0.347,0c-1.002,2.595-0.987,5.595-1.413,8.33
				c-0.46,2.952-1.003,5.889-1.613,8.814c-1.194,5.714-2.851,11.263-4.236,16.923C345.894,240.016,346.324,240.119,346.436,239.835
				L346.436,239.835z"/>
		</g>
		<g>
			<path style="fill:#6382A8;" d="M393.781,238.876c-0.015-5.622-1.541-11.367-3.126-16.725c-0.836-2.824-1.864-5.575-2.758-8.379
				c-1.055-3.308-1.247-6.432-1.506-9.857c-0.02-0.264-0.361-0.307-0.453-0.061c-1.986,5.3,1.785,11.815,3.433,16.75
				c2.01,6.02,2.655,12.156,3.842,18.349C393.276,239.278,393.782,239.196,393.781,238.876L393.781,238.876z"/>
		</g>
		<g>
			<path style="fill:#479DEA;" d="M408.969,231.884c0.01,0,0.01-0.016,0-0.016C408.959,231.869,408.959,231.884,408.969,231.884
				L408.969,231.884z"/>
		</g>
		<g>
			<path style="fill:#6382A8;" d="M409.421,231.048c-1.239,0.417-2.267,0.905-3.61,0.915c-1.161,0.008-2.311-0.11-3.459,0.109
				c-0.413,0.079-0.399,0.732,0,0.821c2.612,0.583,5.259,0.336,7.381-1.309C409.988,231.385,409.711,230.951,409.421,231.048
				L409.421,231.048z"/>
		</g>
		<g>
			<path style="fill:#479DEA;" d="M354.223,101.53c-0.16,5.629,4.529,11.2,8.106,15.136c0.148,0.163,0.409-0.046,0.301-0.232
				c-2.87-4.911-7.434-8.891-7.821-14.904C354.785,101.156,354.234,101.15,354.223,101.53L354.223,101.53z"/>
		</g>
		<g>
			<path style="fill:#479DEA;" d="M374.293,100.836c-0.331,2.533,0.15,5.15,0.024,7.708c-0.154,3.118-1.1,4.93-2.754,7.448
				c-0.108,0.165,0.112,0.396,0.278,0.278c1.959-1.392,2.924-3.094,3.274-5.469c0.461-3.132,0.516-6.967-0.438-10.017
				C374.607,100.56,374.32,100.626,374.293,100.836L374.293,100.836z"/>
		</g>
		<g>
			<path style="fill:#479DEA;" d="M347.956,118.97c-0.161,2.812,2.437,4.577,4.735,5.57c0.193,0.084,0.36-0.175,0.169-0.29
				c-2.061-1.251-4.257-2.794-4.797-5.294C348.05,118.893,347.96,118.911,347.956,118.97L347.956,118.97z"/>
		</g>
		<g>
			<path style="fill:#479DEA;" d="M391.32,114.121c-1.94,3.803-0.346,9.44-5.114,11.532c-0.22,0.096-0.063,0.455,0.163,0.385
				c4.699-1.44,4.713-7.894,5.126-11.871C391.505,114.076,391.361,114.041,391.32,114.121L391.32,114.121z"/>
		</g>
		<g>
			<path style="fill:#479DEA;" d="M353.157,137.236c0.787-2.548,2.063-4.661,3.647-6.778c0.124-0.165-0.143-0.361-0.282-0.218
				c-1.84,1.89-3.057,4.366-3.757,6.888C352.695,137.381,353.08,137.485,353.157,137.236L353.157,137.236z"/>
		</g>
		<g>
			<path style="fill:#479DEA;" d="M354.69,137.208c1.161-2.029,2.415-3.877,4.011-5.596c0.252-0.272-0.127-0.641-0.403-0.403
				c-1.795,1.546-3.303,3.547-4.179,5.758C353.986,137.301,354.518,137.509,354.69,137.208L354.69,137.208z"/>
		</g>
		<g>
			<g>
				<g>
					<g>
						<path style="fill:#2D394C;" d="M337.462,132.652c0.633,0.222,0.965,0.915,0.743,1.547l-8.04,22.917
							c-0.222,0.633-0.914,0.965-1.547,0.743l-22.917-8.039c-0.632-0.222-0.965-0.915-0.743-1.547l8.039-22.917
							c0.222-0.632,0.915-0.965,1.547-0.743L337.462,132.652 M337.975,131.191l-22.917-8.039c-1.437-0.504-3.017,0.255-3.521,1.692
							l-8.039,22.917c-0.504,1.437,0.255,3.017,1.692,3.521l22.917,8.039c1.437,0.504,3.017-0.255,3.521-1.692l8.039-22.917
							C340.171,133.275,339.412,131.695,337.975,131.191L337.975,131.191z"/>
					</g>
					<g>
						<g>
							<path style="fill:#2D394C;" d="M306.532,150.933c-0.403-0.142-0.616-0.583-0.474-0.987l8.843-25.208
								c0.142-0.404,0.583-0.616,0.987-0.474c0.404,0.142,0.616,0.583,0.474,0.987l-8.843,25.208
								C307.378,150.862,306.936,151.074,306.532,150.933z"/>
						</g>
						<g>
							<path style="fill:#2D394C;" d="M309.99,152.145c-0.404-0.142-0.616-0.583-0.474-0.987l8.843-25.208
								c0.142-0.404,0.583-0.616,0.987-0.474c0.404,0.142,0.616,0.583,0.474,0.987l-8.843,25.208
								C310.835,152.075,310.393,152.287,309.99,152.145z"/>
						</g>
						<g>
							<path style="fill:#2D394C;" d="M313.447,153.358c-0.404-0.142-0.616-0.583-0.474-0.987l8.843-25.208
								c0.142-0.404,0.583-0.616,0.987-0.474c0.404,0.142,0.616,0.583,0.474,0.987l-8.843,25.208
								C314.292,153.287,313.85,153.5,313.447,153.358z"/>
						</g>
						<g>
							<path style="fill:#2D394C;" d="M316.904,154.571c-0.404-0.141-0.616-0.583-0.474-0.987l8.843-25.208
								c0.142-0.404,0.583-0.616,0.987-0.474c0.404,0.142,0.616,0.583,0.474,0.987l-8.843,25.208
								C317.749,154.5,317.308,154.713,316.904,154.571z"/>
						</g>
						<g>
							<path style="fill:#2D394C;" d="M320.361,155.784c-0.404-0.141-0.616-0.583-0.474-0.987l8.843-25.208
								c0.142-0.404,0.583-0.616,0.987-0.474c0.404,0.142,0.616,0.583,0.474,0.987l-8.843,25.208
								C321.207,155.713,320.765,155.925,320.361,155.784z"/>
						</g>
						<g>
							<path style="fill:#2D394C;" d="M323.819,156.997c-0.404-0.142-0.616-0.583-0.474-0.987l8.843-25.208
								c0.142-0.404,0.583-0.616,0.987-0.474c0.404,0.142,0.616,0.583,0.474,0.987l-8.843,25.208
								C324.664,156.926,324.222,157.138,323.819,156.997z"/>
						</g>
						<g>
							<path style="fill:#2D394C;" d="M327.276,158.21c-0.403-0.142-0.616-0.583-0.474-0.987l8.843-25.208
								c0.142-0.403,0.583-0.616,0.987-0.474c0.404,0.142,0.616,0.583,0.474,0.987l-8.843,25.208
								C328.121,158.139,327.68,158.351,327.276,158.21z"/>
						</g>
					</g>
				</g>
				<g>
					<g>
						<g>
							<path style="fill:#479DEA;" d="M303.322,193.29c-0.954-0.335-1.458-1.383-1.123-2.337l12.71-36.231
								c0.142-0.404,0.583-0.616,0.987-0.474l2,0.701c0.404,0.142,0.616,0.583,0.474,0.987l-12.71,36.231
								C305.324,193.121,304.276,193.624,303.322,193.29z"/>
						</g>
					</g>
				</g>
				<g>
					<g>
						<path style="fill:#7FB5F7;" d="M299.609,199.553c-1.23-0.431-1.879-1.783-1.448-3.013l9.973-28.428
							c0.431-1.23,1.783-1.879,3.012-1.448l2.699,0.947c1.23,0.431,1.879,1.783,1.448,3.012l-9.973,28.428
							c-0.431,1.23-1.783,1.879-3.013,1.448L299.609,199.553z"/>
					</g>
				</g>
			</g>
			<g>
				
					<rect x="299.88" y="185.31" transform="matrix(0.331 -0.9436 0.9436 0.331 25.4909 414.1018)" style="fill:#B6D7FF;" width="9.841" height="7.526"/>
			</g>
		</g>
	</g>
	<g>
		<g>
			<g>
				<g>
					<g>
						<path style="fill:#2D394C;" d="M539.772,148.459h-0.492c-1.338,0-2.427-1.089-2.427-2.427v-6.747
							c0-1.338,1.089-2.427,2.427-2.427h0.492c1.338,0,2.427,1.089,2.427,2.427v6.747C542.2,147.37,541.111,148.459,539.772,148.459
							z M539.281,138.352c-0.514,0-0.933,0.418-0.933,0.933v6.747c0,0.514,0.418,0.932,0.933,0.932h0.492
							c0.514,0,0.933-0.418,0.933-0.932v-6.747c0-0.514-0.418-0.933-0.933-0.933H539.281z"/>
					</g>
				</g>
				<g>
					<g>
						<g>
							<path style="fill:#7FB5F7;" d="M539.527,187.075c-1.546,0-3-0.602-4.093-1.696l-16.205-16.205
								c-1.094-1.093-1.695-2.547-1.695-4.093c0-1.546,0.602-3,1.695-4.093l16.205-16.205c1.093-1.093,2.547-1.696,4.093-1.696
								s3,0.602,4.093,1.696l16.205,16.205c1.094,1.093,1.696,2.547,1.696,4.093c0,1.546-0.602,3-1.696,4.093l-16.205,16.205
								C542.527,186.472,541.073,187.075,539.527,187.075z"/>
						</g>
					</g>
					<g>
						<g>
							<path style="fill:#B6D7FF;" d="M539.527,183.42c-1.309,0-2.539-0.51-3.465-1.435l-13.44-13.439
								c-0.926-0.926-1.435-2.156-1.435-3.465c0-1.309,0.51-2.54,1.435-3.465l13.44-13.439c0.925-0.926,2.156-1.435,3.465-1.435
								c1.309,0,2.539,0.51,3.465,1.435l13.44,13.439c0.925,0.925,1.435,2.156,1.435,3.465c0,1.309-0.51,2.539-1.435,3.465
								l-13.44,13.439C542.066,182.911,540.835,183.42,539.527,183.42z"/>
						</g>
					</g>
					<g>
						<path style="fill:#7FB5F7;" d="M542.195,179.491c-1.474,1.474-3.863,1.474-5.337,0l-11.741-11.741
							c-1.474-1.474-1.474-3.863,0-5.337l11.741-11.741c1.474-1.474,3.864-1.474,5.337,0l11.741,11.741
							c1.474,1.474,1.474,3.864,0,5.337L542.195,179.491z"/>
					</g>
				</g>
			</g>
		</g>
		<g>
			<g>
				<g>
					<g>
						<path style="fill:#2D394C;" d="M591.017,148.459h-0.492c-1.338,0-2.427-1.089-2.427-2.427v-6.747
							c0-1.338,1.089-2.427,2.427-2.427h0.492c1.338,0,2.427,1.089,2.427,2.427v6.747
							C593.444,147.37,592.355,148.459,591.017,148.459z M590.526,138.352c-0.514,0-0.933,0.418-0.933,0.933v6.747
							c0,0.514,0.418,0.932,0.933,0.932h0.492c0.514,0,0.933-0.418,0.933-0.932v-6.747c0-0.514-0.418-0.933-0.933-0.933H590.526z"/>
					</g>
				</g>
				<g>
					<g>
						<g>
							<path style="fill:#7FB5F7;" d="M590.771,187.075c-1.546,0-3-0.602-4.093-1.696l-16.205-16.205
								c-1.094-1.093-1.695-2.547-1.695-4.093c0-1.546,0.602-3,1.695-4.093l16.205-16.205c1.093-1.093,2.547-1.696,4.093-1.696
								c1.546,0,3,0.602,4.093,1.696l16.205,16.205c1.094,1.093,1.696,2.547,1.696,4.093c0,1.546-0.602,3-1.696,4.093
								l-16.205,16.205C593.771,186.472,592.318,187.075,590.771,187.075z"/>
						</g>
					</g>
					<g>
						<g>
							<path style="fill:#B6D7FF;" d="M590.771,183.42c-1.309,0-2.539-0.51-3.465-1.435l-13.44-13.439
								c-0.926-0.926-1.435-2.156-1.435-3.465c0-1.309,0.51-2.54,1.435-3.465l13.44-13.439c0.925-0.926,2.156-1.435,3.465-1.435
								c1.309,0,2.539,0.51,3.465,1.435l13.44,13.439c0.926,0.925,1.435,2.156,1.435,3.465c0,1.309-0.51,2.539-1.435,3.465
								l-13.44,13.439C593.311,182.911,592.08,183.42,590.771,183.42z"/>
						</g>
					</g>
					<g>
						<path style="fill:#7FB5F7;" d="M593.44,179.491c-1.474,1.474-3.863,1.474-5.337,0l-11.741-11.741
							c-1.474-1.474-1.474-3.863,0-5.337l11.741-11.741c1.474-1.474,3.864-1.474,5.337,0l11.741,11.741
							c1.474,1.474,1.474,3.864,0,5.337L593.44,179.491z"/>
					</g>
				</g>
			</g>
		</g>
	</g>
	<g>
		<g>
			<g>
				<g>
					<g>
						<g>
							<g>
								<g>
									<g>
										<rect x="135.041" y="420.383" style="fill:#506789;" width="141.76" height="14.102"/>
									</g>
								</g>
							</g>
							<g>
								<g>
									<g>
										<path style="fill:#B6D7FF;" d="M134.783,423.795c-0.942,0-1.706-0.764-1.706-1.706V168.672
											c0-0.942,0.764-1.706,1.706-1.706H277.06c0.942,0,1.706,0.764,1.706,1.706v253.417c0,0.942-0.764,1.706-1.706,1.706
											H134.783z"/>
									</g>
								</g>
							</g>
							<g>
								<g>
									<g>
										<path style="fill:#7FB5F7;" d="M186.473,423.795c-0.942,0-1.706-0.764-1.706-1.706V168.672
											c0-0.942,0.764-1.706,1.706-1.706h90.586c0.942,0,1.706,0.764,1.706,1.706v253.417c0,0.942-0.764,1.706-1.706,1.706
											H186.473z"/>
									</g>
								</g>
							</g>
							<g>
								<g>
									<g>
										<path style="fill:#7FB5F7;" d="M157.744,204.204c-0.942,0-1.706-0.764-1.706-1.706v-5.5l-4.614,2.994
											c-0.287,0.186-0.609,0.275-0.927,0.275c-0.559,0-1.106-0.274-1.433-0.778l-1.212-1.868
											c-0.246-0.379-0.332-0.841-0.237-1.284c0.094-0.442,0.36-0.83,0.74-1.076l5.323-3.454l-5.323-3.454
											c-0.38-0.246-0.646-0.633-0.74-1.076c-0.094-0.443-0.009-0.904,0.237-1.284l1.212-1.868
											c0.327-0.503,0.874-0.778,1.433-0.778c0.318,0,0.64,0.089,0.927,0.275l4.614,2.994v-5.5c0-0.942,0.764-1.706,1.706-1.706
											h2.227c0.942,0,1.706,0.764,1.706,1.706v5.5l4.614-2.994c0.287-0.186,0.609-0.275,0.927-0.275
											c0.559,0,1.106,0.274,1.433,0.778l1.212,1.868c0.246,0.38,0.332,0.841,0.238,1.284c-0.094,0.443-0.361,0.83-0.74,1.076
											l-5.323,3.454l5.323,3.454c0.38,0.246,0.646,0.633,0.74,1.076c0.094,0.443,0.009,0.904-0.237,1.284l-1.212,1.868
											c-0.327,0.503-0.874,0.778-1.433,0.778c-0.318,0-0.64-0.089-0.927-0.275l-4.614-2.994v5.5
											c0,0.942-0.764,1.706-1.706,1.706H157.744z"/>
									</g>
								</g>
							</g>
							<g>
								<g>
									<g>
										<path style="fill:#506789;" d="M218,277.052c-0.942,0-1.706-0.764-1.706-1.706v-32.187c0-0.942,0.764-1.706,1.706-1.706
											h37.704c0.942,0,1.706,0.764,1.706,1.706v32.187c0,0.942-0.764,1.706-1.706,1.706H218z"/>
									</g>
								</g>
							</g>
							<g>
								<g>
									<g>
										<rect x="216.294" y="264.54" style="fill:#2D394C;" width="41.116" height="12.511"/>
									</g>
								</g>
							</g>
							<g>
								<g>
									<g>
										<g>
											<path style="fill:#2D394C;" d="M172.96,310.774c-0.942,0-1.706-0.764-1.706-1.706v-8.615c0-0.453,0.18-0.886,0.5-1.206
												l2.73-2.73c0.326-0.327,0.763-0.5,1.207-0.5c0.22,0,0.441,0.042,0.653,0.13c0.637,0.264,1.053,0.886,1.053,1.576v11.345
												c0,0.942-0.764,1.706-1.706,1.706H172.96z"/>
										</g>
									</g>
								</g>
								<g>
									<g>
										<g>
											<path style="fill:#2D394C;" d="M172.96,222.231c-0.22,0-0.442-0.042-0.653-0.13c-0.637-0.264-1.053-0.886-1.053-1.576
												v-11.089c0-0.942,0.764-1.706,1.706-1.706h2.73c0.942,0,1.706,0.764,1.706,1.706v8.36c0,0.452-0.18,0.886-0.5,1.206
												l-2.73,2.73C173.84,222.057,173.404,222.231,172.96,222.231z"/>
										</g>
									</g>
								</g>
								<g>
									<g>
										<g>
											<path style="fill:#506789;" d="M172.96,302.159c-0.22,0-0.442-0.042-0.653-0.13c-0.637-0.264-1.053-0.886-1.053-1.576
												v-79.928c0-0.452,0.18-0.886,0.5-1.206l2.73-2.73c0.326-0.327,0.763-0.5,1.207-0.5c0.22,0,0.441,0.042,0.653,0.13
												c0.637,0.264,1.053,0.886,1.053,1.576v79.928c0,0.452-0.18,0.886-0.5,1.206l-2.73,2.73
												C173.84,301.986,173.404,302.159,172.96,302.159z"/>
										</g>
									</g>
								</g>
							</g>
							<g>
								<g>
									<g>
										<g>
											<path style="fill:#2D394C;" d="M193.944,310.774c-0.942,0-1.706-0.764-1.706-1.706v-8.615c0-0.453,0.18-0.886,0.5-1.206
												l2.73-2.73c0.326-0.327,0.763-0.5,1.207-0.5c0.22,0,0.441,0.042,0.653,0.13c0.637,0.264,1.053,0.886,1.053,1.576v11.345
												c0,0.942-0.764,1.706-1.706,1.706H193.944z"/>
										</g>
									</g>
								</g>
								<g>
									<g>
										<g>
											<path style="fill:#2D394C;" d="M193.944,222.231c-0.22,0-0.441-0.042-0.653-0.13c-0.637-0.264-1.053-0.886-1.053-1.576
												v-11.089c0-0.942,0.764-1.706,1.706-1.706h2.73c0.942,0,1.706,0.764,1.706,1.706v8.36c0,0.452-0.18,0.886-0.5,1.206
												l-2.73,2.73C194.824,222.057,194.388,222.231,193.944,222.231z"/>
										</g>
									</g>
								</g>
								<g>
									<g>
										<g>
											<path style="fill:#506789;" d="M193.944,302.159c-0.22,0-0.441-0.042-0.653-0.13c-0.637-0.264-1.053-0.886-1.053-1.576
												v-79.928c0-0.452,0.18-0.886,0.5-1.206l2.73-2.73c0.326-0.327,0.763-0.5,1.207-0.5c0.22,0,0.441,0.042,0.653,0.13
												c0.637,0.264,1.053,0.886,1.053,1.576v79.928c0,0.452-0.18,0.886-0.5,1.206l-2.73,2.73
												C194.824,301.986,194.388,302.159,193.944,302.159z"/>
										</g>
									</g>
								</g>
							</g>
						</g>
						<g>
							<g>
								<rect x="188.315" y="410.032" style="fill:#2D394C;" width="86.781" height="10.123"/>
							</g>
						</g>
						<g>
							<g>
								<rect x="136.747" y="410.032" style="fill:#2D394C;" width="44.231" height="10.123"/>
							</g>
						</g>
						<g>
							<g>
								
									<linearGradient id="SVGID_00000041262943656269072840000017744018771786689934_" gradientUnits="userSpaceOnUse" x1="205.9212" y1="429.2531" x2="205.9212" y2="429.2531">
									<stop  offset="0" style="stop-color:#DFEDFF"/>
									<stop  offset="1" style="stop-color:#B6D7FF"/>
								</linearGradient>
								
									<line style="fill:url(#SVGID_00000041262943656269072840000017744018771786689934_);" x1="144.709" y1="429.253" x2="267.134" y2="429.253"/>
							</g>
							<g>
								<path style="fill:#2D394C;" d="M267.134,430.959H144.709c-0.942,0-1.706-0.764-1.706-1.706c0-0.942,0.764-1.706,1.706-1.706
									h122.425c0.942,0,1.706,0.764,1.706,1.706C268.84,430.195,268.076,430.959,267.134,430.959z"/>
							</g>
						</g>
					</g>
					<g>
						<g>
							<polygon style="fill:#B6D7FF;" points="245.012,248.106 241.009,254.589 244.305,254.589 248.307,248.106 							"/>
						</g>
						<g>
							<polygon style="fill:#B6D7FF;" points="229.398,248.106 225.395,254.589 228.691,254.589 232.694,248.106 							"/>
						</g>
						<g>
							<polygon style="fill:#B6D7FF;" points="227.894,248.106 223.891,254.589 224.593,254.589 228.596,248.106 							"/>
						</g>
						<g>
							<polygon style="fill:#B6D7FF;" points="235.701,248.106 231.699,254.589 232.4,254.589 236.403,248.106 							"/>
						</g>
						<g>
							<polygon style="fill:#B6D7FF;" points="243.508,248.106 239.506,254.589 240.207,254.589 244.21,248.106 							"/>
						</g>
						<g>
							<polygon style="fill:#B6D7FF;" points="221.753,248.106 221.753,253.181 224.886,248.106 							"/>
						</g>
						<g>
							<polygon style="fill:#B6D7FF;" points="237.205,248.106 233.202,254.589 236.498,254.589 240.5,248.106 							"/>
						</g>
						<g>
							<polygon style="fill:#B6D7FF;" points="251.95,249.513 248.816,254.589 251.95,254.589 							"/>
						</g>
						<g>
							<polygon style="fill:#B6D7FF;" points="251.95,248.106 251.315,248.106 247.313,254.589 248.014,254.589 251.95,248.214 
															"/>
						</g>
						<g>
							
								<linearGradient id="SVGID_00000061433725173637210650000000942977610457239200_" gradientUnits="userSpaceOnUse" x1="224.8235" y1="248.1056" x2="224.8235" y2="254.5887">
								<stop  offset="0" style="stop-color:#DFEDFF"/>
								<stop  offset="1" style="stop-color:#B6D7FF"/>
							</linearGradient>
							<polygon style="fill:url(#SVGID_00000061433725173637210650000000942977610457239200_);" points="224.886,248.106 
								221.753,253.181 221.753,254.589 223.891,254.589 227.894,248.106 							"/>
						</g>
						<g>
							
								<linearGradient id="SVGID_00000183968020791629426240000006764478201827718559_" gradientUnits="userSpaceOnUse" x1="226.9955" y1="248.1056" x2="226.9955" y2="254.5887">
								<stop  offset="0" style="stop-color:#DFEDFF"/>
								<stop  offset="1" style="stop-color:#B6D7FF"/>
							</linearGradient>
							<polygon style="fill:url(#SVGID_00000183968020791629426240000006764478201827718559_);" points="228.596,248.106 
								224.593,254.589 225.395,254.589 229.398,248.106 							"/>
						</g>
						<g>
							
								<linearGradient id="SVGID_00000071522805585716378190000003613857628245146000_" gradientUnits="userSpaceOnUse" x1="232.196" y1="248.1056" x2="232.196" y2="254.5887">
								<stop  offset="0" style="stop-color:#DFEDFF"/>
								<stop  offset="1" style="stop-color:#B6D7FF"/>
							</linearGradient>
							<polygon style="fill:url(#SVGID_00000071522805585716378190000003613857628245146000_);" points="232.694,248.106 
								228.691,254.589 231.699,254.589 235.701,248.106 							"/>
						</g>
						<g>
							
								<linearGradient id="SVGID_00000045616240786732951640000010905499507435941276_" gradientUnits="userSpaceOnUse" x1="234.8026" y1="248.1056" x2="234.8026" y2="254.5887">
								<stop  offset="0" style="stop-color:#DFEDFF"/>
								<stop  offset="1" style="stop-color:#B6D7FF"/>
							</linearGradient>
							<polygon style="fill:url(#SVGID_00000045616240786732951640000010905499507435941276_);" points="236.403,248.106 
								232.4,254.589 233.202,254.589 237.205,248.106 							"/>
						</g>
						<g>
							
								<linearGradient id="SVGID_00000183249097518881547040000001431963470911586205_" gradientUnits="userSpaceOnUse" x1="240.0031" y1="248.1056" x2="240.0031" y2="254.5887">
								<stop  offset="0" style="stop-color:#DFEDFF"/>
								<stop  offset="1" style="stop-color:#B6D7FF"/>
							</linearGradient>
							<polygon style="fill:url(#SVGID_00000183249097518881547040000001431963470911586205_);" points="240.5,248.106 
								236.498,254.589 239.506,254.589 243.508,248.106 							"/>
						</g>
						<g>
							
								<linearGradient id="SVGID_00000171713735044259741490000005172928314351685283_" gradientUnits="userSpaceOnUse" x1="242.6095" y1="248.1056" x2="242.6095" y2="254.5887">
								<stop  offset="0" style="stop-color:#DFEDFF"/>
								<stop  offset="1" style="stop-color:#B6D7FF"/>
							</linearGradient>
							<polygon style="fill:url(#SVGID_00000171713735044259741490000005172928314351685283_);" points="244.21,248.106 
								240.207,254.589 241.009,254.589 245.012,248.106 							"/>
						</g>
						<g>
							
								<linearGradient id="SVGID_00000160154077131904029680000003000537425036380601_" gradientUnits="userSpaceOnUse" x1="247.8101" y1="248.1056" x2="247.8101" y2="254.5887">
								<stop  offset="0" style="stop-color:#DFEDFF"/>
								<stop  offset="1" style="stop-color:#B6D7FF"/>
							</linearGradient>
							<polygon style="fill:url(#SVGID_00000160154077131904029680000003000537425036380601_);" points="248.307,248.106 
								244.305,254.589 247.313,254.589 251.315,248.106 							"/>
						</g>
						<g>
							
								<linearGradient id="SVGID_00000127005813369253631250000002715230309893335949_" gradientUnits="userSpaceOnUse" x1="249.9822" y1="248.2139" x2="249.9822" y2="254.5887">
								<stop  offset="0" style="stop-color:#DFEDFF"/>
								<stop  offset="1" style="stop-color:#B6D7FF"/>
							</linearGradient>
							<polygon style="fill:url(#SVGID_00000127005813369253631250000002715230309893335949_);" points="251.95,248.214 
								248.014,254.589 248.816,254.589 251.95,249.513 							"/>
						</g>
					</g>
				</g>
			</g>
			<g>
				<g>
					<rect x="223.24" y="306.134" style="fill:#B6D7FF;" width="397.75" height="128.413"/>
					<path style="fill:#2D394C;" d="M215.882,306.134L215.882,306.134c0,2.325,1.342,4.21,7.039,4.21h398.972
						c5.697,0,7.104-1.885,7.104-4.21l0,0c0-2.325-1.407-4.21-7.104-4.21H222.921C217.224,301.924,215.882,303.809,215.882,306.134z
						"/>
				</g>
				<g>
					<g>
						<g>
							<g>
								<g>
									<g>
										<g>
											<path style="fill:#2D394C;" d="M523.158,301.66c0,0.536-0.435,0.971-0.971,0.971h-15.79c-0.536,0-0.97-0.435-0.97-0.971
												v-5.608c0-0.536,0.434-0.97,0.97-0.97h15.79c0.536,0,0.971,0.434,0.971,0.97V301.66z"/>
										</g>
									</g>
									<g>
										<g>
											<path style="fill:#2D394C;" d="M622.557,301.66c0,0.536-0.435,0.971-0.97,0.971h-15.79c-0.536,0-0.97-0.435-0.97-0.971
												v-5.608c0-0.536,0.435-0.97,0.97-0.97h15.79c0.536,0,0.97,0.434,0.97,0.97V301.66z"/>
										</g>
									</g>
								</g>
								<g>
									<g>
										<g>
											<g>
												<g>
													<path style="fill:#506789;" d="M502.667,296.317c-3.123,0-5.663-2.54-5.663-5.663v-66.725
														c0-3.123,2.54-5.663,5.663-5.663h103.459c0.682,0,1.234,0.553,1.234,1.234v75.583c0,0.682-0.553,1.234-1.234,1.234
														H502.667z"/>
												</g>
											</g>
										</g>
										<g>
											<g>
												<g>
													<path style="fill:#2D394C;" d="M606.126,296.317c-0.682,0-1.234-0.553-1.234-1.234v-75.583
														c0-0.682,0.553-1.234,1.234-1.234h19.191c3.123,0,5.663,2.541,5.663,5.663v66.725c0,3.123-2.541,5.663-5.663,5.663
														H606.126z"/>
												</g>
											</g>
										</g>
									</g>
									<g>
										<g>
											<g>
												<path style="fill:#2D394C;" d="M510.821,284.095c-2.11,0-3.826-1.716-3.826-3.826v-44.093
													c0-2.11,1.716-3.826,3.826-3.826h79.489c2.11,0,3.826,1.717,3.826,3.826v44.093c0,2.11-1.716,3.826-3.826,3.826H510.821
													z"/>
											</g>
										</g>
									</g>
									<g>
										<g>
											<g>
												<path style="fill:#E5E5E6;" d="M611.165,286.625c-1.091,0-1.978-0.887-1.978-1.978v-3.571
													c0-1.091,0.887-1.978,1.978-1.978h13.543c1.091,0,1.978,0.887,1.978,1.978v3.571c0,1.091-0.887,1.978-1.978,1.978
													H611.165z"/>
											</g>
										</g>
									</g>
									<g>
										<g>
											<g>
												<path style="fill:#E5E5E6;" d="M617.936,254.539c-4.425,0-8.025-3.6-8.025-8.025c0-4.425,3.6-8.025,8.025-8.025
													c4.425,0,8.025,3.6,8.025,8.025C625.961,250.939,622.361,254.539,617.936,254.539z"/>
											</g>
										</g>
									</g>
									<g>
										<g>
											<path style="fill:#2D394C;" d="M617.936,247.749c-0.682,0-1.234-0.553-1.234-1.234v-6.791
												c0-0.682,0.553-1.234,1.234-1.234c0.682,0,1.234,0.553,1.234,1.234v6.791
												C619.171,247.196,618.618,247.749,617.936,247.749z"/>
										</g>
									</g>
									<g>
										<g>
											<g>
												<path style="fill:#E5E5E6;" d="M617.936,274.616c-2.144,0-4.159-0.835-5.674-2.35c-3.129-3.129-3.129-8.22,0-11.349
													c1.516-1.516,3.531-2.351,5.675-2.351c2.143,0,4.159,0.835,5.675,2.351c3.129,3.129,3.129,8.22,0,11.349
													C622.095,273.781,620.08,274.616,617.936,274.616z"/>
											</g>
										</g>
									</g>
									<g>
										<g>
											<path style="fill:#2D394C;" d="M617.936,267.826c-0.316,0-0.632-0.121-0.873-0.362c-0.482-0.482-0.482-1.264,0-1.746
												l4.802-4.802c0.482-0.482,1.264-0.482,1.746,0c0.482,0.482,0.482,1.264,0,1.746l-4.802,4.802
												C618.568,267.705,618.252,267.826,617.936,267.826z"/>
										</g>
									</g>
									<g>
										<g>
											<path style="fill:#2D394C;" d="M622.414,246.514c0,2.473-2.005,4.478-4.478,4.478s-4.478-2.005-4.478-4.478
												s2.005-4.478,4.478-4.478S622.414,244.041,622.414,246.514z"/>
										</g>
									</g>
									<g>
										<g>
											<path style="fill:#2D394C;" d="M622.414,266.591c0,2.473-2.005,4.478-4.478,4.478s-4.478-2.005-4.478-4.478
												c0-2.473,2.005-4.478,4.478-4.478S622.414,264.118,622.414,266.591z"/>
										</g>
									</g>
								</g>
							</g>
							<g>
								<g>
									<polygon style="fill:#B6D7FF;" points="536.556,239.352 513.08,267.639 513.08,270.925 539.283,239.352 									"/>
								</g>
								<g>
									<path style="fill:#B6D7FF;" d="M542.01,239.352l-28.93,34.859v0.588c0,1.268,1.027,2.295,2.295,2.295h9.92l31.322-37.742
										H542.01z"/>
								</g>
								<g>
									<polygon style="fill:#B6D7FF;" points="568.487,239.352 537.165,277.094 539.892,277.094 571.214,239.352 									"/>
								</g>
								<g>
									<path style="fill:#B6D7FF;" d="M585.756,239.352h-11.815l-31.322,37.742h14.607l30.454-36.696
										C587.27,239.769,586.562,239.352,585.756,239.352z"/>
								</g>
								<g>
									<path style="fill:#B6D7FF;" d="M574.55,277.094h11.206c1.267,0,2.295-1.027,2.295-2.295v-13.973L574.55,277.094z"/>
								</g>
								<g>
									<path style="fill:#B6D7FF;" d="M515.375,239.352c-1.267,0-2.295,1.027-2.295,2.295v11.689l11.606-13.984H515.375z"/>
								</g>
								<g>
									<polygon style="fill:#B6D7FF;" points="588.051,254.254 569.096,277.094 571.823,277.094 588.051,257.54 									"/>
								</g>
								<g>
									
										<linearGradient id="SVGID_00000135686190153419900900000018046766189742936707_" gradientUnits="userSpaceOnUse" x1="524.8179" y1="239.3519" x2="524.8179" y2="267.6395">
										<stop  offset="0" style="stop-color:#DFEDFF"/>
										<stop  offset="1" style="stop-color:#B6D7FF"/>
									</linearGradient>
									<polygon style="fill:url(#SVGID_00000135686190153419900900000018046766189742936707_);" points="524.686,239.352 
										513.08,253.336 513.08,267.639 536.556,239.352 									"/>
								</g>
								<g>
									
										<linearGradient id="SVGID_00000096047707565586126130000015608340791360299407_" gradientUnits="userSpaceOnUse" x1="527.5449" y1="239.3519" x2="527.5449" y2="274.2112">
										<stop  offset="0" style="stop-color:#DFEDFF"/>
										<stop  offset="1" style="stop-color:#B6D7FF"/>
									</linearGradient>
									<polygon style="fill:url(#SVGID_00000096047707565586126130000015608340791360299407_);" points="539.283,239.352 
										513.08,270.925 513.08,274.211 542.01,239.352 									"/>
								</g>
								<g>
									
										<linearGradient id="SVGID_00000022524280648102132790000003897480320418023848_" gradientUnits="userSpaceOnUse" x1="546.8907" y1="239.3519" x2="546.8907" y2="277.0939">
										<stop  offset="0" style="stop-color:#DFEDFF"/>
										<stop  offset="1" style="stop-color:#B6D7FF"/>
									</linearGradient>
									<polygon style="fill:url(#SVGID_00000022524280648102132790000003897480320418023848_);" points="556.617,239.352 
										525.294,277.094 537.165,277.094 568.487,239.352 									"/>
								</g>
								<g>
									
										<linearGradient id="SVGID_00000117647240555867498200000008072490963758942371_" gradientUnits="userSpaceOnUse" x1="556.9163" y1="239.3519" x2="556.9163" y2="277.0939">
										<stop  offset="0" style="stop-color:#DFEDFF"/>
										<stop  offset="1" style="stop-color:#B6D7FF"/>
									</linearGradient>
									<polygon style="fill:url(#SVGID_00000117647240555867498200000008072490963758942371_);" points="571.214,239.352 
										539.892,277.094 542.619,277.094 573.941,239.352 									"/>
								</g>
								<g>
									
										<linearGradient id="SVGID_00000119092439286817904780000015074578698321061050_" gradientUnits="userSpaceOnUse" x1="572.6381" y1="240.3981" x2="572.6381" y2="277.0939">
										<stop  offset="0" style="stop-color:#DFEDFF"/>
										<stop  offset="1" style="stop-color:#B6D7FF"/>
									</linearGradient>
									<path style="fill:url(#SVGID_00000119092439286817904780000015074578698321061050_);" d="M588.051,241.647
										c0-0.461-0.137-0.889-0.371-1.249l-30.454,36.696h11.87l18.955-22.84V241.647z"/>
								</g>
								<g>
									
										<linearGradient id="SVGID_00000117637794323695382490000005319418121294109629_" gradientUnits="userSpaceOnUse" x1="579.9367" y1="257.5399" x2="579.9367" y2="277.0939">
										<stop  offset="0" style="stop-color:#DFEDFF"/>
										<stop  offset="1" style="stop-color:#B6D7FF"/>
									</linearGradient>
									<polygon style="fill:url(#SVGID_00000117637794323695382490000005319418121294109629_);" points="588.051,257.54 
										571.823,277.094 574.55,277.094 588.051,260.826 									"/>
								</g>
							</g>
							<g>
								<g>
									<polygon style="fill:#B6D7FF;" points="624.816,227.006 621.158,234.555 622.118,234.555 625.776,227.006 									"/>
								</g>
								<g>
									<polygon style="fill:#B6D7FF;" points="615.951,227.006 612.292,234.555 613.253,234.555 616.911,227.006 									"/>
								</g>
								<g>
									<polygon style="fill:#B6D7FF;" points="617.825,227.006 614.167,234.555 618.231,234.555 621.89,227.006 									"/>
								</g>
								<g>
									<path style="fill:#B6D7FF;" d="M610.042,227.006c-0.536,0-0.971,0.434-0.971,0.971v5.608c0,0.317,0.155,0.597,0.39,0.774
										l3.563-7.352H610.042z"/>
								</g>
								<g>
									<path style="fill:#B6D7FF;" d="M623.032,234.555h2.799c0.536,0,0.971-0.435,0.971-0.97v-5.608
										c0-0.255-0.101-0.486-0.262-0.659L623.032,234.555z"/>
								</g>
								<g>
									
										<linearGradient id="SVGID_00000008852585581593755080000011801980769641116321_" gradientUnits="userSpaceOnUse" x1="612.7061" y1="227.0063" x2="612.7061" y2="234.5551">
										<stop  offset="0" style="stop-color:#DFEDFF"/>
										<stop  offset="1" style="stop-color:#B6D7FF"/>
									</linearGradient>
									<path style="fill:url(#SVGID_00000008852585581593755080000011801980769641116321_);" d="M613.024,227.006l-3.563,7.352
										c0.162,0.122,0.362,0.197,0.58,0.197h2.251l3.658-7.549H613.024z"/>
								</g>
								<g>
									
										<linearGradient id="SVGID_00000124126482711493025190000009313070134987619996_" gradientUnits="userSpaceOnUse" x1="615.5389" y1="227.0063" x2="615.5389" y2="234.5551">
										<stop  offset="0" style="stop-color:#DFEDFF"/>
										<stop  offset="1" style="stop-color:#B6D7FF"/>
									</linearGradient>
									<polygon style="fill:url(#SVGID_00000124126482711493025190000009313070134987619996_);" points="616.911,227.006 
										613.253,234.555 614.167,234.555 617.825,227.006 									"/>
								</g>
								<g>
									
										<linearGradient id="SVGID_00000152224592080744978250000017312580711375890336_" gradientUnits="userSpaceOnUse" x1="621.5237" y1="227.0063" x2="621.5237" y2="234.5551">
										<stop  offset="0" style="stop-color:#DFEDFF"/>
										<stop  offset="1" style="stop-color:#B6D7FF"/>
									</linearGradient>
									<polygon style="fill:url(#SVGID_00000152224592080744978250000017312580711375890336_);" points="621.89,227.006 
										618.231,234.555 621.158,234.555 624.816,227.006 									"/>
								</g>
								<g>
									
										<linearGradient id="SVGID_00000080915114067573554920000013630214850968521130_" gradientUnits="userSpaceOnUse" x1="624.3289" y1="227.0063" x2="624.3289" y2="234.5551">
										<stop  offset="0" style="stop-color:#DFEDFF"/>
										<stop  offset="1" style="stop-color:#B6D7FF"/>
									</linearGradient>
									<path style="fill:url(#SVGID_00000080915114067573554920000013630214850968521130_);" d="M625.831,227.006h-0.055
										l-3.658,7.549h0.914l3.508-7.237C626.363,227.127,626.112,227.006,625.831,227.006z"/>
								</g>
							</g>
						</g>
					</g>
				</g>
				<g>
					<g>
						<g>
							<g>
								<g>
									<g>
										<g>
											<path style="fill:#506789;" d="M357.508,278.22c0,2.045-1.658,3.703-3.703,3.703h-37.029
												c-2.045,0-3.703-1.658-3.703-3.703v-6.462c0-2.045,1.658-3.703,3.703-3.703h37.029c2.045,0,3.703,1.658,3.703,3.703
												V278.22z"/>
										</g>
									</g>
									<g>
										<g>
											<path style="fill:#506789;" d="M444.768,278.22c0,2.045-1.658,3.703-3.703,3.703h-37.029
												c-2.045,0-3.703-1.658-3.703-3.703v-6.462c0-2.045,1.658-3.703,3.703-3.703h37.029c2.045,0,3.703,1.658,3.703,3.703
												V278.22z"/>
										</g>
									</g>
									<g>
										<g>
											<rect x="304.864" y="279.248" style="fill:#2D394C;" width="16.787" height="22.712"/>
										</g>
									</g>
									<g>
										<g>
											<rect x="436.375" y="279.248" style="fill:#2D394C;" width="16.787" height="22.712"/>
										</g>
									</g>
									<g>
										<g>
											<g>
												<path style="fill:#506789;" d="M304.864,295.048c-0.682,0-1.234-0.552-1.234-1.234v-18.826
													c0-0.682,0.553-1.234,1.234-1.234h148.298c0.682,0,1.234,0.553,1.234,1.234v18.826c0,0.682-0.553,1.234-1.234,1.234
													H304.864z"/>
											</g>
										</g>
									</g>
									<g>
										<g>
											<g>
												<g>
													<path style="fill:#7FB5F7;" d="M296.055,297.069c-6.985,0-12.669-5.683-12.669-12.668
														c0-6.986,5.683-12.668,12.669-12.668h8.81c0.682,0,1.234,0.552,1.234,1.234v22.868c0,0.682-0.553,1.234-1.234,1.234
														H296.055z"/>
												</g>
											</g>
										</g>
									</g>
									<g>
										<g>
											<g>
												<path style="fill:#2D394C;" d="M295.643,276.552c-4.335,0-7.849,3.514-7.849,7.849c0,4.335,3.514,7.849,7.849,7.849
													h6.048v-15.698H295.643z"/>
											</g>
										</g>
									</g>
									<g>
										<g>
											<g>
												<g>
													<path style="fill:#7FB5F7;" d="M453.162,297.069c-0.682,0-1.234-0.553-1.234-1.234v-22.868
														c0-0.682,0.553-1.234,1.234-1.234h8.81c6.985,0,12.668,5.683,12.668,12.668c0,6.986-5.683,12.668-12.668,12.668
														H453.162z"/>
												</g>
											</g>
										</g>
									</g>
									<g>
										<g>
											<g>
												<path style="fill:#2D394C;" d="M462.383,292.25c4.335,0,7.849-3.514,7.849-7.849c0-4.335-3.514-7.849-7.849-7.849
													h-6.048v15.698H462.383z"/>
											</g>
										</g>
									</g>
									<g>
										<g>
											<path style="fill:#2D394C;" d="M319.809,284.401c0,1.845-1.496,3.341-3.341,3.341l0,0c-1.845,0-3.341-1.496-3.341-3.341
												l0,0c0-1.845,1.496-3.341,3.341-3.341l0,0C318.313,281.06,319.809,282.556,319.809,284.401L319.809,284.401z"/>
										</g>
									</g>
									<g>
										<g>
											<g>
												<path style="fill:#DF6464;" d="M335.29,291.879c-4.123,0-7.478-3.355-7.478-7.478c0-4.123,3.355-7.478,7.478-7.478
													c4.123,0,7.478,3.355,7.478,7.478C342.768,288.524,339.413,291.879,335.29,291.879z"/>
											</g>
										</g>
									</g>
									<g>
										<g>
											<path style="fill:#2D394C;" d="M335.29,285.635c-0.682,0-1.234-0.553-1.234-1.234v-6.244
												c0-0.682,0.553-1.234,1.234-1.234c0.682,0,1.234,0.553,1.234,1.234v6.244
												C336.524,285.083,335.972,285.635,335.29,285.635z"/>
										</g>
									</g>
									<g>
										<g>
											<path style="fill:#2D394C;" d="M338.448,284.401c0,1.744-1.414,3.158-3.158,3.158c-1.744,0-3.158-1.414-3.158-3.158
												c0-1.744,1.414-3.158,3.158-3.158C337.034,281.243,338.448,282.657,338.448,284.401z"/>
										</g>
									</g>
									<g>
										<g>
											<g>
												<path style="fill:#FBF26B;" d="M422.551,291.879c-1.998,0-3.875-0.778-5.288-2.19c-1.412-1.412-2.19-3.29-2.19-5.288
													c0-1.997,0.778-3.875,2.19-5.288c1.412-1.413,3.29-2.19,5.288-2.19c1.997,0,3.875,0.778,5.288,2.19
													c1.412,1.412,2.19,3.29,2.19,5.288c0,1.997-0.778,3.875-2.19,5.288C426.426,291.101,424.548,291.879,422.551,291.879z"
													/>
											</g>
										</g>
									</g>
									<g>
										<g>
											<path style="fill:#2D394C;" d="M422.551,285.635c-0.316,0-0.632-0.121-0.873-0.362l-4.415-4.415
												c-0.482-0.482-0.482-1.264,0-1.746c0.482-0.482,1.264-0.482,1.746,0l4.415,4.415c0.482,0.482,0.482,1.264,0,1.746
												C423.183,285.515,422.867,285.635,422.551,285.635z"/>
										</g>
									</g>
									<g>
										<g>
											<path style="fill:#2D394C;" d="M424.784,282.168c1.233,1.233,1.233,3.232,0,4.466c-1.233,1.233-3.233,1.233-4.466,0
												c-1.233-1.233-1.233-3.232,0-4.466C421.551,280.935,423.551,280.935,424.784,282.168z"/>
										</g>
									</g>
								</g>
								<g>
									<g>
										<polygon style="fill:#B6D7FF;" points="367.714,278.157 361.717,290.645 370.082,290.645 376.079,278.157 										"/>
									</g>
									<g>
										<polygon style="fill:#B6D7FF;" points="387.444,278.157 381.447,290.645 389.813,290.645 395.809,278.157 										"/>
									</g>
									<g>
										<polygon style="fill:#B6D7FF;" points="363.743,278.157 357.746,290.645 359.526,290.645 365.523,278.157 										"/>
									</g>
									<g>
										<path style="fill:#B6D7FF;" d="M349.672,278.157c-2.045,0-3.703,1.658-3.703,3.703v5.081c0,2.045,1.658,3.703,3.703,3.703
											h0.68l5.996-12.487H349.672z"/>
									</g>
									<g>
										<polygon style="fill:#B6D7FF;" points="383.473,278.157 377.477,290.645 379.257,290.645 385.253,278.157 										"/>
									</g>
									<g>
										<polygon style="fill:#B6D7FF;" points="403.203,278.157 397.207,290.645 398.987,290.645 404.983,278.157 										"/>
									</g>
									<g>
										<path style="fill:#B6D7FF;" d="M408.354,278.157h-1.18l-5.996,12.487h7.177c2.045,0,3.703-1.658,3.703-3.703v-5.081
											C412.057,279.815,410.4,278.157,408.354,278.157z"/>
									</g>
									<g>
										
											<linearGradient id="SVGID_00000124153369037924208170000016358540387896343459_" gradientUnits="userSpaceOnUse" x1="357.0472" y1="278.1574" x2="357.0472" y2="290.6446">
											<stop  offset="0" style="stop-color:#DFEDFF"/>
											<stop  offset="1" style="stop-color:#B6D7FF"/>
										</linearGradient>
										<polygon style="fill:url(#SVGID_00000124153369037924208170000016358540387896343459_);" points="356.348,278.157 
											350.352,290.645 357.746,290.645 363.743,278.157 										"/>
									</g>
									<g>
										
											<linearGradient id="SVGID_00000125592537206537480520000005782592817325237172_" gradientUnits="userSpaceOnUse" x1="363.6198" y1="278.1574" x2="363.6198" y2="290.6446">
											<stop  offset="0" style="stop-color:#DFEDFF"/>
											<stop  offset="1" style="stop-color:#B6D7FF"/>
										</linearGradient>
										<polygon style="fill:url(#SVGID_00000125592537206537480520000005782592817325237172_);" points="365.523,278.157 
											359.526,290.645 361.717,290.645 367.714,278.157 										"/>
									</g>
									<g>
										
											<linearGradient id="SVGID_00000029735884456606118570000013526527830138794423_" gradientUnits="userSpaceOnUse" x1="376.7774" y1="278.1574" x2="376.7774" y2="290.6446">
											<stop  offset="0" style="stop-color:#DFEDFF"/>
											<stop  offset="1" style="stop-color:#B6D7FF"/>
										</linearGradient>
										<polygon style="fill:url(#SVGID_00000029735884456606118570000013526527830138794423_);" points="376.079,278.157 
											370.082,290.645 377.477,290.645 383.473,278.157 										"/>
									</g>
									<g>
										
											<linearGradient id="SVGID_00000173846713639780814360000005571513193434410637_" gradientUnits="userSpaceOnUse" x1="383.3503" y1="278.1574" x2="383.3503" y2="290.6446">
											<stop  offset="0" style="stop-color:#DFEDFF"/>
											<stop  offset="1" style="stop-color:#B6D7FF"/>
										</linearGradient>
										<polygon style="fill:url(#SVGID_00000173846713639780814360000005571513193434410637_);" points="385.253,278.157 
											379.257,290.645 381.447,290.645 387.444,278.157 										"/>
									</g>
									<g>
										
											<linearGradient id="SVGID_00000098184031192453164510000003109809023821321101_" gradientUnits="userSpaceOnUse" x1="396.5078" y1="278.1574" x2="396.5078" y2="290.6446">
											<stop  offset="0" style="stop-color:#DFEDFF"/>
											<stop  offset="1" style="stop-color:#B6D7FF"/>
										</linearGradient>
										<polygon style="fill:url(#SVGID_00000098184031192453164510000003109809023821321101_);" points="395.809,278.157 
											389.813,290.645 397.207,290.645 403.203,278.157 										"/>
									</g>
									<g>
										
											<linearGradient id="SVGID_00000106860169366065348090000000027557419073566643_" gradientUnits="userSpaceOnUse" x1="403.0805" y1="278.1574" x2="403.0805" y2="290.6446">
											<stop  offset="0" style="stop-color:#DFEDFF"/>
											<stop  offset="1" style="stop-color:#B6D7FF"/>
										</linearGradient>
										<polygon style="fill:url(#SVGID_00000106860169366065348090000000027557419073566643_);" points="404.983,278.157 
											398.987,290.645 401.178,290.645 407.174,278.157 										"/>
									</g>
								</g>
							</g>
						</g>
					</g>
					<g>
						<g>
							<g>
								<g>
									<path style="fill:#2D394C;" d="M295.808,252.183h14.013c0.473,0,0.857-0.384,0.857-0.857l0,0
										c0-0.473-0.384-0.857-0.857-0.857h-14.013c-0.473,0-0.857,0.384-0.857,0.857l0,0
										C294.951,251.799,295.335,252.183,295.808,252.183z"/>
								</g>
							</g>
							<g>
								<g>
									<path style="fill:#2D394C;" d="M361.861,252.183h14.013c0.473,0,0.857-0.384,0.857-0.857l0,0
										c0-0.473-0.384-0.857-0.857-0.857h-14.013c-0.473,0-0.857,0.384-0.857,0.857l0,0
										C361.004,251.799,361.388,252.183,361.861,252.183z"/>
								</g>
							</g>
							<g>
								<g>
									<path style="fill:#2D394C;" d="M362.621,265.541c0,1.508-1.223,2.731-2.731,2.731h-49.035
										c-1.508,0-2.731-1.223-2.731-2.731l0,0c0-1.508,1.223-2.731,2.731-2.731h49.035
										C361.398,262.81,362.621,264.033,362.621,265.541L362.621,265.541z"/>
								</g>
							</g>
							<g>
								<g>
									<rect x="334.612" y="235.844" style="fill:#2D394C;" width="2.458" height="2.477"/>
								</g>
							</g>
							<g>
								<g>
									<g>
										<path style="fill:#B6D7FF;" d="M360.371,253.409c-0.332,0-0.601-0.269-0.601-0.601v-2.965
											c0-0.332,0.269-0.601,0.601-0.601h8.496c0.332,0,0.6,0.269,0.6,0.601v2.965c0,0.332-0.269,0.601-0.6,0.601H360.371z"/>
									</g>
								</g>
							</g>
							<g>
								<g>
									<g>
										<path style="fill:#B6D7FF;" d="M302.815,253.409c-0.332,0-0.601-0.269-0.601-0.601v-2.965
											c0-0.332,0.269-0.601,0.601-0.601h8.496c0.332,0,0.6,0.269,0.6,0.601v2.965c0,0.332-0.269,0.601-0.6,0.601H302.815z"/>
									</g>
								</g>
							</g>
							<g>
								<g>
									<g>
										<g>
											<path style="fill:#479DEA;" d="M309.608,266.366c-1.387,0-2.516-1.128-2.516-2.515V245.94c0-0.332,0.269-0.6,0.601-0.6
												h56.297c0.332,0,0.6,0.269,0.6,0.6v17.911c0,1.387-1.128,2.515-2.516,2.515H309.608z"/>
										</g>
									</g>
								</g>
							</g>
							<g>
								<g>
									<g>
										<g>
											<path style="fill:#B6D7FF;" d="M307.063,247.708c-0.332,0-0.601-0.269-0.601-0.601c0-3.145,4.822-5.16,8.867-6.296
												c5.487-1.542,12.771-2.391,20.512-2.391c7.74,0,15.025,0.849,20.512,2.391c4.045,1.137,8.867,3.152,8.867,6.296
												c0,0.332-0.269,0.601-0.601,0.601H307.063z"/>
										</g>
									</g>
								</g>
							</g>
							<g>
								<g>
									<g>
										<path style="fill:#2D394C;" d="M335.841,236.445c-2.066,0-3.963-0.949-5.204-2.605c-0.199-0.265-0.145-0.642,0.12-0.841
											c0.265-0.199,0.642-0.145,0.841,0.12c1.012,1.35,2.558,2.124,4.243,2.124c1.685,0,3.231-0.774,4.243-2.124
											c0.199-0.265,0.575-0.319,0.841-0.12c0.265,0.199,0.319,0.575,0.12,0.841
											C339.804,235.495,337.908,236.445,335.841,236.445z"/>
									</g>
								</g>
							</g>
							<g>
								<g>
									
										<linearGradient id="SVGID_00000129186202495339654410000000553214353726779327_" gradientUnits="userSpaceOnUse" x1="352.6354" y1="240.8338" x2="352.6354" y2="243.3149">
										<stop  offset="0" style="stop-color:#DFEDFF"/>
										<stop  offset="1" style="stop-color:#B6D7FF"/>
									</linearGradient>
									<path style="fill:url(#SVGID_00000129186202495339654410000000553214353726779327_);" d="M357.789,242.995
										c-0.082,0.459-2.456,0.419-5.303-0.09c-2.846-0.508-5.088-1.293-5.005-1.752c0.082-0.459,2.456-0.419,5.303,0.089
										C355.63,241.752,357.871,242.536,357.789,242.995z"/>
								</g>
							</g>
						</g>
					</g>
					<g>
						<g>
							<g>
								<g>
									<g>
										<rect x="452.111" y="259.187" style="fill:#2D394C;" width="16.486" height="1.797"/>
									</g>
								</g>
								<g>
									<g>
										<path style="fill:#2D394C;" d="M452.285,265.336c0,1.581-1.281,2.862-2.862,2.862h-51.398
											c-1.581,0-2.862-1.281-2.862-2.862l0,0c0-1.581,1.281-2.862,2.862-2.862h51.398
											C451.003,262.474,452.285,263.755,452.285,265.336L452.285,265.336z"/>
									</g>
								</g>
								<g>
									<g>
										<rect x="422.926" y="244.006" style="fill:#2D394C;" width="2.577" height="2.596"/>
									</g>
								</g>
								<g>
									<g>
										<g>
											<path style="fill:#B6D7FF;" d="M451.448,262.268c-0.348,0-0.63-0.282-0.63-0.629v-3.108c0-0.348,0.282-0.629,0.63-0.629
												h8.906c0.348,0,0.629,0.282,0.629,0.629v3.108c0,0.348-0.282,0.629-0.629,0.629H451.448z"/>
										</g>
									</g>
								</g>
								<g>
									<g>
										<g>
											<g>
												<path style="fill:#479DEA;" d="M396.716,266.202c-1.443,0-2.619-1.165-2.637-2.605l-0.717-7.458
													c-0.017-0.177,0.041-0.352,0.161-0.483c0.119-0.131,0.289-0.206,0.466-0.206h60.449c0.177,0,0.346,0.075,0.466,0.206
													c0.119,0.131,0.178,0.307,0.161,0.483l-0.717,7.458c-0.017,1.439-1.193,2.605-2.636,2.605H396.716z"/>
											</g>
										</g>
									</g>
								</g>
								<g>
									<g>
										<g>
											<g>
												<path style="fill:#B6D7FF;" d="M393.546,256.569c-0.348,0-0.63-0.282-0.63-0.629c0-3.345,5.134-5.489,9.442-6.699
													c5.846-1.643,13.608-2.548,21.856-2.548c8.248,0,16.01,0.905,21.856,2.548c4.307,1.21,9.442,3.355,9.442,6.699
													c0,0.348-0.282,0.629-0.63,0.629H393.546z"/>
											</g>
										</g>
									</g>
								</g>
								<g>
									<g>
										
											<linearGradient id="SVGID_00000109029749114989848930000006857012224276569255_" gradientUnits="userSpaceOnUse" x1="442.1112" y1="249.2532" x2="442.1112" y2="251.8972">
											<stop  offset="0" style="stop-color:#DFEDFF"/>
											<stop  offset="1" style="stop-color:#B6D7FF"/>
										</linearGradient>
										<path style="fill:url(#SVGID_00000109029749114989848930000006857012224276569255_);" d="M447.604,251.557
											c-0.087,0.489-2.617,0.447-5.651-0.095c-3.033-0.542-5.422-1.378-5.334-1.867c0.087-0.489,2.617-0.447,5.651,0.095
											C445.303,250.231,447.691,251.067,447.604,251.557z"/>
									</g>
								</g>
								<g>
									<g>
										<path style="fill:#2D394C;" d="M429.782,244.635h-11.136c-0.348,0-0.629-0.282-0.629-0.63s0.282-0.629,0.629-0.629h11.136
											c0.348,0,0.63,0.282,0.63,0.629S430.13,244.635,429.782,244.635z"/>
									</g>
								</g>
								<g>
									<g>
										<g>
											<path style="fill:#2D394C;" d="M487.783,265.364c-1.494,0.167-2.768-0.983-2.807-2.436h-17.879
												c-1.318,0-2.522-0.946-2.656-2.257c-0.154-1.507,1.03-2.784,2.507-2.784h18.24c2.666,0,4.828,2.161,4.828,4.828l0,0
												C490.015,264.024,489.083,265.219,487.783,265.364z"/>
										</g>
									</g>
								</g>
							</g>
						</g>
					</g>
				</g>
			</g>
		</g>
		<g>
			<g>
				
					<linearGradient id="SVGID_00000097495628180585639750000015708418416834883222_" gradientUnits="userSpaceOnUse" x1="414.5537" y1="117.5895" x2="414.5537" y2="226.3765">
					<stop  offset="0" style="stop-color:#FFFFFF"/>
					<stop  offset="1" style="stop-color:#FFFFFF;stop-opacity:0"/>
				</linearGradient>
				<path style="fill:url(#SVGID_00000097495628180585639750000015708418416834883222_);" d="M418.673,231.395
					c1.299-4.148-0.962-8.15-2.567-11.867c-2.574-5.962-2.202-11.482-0.008-17.465c1.614-4.401,2.304-8.514,1.111-13.124
					c-1.201-4.643-3.641-9.186-6.641-12.909c-0.227-0.282-0.645,0.077-0.485,0.374c2.332,4.324,5.152,8.341,6.321,13.198
					c1.336,5.548-0.605,9.876-2.219,15.046c-1.272,4.073-1.316,8.436,0.021,12.501c1.562,4.751,4.853,8.883,4.03,14.125
					C418.192,231.557,418.584,231.68,418.673,231.395L418.673,231.395z"/>
			</g>
			<g>
				
					<linearGradient id="SVGID_00000035515067151563124220000016985662165919149476_" gradientUnits="userSpaceOnUse" x1="426.0309" y1="117.5892" x2="426.0309" y2="226.376">
					<stop  offset="0" style="stop-color:#FFFFFF"/>
					<stop  offset="1" style="stop-color:#FFFFFF;stop-opacity:0"/>
				</linearGradient>
				<path style="fill:url(#SVGID_00000035515067151563124220000016985662165919149476_);" d="M426.879,228.631
					c-0.772-3.055-1.142-6.233-0.822-9.379c0.325-3.197,1.523-6.042,2.289-9.126c1.147-4.62,0.098-9.052-1.325-13.483
					c-1.633-5.086-3.53-10.154-2.484-15.57c0.92-4.765,3.433-9.251,2.407-14.217c-0.071-0.345-0.652-0.273-0.621,0.084
					c0.467,5.373-2.292,10.013-2.961,15.22c-0.639,4.97,1.136,9.703,2.659,14.345c0.838,2.555,1.649,5.176,1.872,7.87
					c0.248,2.989-0.495,5.715-1.385,8.538c-1.666,5.282-1.972,10.578-0.306,15.904C426.336,229.249,426.99,229.072,426.879,228.631
					L426.879,228.631z"/>
			</g>
			<g>
				
					<linearGradient id="SVGID_00000121256335799286319670000008408393702340491944_" gradientUnits="userSpaceOnUse" x1="435.348" y1="117.5894" x2="435.348" y2="226.3761">
					<stop  offset="0" style="stop-color:#FFFFFF"/>
					<stop  offset="1" style="stop-color:#FFFFFF;stop-opacity:0"/>
				</linearGradient>
				<path style="fill:url(#SVGID_00000121256335799286319670000008408393702340491944_);" d="M437.512,231.874
					c0.708-3.971-1.094-7.24-1.943-11.018c-1.065-4.742-0.087-9.54,0.762-14.232c1.328-7.34,2.042-16.501-2.695-22.907
					c-0.201-0.271-0.721-0.127-0.593,0.25c1.431,4.201,3.081,7.833,3.304,12.368c0.204,4.142-0.658,8.186-1.369,12.242
					c-0.617,3.517-1.133,7.099-0.651,10.668c0.57,4.223,3.313,8.138,2.702,12.497C436.986,232.052,437.454,232.195,437.512,231.874
					L437.512,231.874z"/>
			</g>
			<g>
				
					<linearGradient id="SVGID_00000103976406800064717190000004321402661888038291_" gradientUnits="userSpaceOnUse" x1="319.0936" y1="117.5893" x2="319.0936" y2="226.3761">
					<stop  offset="0" style="stop-color:#FFFFFF"/>
					<stop  offset="1" style="stop-color:#FFFFFF;stop-opacity:0"/>
				</linearGradient>
				<path style="fill:url(#SVGID_00000103976406800064717190000004321402661888038291_);" d="M318.716,233.799
					c2.281-3.54,3.277-7.601,2.675-11.793c-0.306-2.129-1.112-4.056-1.839-6.063c-1.074-2.965-1.138-5.735-0.442-8.807
					c1.01-4.457,2.614-8.608,2.163-13.258c-0.385-3.971-1.936-7.691-4.388-10.826c-0.107-0.137-0.331,0.04-0.239,0.185
					c2.423,3.8,3.789,8.11,3.733,12.637c-0.056,4.545-2.04,8.631-2.656,13.074c-0.561,4.045,0.991,7.045,2.124,10.825
					c1.379,4.598,0.711,9.59-1.496,13.813C318.225,233.827,318.568,234.028,318.716,233.799L318.716,233.799z"/>
			</g>
			<g>
				
					<linearGradient id="SVGID_00000149362581286657143550000016425987835510065831_" gradientUnits="userSpaceOnUse" x1="328.0791" y1="117.5892" x2="328.0791" y2="226.3762">
					<stop  offset="0" style="stop-color:#FFFFFF"/>
					<stop  offset="1" style="stop-color:#FFFFFF;stop-opacity:0"/>
				</linearGradient>
				<path style="fill:url(#SVGID_00000149362581286657143550000016425987835510065831_);" d="M329.264,226.732
					c1.427-4.147,1.818-8.437,0.958-12.76c-0.955-4.802-3.032-9.177-3.487-14.113c-0.854-9.276-0.249-19.45,3.225-28.108
					c0.171-0.425-0.487-0.659-0.714-0.301c-2.209,3.491-2.875,7.835-3.253,11.879c-0.437,4.677-0.625,9.484-0.438,14.178
					c0.185,4.649,1.384,8.812,2.746,13.227c1.625,5.265,1.914,10.506,0.404,15.844C328.604,226.939,329.144,227.08,329.264,226.732
					L329.264,226.732z"/>
			</g>
			<g>
				
					<linearGradient id="SVGID_00000126318283218010194520000005773676605977841577_" gradientUnits="userSpaceOnUse" x1="341.1914" y1="117.5892" x2="341.1914" y2="226.3759">
					<stop  offset="0" style="stop-color:#FFFFFF"/>
					<stop  offset="1" style="stop-color:#FFFFFF;stop-opacity:0"/>
				</linearGradient>
				<path style="fill:url(#SVGID_00000126318283218010194520000005773676605977841577_);" d="M343.492,230.801
					c2.051-3.802,1.044-7.922-0.654-11.655c-1.252-2.752-2.761-5.384-3.448-8.356c-0.745-3.219-0.644-6.556-0.225-9.811
					c1.196-9.293,6.74-21.379,1.371-30.279c-0.161-0.268-0.59-0.094-0.507,0.214c1.435,5.31,1.728,10.164,0.823,15.602
					c-0.802,4.823-2.195,9.531-2.808,14.389c-0.586,4.642-0.399,9.27,1.409,13.634c2.069,4.993,6.121,10.344,3.432,15.906
					C342.69,230.849,343.275,231.204,343.492,230.801L343.492,230.801z"/>
			</g>
		</g>
	</g>
</g>
</svg>
